{"glyphs":{"0":{"ha":1222,"x_min":0,"x_max":0,"o":"m 918 147 l 918 164 l 327 164 l 327 147 z m 686 245 l 686 282 l 700 282 l 700 293 l 658 293 l 658 282 l 672 282 l 672 245 z m 620 259 l 615 249 l 635 244 l 635 244 b 638 274 658 244 668 268 b 650 280 619 278 634 288 l 654 290 b 634 264 625 307 595 272 b 620 259 656 259 635 249 z m 704 293 b 727 244 704 270 699 244 l 727 244 b 749 293 755 244 749 270 l 736 293 b 727 255 736 274 740 255 b 718 293 714 255 718 274 z m 405 386 b 532 370 403 310 469 309 b 590 221 512 297 521 237 b 710 597 550 308 638 482 l 690 603 b 879 551 767 603 864 593 b 747 651 919 628 849 650 b 800 687 774 685 798 698 l 800 687 b 738 705 796 723 768 728 b 686 649 726 696 708 676 b 451 621 606 644 518 631 b 184 463 480 816 230 690 b 405 386 150 298 293 261 z m 245 447 b 418 617 262 597 449 774 b 357 610 391 613 369 610 b 409 585 354 576 383 583 b 298 542 390 539 342 494 b 443 585 244 452 384 377 l 433 588 l 652 603 b 652 603 652 603 652 603 l 652 603 l 652 603 b 582 490 628 569 603 530 l 582 490 b 496 391 559 455 534 410 b 460 422 472 380 447 384 b 538 452 482 414 518 428 b 447 503 589 510 507 580 l 446 503 b 293 373 409 446 370 367 b 245 447 262 375 240 399 z m 474 453 b 474 453 523 541 543 455 z m 876 291 b 862 244 836 312 817 244 b 876 291 891 244 898 279 z m 862 255 b 856 281 848 255 845 275 b 862 255 875 292 884 255 z m 808 269 b 759 293 808 297 776 293 l 759 245 b 808 269 776 245 808 240 z m 781 256 l 781 256 l 772 256 l 772 282 b 781 256 807 282 795 256 z m 933 28 b 955 36 933 50 953 48 l 969 39 l 969 39 l 969 39 b 918 27 961 66 918 63 b 970 19 918 -9 963 -11 l 956 21 b 933 28 953 6 933 5 z m 829 245 l 829 293 l 815 293 l 815 245 z m 178 884 b 110 954 135 872 100 908 b 343 1073 126 1022 259 1079 b 241 929 315 1040 276 987 b 238 962 237 939 237 951 b 212 878 183 952 183 905 b 225 618 152 762 123 642 b 273 857 204 665 231 763 b 415 1082 424 856 531 1026 b 435 1084 428 1091 435 1086 l 435 1084 b 369 1099 431 1122 397 1124 l 375 1095 b 52 963 261 1115 93 1065 b 178 884 12 865 118 790 z m 391 1058 b 278 897 449 1017 377 886 b 263 901 272 897 267 899 b 295 903 274 900 284 900 b 391 1058 326 967 363 1025 z m 977 28 b 1034 28 977 -12 1034 -10 b 977 28 1034 66 977 66 z m 992 28 b 1019 28 992 50 1019 50 b 992 28 1019 5 992 5 z m 1090 48 b 1058 48 1084 59 1067 59 l 1058 55 l 1044 55 l 1044 0 l 1059 0 b 1064 43 1059 13 1056 38 b 1078 0 1083 56 1078 15 l 1092 0 b 1097 43 1092 13 1089 38 b 1111 0 1116 56 1111 15 l 1125 0 l 1125 35 b 1090 48 1125 62 1101 60 z m 499 914 b 399 863 451 956 415 897 b 475 780 349 752 386 680 b 579 786 472 728 509 704 l 579 786 l 579 786 b 581 709 566 762 554 728 b 598 691 584 701 589 694 b 758 861 640 673 718 801 b 788 907 760 865 777 889 b 802 891 793 902 798 897 b 795 734 820 864 728 762 b 872 779 815 725 843 748 b 972 783 869 729 904 705 b 1099 769 969 714 1029 707 b 1093 983 1185 845 1226 1006 b 1023 776 1158 908 1061 754 b 1092 914 1001 789 1061 907 b 1025 912 1065 938 1043 930 b 907 883 1008 941 948 953 b 842 847 832 763 802 765 b 791 953 882 927 814 918 b 812 948 798 948 806 944 b 796 978 817 964 808 973 b 761 929 763 994 738 949 b 636 754 736 891 651 754 b 730 991 602 754 721 975 l 712 995 b 1048 945 856 1003 1026 1001 b 761 1039 1107 1052 933 1055 b 828 1085 789 1078 814 1099 b 765 1102 824 1120 795 1125 b 701 1033 748 1089 725 1064 b 485 1007 604 1022 517 1008 b 519 981 482 981 500 979 b 673 993 547 983 605 989 b 620 901 654 964 635 932 b 531 789 580 842 542 789 b 604 924 507 789 571 917 b 510 883 563 960 529 918 b 433 789 482 842 448 789 b 499 914 409 789 467 907 z m 1006 885 b 1007 886 1006 886 1007 886 l 1007 886 l 1006 885 b 1006 885 1006 885 1006 885 b 927 788 999 874 945 788 b 1006 885 911 788 972 932 z m 1079 677 b 1017 694 1075 712 1047 717 b 844 385 956 648 839 470 b 857 358 846 365 857 359 l 857 358 b 983 359 863 303 919 302 b 960 472 1036 406 1020 489 b 907 366 969 441 946 344 b 902 382 903 368 901 373 b 1079 677 929 510 1043 715 z m 153 19 l 144 55 l 130 55 l 121 19 l 110 55 l 96 55 l 114 0 l 128 0 l 137 36 l 147 0 l 161 0 l 178 55 l 164 55 z m 473 12 b 457 55 451 -3 457 46 l 442 55 l 442 20 b 479 8 442 -9 470 -4 l 479 0 l 479 0 l 479 0 l 492 0 l 492 55 l 478 55 b 473 12 478 40 480 17 z m 877 0 l 877 76 l 862 76 l 862 0 z m 556 47 l 556 55 l 542 55 l 542 0 l 557 0 b 573 41 557 14 552 54 l 578 54 b 556 47 568 59 561 56 z m 582 41 l 595 38 l 595 38 l 595 38 b 615 36 598 48 615 50 b 600 32 612 35 607 34 b 616 6 558 24 590 -19 l 618 0 l 632 0 l 629 35 b 582 41 629 67 587 61 z m 614 26 b 597 11 614 2 599 10 b 614 26 586 22 612 25 b 614 26 614 26 614 26 l 615 26 b 614 26 615 26 614 26 z m 655 28 b 677 36 655 50 675 48 l 691 39 l 691 39 l 691 39 b 640 27 683 66 640 63 b 692 19 640 -9 686 -11 l 678 21 b 655 28 675 6 655 5 z m 794 28 b 851 28 794 -13 851 -10 b 794 28 851 66 794 65 z m 809 27 b 836 28 809 50 836 50 b 809 27 836 5 809 5 z m 522 44 l 533 44 l 533 55 l 532 55 l 522 55 l 522 75 l 508 66 l 508 55 l 501 55 l 501 44 l 508 44 b 534 1 508 24 501 -13 l 532 12 b 522 44 519 8 522 14 z m 698 27 b 749 15 698 -8 740 -10 l 734 17 b 713 23 731 4 713 8 l 750 23 b 698 27 750 69 698 66 z m 713 32 b 735 32 713 49 735 50 z m 236 19 l 227 55 l 213 55 l 203 19 l 193 55 l 179 55 l 196 0 l 210 0 l 220 36 l 229 0 l 243 0 l 261 55 l 247 55 z m 362 0 l 362 15 l 348 15 l 348 0 z m 319 19 l 310 55 l 296 55 l 286 19 l 276 55 l 262 55 l 279 0 l 293 0 l 303 36 l 312 0 l 326 0 l 344 55 l 329 55 z m 747 549 b 769 446 788 549 787 494 b 707 452 736 357 651 343 b 766 524 725 487 751 521 b 666 468 725 561 688 517 b 678 329 626 379 641 334 b 840 480 743 321 824 404 b 747 549 854 548 803 591 z m 777 44 l 787 44 l 787 55 l 787 55 l 777 55 l 777 75 l 762 66 l 762 55 l 756 55 l 756 44 l 762 44 b 788 1 762 24 756 -13 l 787 12 b 777 44 774 7 777 14 z m 390 47 l 390 55 l 377 55 l 377 55 l 377 -21 l 391 -21 l 391 7 b 424 6 402 -4 415 -4 b 390 47 448 34 409 77 z m 391 29 l 391 29 b 391 29 391 29 391 29 b 416 28 391 50 416 51 b 391 29 416 3 391 5 z m 906 0 l 906 15 l 891 15 l 891 0 z "},"1":{"ha":1256,"x_min":0,"x_max":0,"o":"m 945 147 l 945 164 l 353 164 l 353 147 z m 712 245 l 712 282 l 727 282 l 727 293 l 684 293 l 684 282 l 699 282 l 699 245 z m 646 259 l 642 249 l 662 244 l 662 244 b 665 274 684 244 695 268 b 677 280 645 278 661 288 l 681 290 b 660 264 652 307 621 272 b 646 259 682 259 662 249 z m 731 293 b 753 244 731 270 726 244 l 753 244 b 776 293 781 244 776 270 l 762 293 b 753 255 762 274 766 255 b 744 293 741 255 744 274 z m 431 386 b 558 370 429 310 495 309 b 617 221 539 297 548 237 b 737 597 576 308 665 482 l 717 603 b 906 551 793 603 890 593 b 774 651 945 628 875 650 b 826 687 801 685 824 698 l 826 687 b 764 705 823 723 794 728 b 713 649 753 696 734 676 b 477 621 633 644 544 631 b 210 463 506 816 257 690 b 431 386 176 298 319 261 z m 272 447 b 444 617 288 597 475 774 b 383 610 417 613 396 610 b 435 585 380 576 409 583 b 324 542 417 539 368 494 b 469 585 270 452 411 377 l 460 588 l 678 603 b 678 603 678 603 678 603 l 678 603 l 678 603 b 608 490 654 569 629 530 l 608 490 b 523 391 585 455 561 410 b 487 422 498 380 474 384 b 565 452 508 414 544 428 b 473 503 615 510 533 580 l 473 503 b 320 373 435 446 396 367 b 272 447 288 375 266 399 z m 501 453 b 501 453 549 541 569 455 z m 902 291 b 889 244 863 312 844 244 b 902 291 918 244 924 279 z m 889 255 b 882 281 875 255 871 275 b 889 255 901 292 911 255 z m 834 269 b 785 293 834 297 802 293 l 785 245 b 834 269 802 245 834 240 z m 807 256 l 807 256 l 798 256 l 798 282 b 807 256 834 282 821 256 z m 959 28 b 981 36 959 50 979 48 l 996 39 l 996 39 l 996 39 b 944 27 988 66 944 63 b 996 19 944 -9 990 -11 l 982 21 b 959 28 979 6 959 5 z m 855 245 l 855 293 l 841 293 l 841 245 z m 204 884 b 137 954 162 872 126 908 b 370 1073 152 1022 286 1079 b 267 929 341 1040 302 987 b 264 962 264 939 263 951 b 239 878 210 952 210 905 b 252 618 179 762 150 642 b 299 857 230 665 258 763 b 442 1082 450 856 558 1026 b 461 1084 454 1091 461 1086 l 462 1084 b 395 1099 458 1122 424 1124 l 401 1095 b 78 963 287 1115 119 1066 b 204 884 38 865 144 790 z m 417 1058 b 304 897 476 1017 403 886 b 289 901 299 897 294 899 b 321 903 300 900 310 900 b 417 1058 353 967 389 1025 z m 1003 28 b 1060 28 1003 -12 1060 -10 b 1003 28 1060 66 1003 66 z m 1018 28 b 1045 28 1018 50 1045 50 b 1018 28 1045 5 1018 5 z m 1117 48 b 1084 48 1110 59 1094 59 l 1084 55 l 1071 55 l 1071 0 l 1085 0 b 1090 43 1085 13 1083 38 b 1104 0 1109 56 1104 15 l 1119 0 b 1124 43 1119 13 1116 38 b 1137 0 1142 56 1137 15 l 1152 0 l 1152 35 b 1117 48 1152 62 1127 60 z m 526 914 b 425 863 478 956 441 897 b 502 780 375 752 412 680 b 605 786 498 728 535 704 l 605 786 l 605 786 b 607 709 593 762 581 728 b 624 691 610 701 616 694 b 784 861 667 673 744 801 b 815 907 787 865 803 889 b 828 891 819 902 824 897 b 821 734 847 864 754 762 b 898 779 841 725 870 748 b 999 783 895 729 931 705 b 1126 769 996 714 1056 707 b 1120 983 1211 845 1252 1006 b 1049 776 1185 908 1088 754 b 1119 914 1027 789 1087 907 b 1052 912 1091 938 1069 930 b 933 883 1034 941 974 953 b 869 847 858 763 828 765 b 817 953 908 927 840 918 b 839 948 824 948 832 944 b 822 978 843 964 834 973 b 788 929 790 994 764 949 b 662 754 763 891 677 754 b 757 991 628 754 748 975 l 738 995 b 1074 945 883 1003 1053 1001 b 787 1039 1133 1052 959 1055 b 854 1085 815 1078 841 1099 b 792 1102 850 1120 822 1125 b 728 1033 774 1089 751 1064 b 511 1007 631 1022 543 1008 b 545 981 509 981 526 980 b 700 993 573 983 632 989 b 646 901 680 964 661 932 b 557 789 606 842 568 789 b 630 924 534 789 598 917 b 536 883 590 960 555 918 b 459 789 509 842 474 789 b 526 914 436 789 493 907 z m 1032 885 b 1033 886 1033 886 1033 886 l 1033 886 l 1032 885 b 1032 885 1032 885 1032 885 b 954 788 1025 874 971 788 b 1032 885 938 788 999 932 z m 1105 677 b 1043 694 1102 712 1073 717 b 871 385 982 648 865 470 b 883 358 872 365 883 359 l 883 358 b 1010 359 889 303 945 302 b 986 472 1063 406 1046 489 b 934 366 995 441 972 344 b 929 382 930 368 928 373 b 1105 677 955 510 1070 715 z m 180 19 l 171 55 l 157 55 l 147 19 l 137 55 l 123 55 l 140 0 l 154 0 l 163 36 l 173 0 l 187 0 l 205 55 l 190 55 z m 499 12 b 483 55 477 -3 483 46 l 468 55 l 468 20 b 505 8 468 -9 496 -4 l 505 0 l 505 0 l 505 0 l 519 0 l 519 55 l 504 55 b 499 12 504 40 507 17 z m 903 0 l 903 76 l 888 76 l 888 0 z m 582 47 l 582 55 l 568 55 l 568 0 l 583 0 b 600 41 583 14 579 54 l 604 54 b 582 47 594 59 588 56 z m 608 41 l 621 38 l 621 38 l 621 38 b 641 36 625 48 641 50 b 627 32 638 35 634 34 b 642 6 585 24 617 -19 l 644 0 l 658 0 l 655 35 b 608 41 655 67 614 61 z m 641 26 b 623 11 641 2 625 10 b 641 26 612 22 638 25 b 641 26 641 26 641 26 l 641 26 b 641 26 641 26 641 26 z m 682 28 b 703 36 682 50 701 48 l 718 39 l 718 39 l 718 39 b 666 27 710 66 666 63 b 719 19 666 -9 712 -11 l 704 21 b 682 28 701 6 682 5 z m 820 28 b 877 28 820 -13 877 -10 b 820 28 877 66 820 65 z m 835 27 b 862 28 835 50 862 50 b 835 27 862 5 835 5 z m 549 44 l 559 44 l 559 55 l 559 55 l 549 55 l 549 75 l 534 66 l 534 55 l 528 55 l 528 44 l 534 44 b 560 1 534 24 528 -13 l 559 12 b 549 44 546 8 549 14 z m 725 27 b 775 15 725 -8 767 -10 l 761 17 b 740 23 757 4 740 8 l 776 23 b 725 27 777 69 725 66 z m 740 32 b 762 32 740 49 761 50 z m 263 19 l 253 55 l 239 55 l 230 19 l 219 55 l 205 55 l 223 0 l 237 0 l 246 36 l 256 0 l 270 0 l 288 55 l 273 55 z m 389 0 l 389 15 l 374 15 l 374 0 z m 345 19 l 336 55 l 322 55 l 313 19 l 302 55 l 288 55 l 305 0 l 320 0 l 329 36 l 338 0 l 352 0 l 370 55 l 356 55 z m 773 549 b 796 446 814 549 814 494 b 734 452 762 357 678 343 b 793 524 752 487 777 521 b 692 468 751 561 714 517 b 705 329 652 379 668 334 b 866 480 769 321 851 404 b 773 549 880 548 829 591 z m 803 44 l 813 44 l 813 55 l 813 55 l 803 55 l 803 75 l 789 66 l 789 55 l 782 55 l 782 44 l 789 44 b 814 1 789 24 782 -13 l 813 12 b 803 44 800 7 803 14 z m 417 47 l 417 55 l 403 55 l 403 55 l 403 -21 l 418 -21 l 418 7 b 450 6 428 -4 441 -4 b 417 47 475 34 436 77 z m 418 29 l 418 29 b 418 29 418 29 418 29 b 442 28 418 50 442 51 b 418 29 442 3 418 5 z m 932 0 l 932 15 l 918 15 l 918 0 z "},"2":{"ha":1211,"x_min":0,"x_max":0,"o":"m 914 147 l 914 164 l 323 164 l 323 147 z m 682 245 l 682 282 l 696 282 l 696 293 l 653 293 l 653 282 l 668 282 l 668 245 z m 615 259 l 611 249 l 631 244 l 631 244 b 634 274 654 244 664 268 b 646 280 614 278 630 288 l 650 290 b 630 264 621 307 591 272 b 615 259 652 259 631 249 z m 700 293 b 723 244 700 270 695 244 l 723 244 b 745 293 750 244 745 270 l 732 293 b 723 255 732 274 735 255 b 714 293 710 255 714 274 z m 401 386 b 528 370 399 310 465 309 b 586 221 508 297 517 237 b 706 597 545 308 634 482 l 686 603 b 875 551 763 603 859 593 b 743 651 915 628 845 650 b 796 687 770 685 793 698 l 796 687 b 734 705 792 723 764 728 b 682 649 722 696 703 676 b 447 621 602 644 514 631 b 180 463 476 816 226 690 b 401 386 146 298 289 261 z m 241 447 b 414 617 258 597 445 774 b 352 610 387 613 365 610 b 405 585 350 576 379 583 b 294 542 386 539 338 494 b 439 585 239 452 380 377 l 429 588 l 648 603 b 648 603 648 603 648 603 l 648 603 l 648 603 b 578 490 624 569 599 530 l 578 490 b 492 391 555 455 530 410 b 456 422 468 380 443 384 b 534 452 477 414 514 428 b 443 503 584 510 503 580 l 442 503 b 289 373 405 446 366 367 b 241 447 258 375 236 399 z m 470 453 b 470 453 519 541 539 455 z m 872 291 b 858 244 832 312 813 244 b 872 291 887 244 894 279 z m 858 255 b 852 281 844 255 841 275 b 858 255 871 292 880 255 z m 804 269 b 754 293 804 297 772 293 l 754 245 b 804 269 772 245 804 240 z m 776 256 l 776 256 l 768 256 l 768 282 b 776 256 803 282 791 256 z m 929 28 b 951 36 929 50 949 48 l 965 39 l 965 39 l 965 39 b 914 27 957 66 914 63 b 966 19 914 -9 959 -11 l 951 21 b 929 28 949 6 929 5 z m 824 245 l 824 293 l 811 293 l 811 245 z m 173 884 b 106 954 131 872 96 908 b 339 1073 122 1022 255 1079 b 237 929 311 1040 272 987 b 234 962 233 939 232 951 b 208 878 179 952 179 905 b 221 618 148 762 119 642 b 269 857 200 665 227 763 b 411 1082 420 856 527 1026 b 431 1084 424 1091 431 1086 l 431 1084 b 365 1099 427 1122 393 1124 l 371 1095 b 48 963 257 1115 89 1066 b 173 884 8 865 113 790 z m 387 1058 b 274 897 445 1017 372 886 b 259 901 268 897 263 899 b 290 903 269 900 280 900 b 387 1058 322 967 358 1025 z m 973 28 b 1030 28 973 -12 1030 -10 b 973 28 1030 66 973 66 z m 988 28 b 1015 28 988 50 1015 50 b 988 28 1015 5 988 5 z m 1086 48 b 1053 48 1080 59 1063 59 l 1053 55 l 1040 55 l 1040 0 l 1055 0 b 1060 43 1055 13 1052 38 b 1073 0 1079 56 1073 15 l 1088 0 b 1093 43 1088 13 1085 38 b 1107 0 1112 56 1107 15 l 1121 0 l 1121 35 b 1086 48 1121 62 1097 60 z m 495 914 b 395 863 447 956 411 897 b 471 780 345 752 382 680 b 575 786 468 728 504 704 l 575 786 l 575 786 b 576 709 562 762 550 728 b 594 691 580 701 585 694 b 754 861 636 673 713 801 b 784 907 756 865 772 889 b 798 891 789 902 793 897 b 791 734 816 864 724 762 b 868 779 811 725 839 748 b 968 783 865 729 900 705 b 1095 769 965 714 1025 707 b 1089 983 1180 845 1222 1006 b 1019 776 1154 908 1057 754 b 1088 914 996 789 1057 907 b 1021 912 1061 938 1038 930 b 903 883 1004 941 944 953 b 838 847 828 763 798 765 b 786 953 878 927 810 918 b 808 948 793 948 802 944 b 792 978 812 964 804 973 b 757 929 759 994 734 949 b 631 754 732 891 647 754 b 726 991 598 754 717 975 l 707 995 b 1044 945 852 1003 1022 1001 b 757 1039 1103 1052 929 1055 b 823 1085 785 1078 810 1099 b 761 1102 820 1120 791 1125 b 697 1033 744 1089 721 1064 b 480 1007 600 1022 513 1008 b 515 981 478 981 496 980 b 669 993 543 983 601 989 b 616 901 650 964 631 932 b 527 789 576 842 537 789 b 600 924 503 789 567 917 b 506 883 559 960 525 918 b 429 789 478 842 443 789 b 495 914 405 789 463 907 z m 1002 885 b 1002 886 1002 886 1002 886 l 1002 886 l 1002 885 b 1002 885 1002 885 1002 885 b 923 788 995 874 940 788 b 1002 885 907 788 968 932 z m 1075 677 b 1013 694 1071 712 1043 717 b 840 385 952 648 835 470 b 853 358 841 365 853 359 l 853 358 b 979 359 859 303 915 302 b 956 472 1032 406 1016 489 b 903 366 964 441 941 344 b 898 382 899 368 897 373 b 1075 677 924 510 1039 715 z m 149 19 l 140 55 l 126 55 l 117 19 l 106 55 l 92 55 l 109 0 l 124 0 l 133 36 l 142 0 l 156 0 l 174 55 l 160 55 z m 468 12 b 453 55 446 -3 453 46 l 438 55 l 438 20 b 475 8 438 -9 466 -4 l 475 0 l 475 0 l 475 0 l 488 0 l 488 55 l 474 55 b 468 12 474 40 476 17 z m 872 0 l 872 76 l 858 76 l 858 0 z m 551 47 l 551 55 l 538 55 l 538 0 l 552 0 b 569 41 552 14 548 54 l 574 54 b 551 47 564 59 557 56 z m 578 41 l 591 38 l 591 38 l 591 38 b 610 36 594 48 610 50 b 596 32 608 35 603 34 b 611 6 554 24 586 -19 l 613 0 l 628 0 l 625 35 b 578 41 625 67 583 61 z m 610 26 b 593 11 610 2 594 10 b 610 26 582 22 607 25 b 610 26 610 26 610 26 l 610 26 b 610 26 610 26 610 26 z m 651 28 b 673 36 651 50 671 48 l 687 39 l 687 39 l 687 39 b 636 27 679 66 636 63 b 688 19 636 -9 681 -11 l 674 21 b 651 28 671 6 651 5 z m 789 28 b 846 28 789 -13 846 -10 b 789 28 846 66 789 65 z m 804 27 b 831 28 804 50 831 50 b 804 27 831 5 804 5 z m 518 44 l 528 44 l 528 55 l 528 55 l 518 55 l 518 75 l 504 66 l 504 55 l 497 55 l 497 44 l 504 44 b 529 1 504 24 497 -13 l 528 12 b 518 44 515 8 518 14 z m 694 27 b 745 15 694 -8 736 -10 l 730 17 b 709 23 726 4 709 8 l 746 23 b 694 27 746 69 694 66 z m 709 32 b 731 32 709 49 731 50 z m 232 19 l 223 55 l 209 55 l 199 19 l 189 55 l 175 55 l 192 0 l 206 0 l 216 36 l 225 0 l 239 0 l 257 55 l 243 55 z m 358 0 l 358 15 l 343 15 l 343 0 z m 315 19 l 306 55 l 292 55 l 282 19 l 272 55 l 257 55 l 275 0 l 289 0 l 298 36 l 308 0 l 322 0 l 340 55 l 325 55 z m 742 549 b 765 446 784 549 783 494 b 703 452 732 357 647 343 b 762 524 721 487 747 521 b 662 468 721 561 684 517 b 674 329 621 379 637 334 b 836 480 739 321 820 404 b 742 549 849 548 799 591 z m 773 44 l 783 44 l 783 55 l 783 55 l 773 55 l 773 75 l 758 66 l 758 55 l 751 55 l 751 44 l 758 44 b 784 1 758 24 751 -13 l 783 12 b 773 44 770 7 773 14 z m 386 47 l 386 55 l 373 55 l 373 55 l 373 -21 l 387 -21 l 387 7 b 420 6 397 -4 411 -4 b 386 47 444 34 405 77 z m 387 29 l 387 29 b 387 29 387 29 387 29 b 412 28 387 50 412 51 b 387 29 411 3 387 5 z m 902 0 l 902 15 l 887 15 l 887 0 z "},"3":{"ha":1249,"x_min":0,"x_max":0,"o":"m 945 147 l 945 164 l 353 164 l 353 147 z m 712 245 l 712 282 l 727 282 l 727 293 l 684 293 l 684 282 l 699 282 l 699 245 z m 646 259 l 642 249 l 662 244 l 662 244 b 665 274 684 244 695 268 b 677 280 645 278 661 288 l 681 290 b 660 264 652 307 621 272 b 646 259 682 259 662 249 z m 731 293 b 753 244 731 270 726 244 l 753 244 b 776 293 781 244 776 270 l 762 293 b 753 255 762 274 766 255 b 744 293 741 255 744 274 z m 431 386 b 558 370 429 310 495 309 b 617 221 539 297 548 237 b 737 597 576 308 665 482 l 717 603 b 906 551 793 603 890 593 b 774 651 945 628 875 650 b 826 687 801 685 824 698 l 826 687 b 764 705 823 723 794 728 b 713 649 753 696 734 676 b 477 621 633 644 544 631 b 210 463 506 816 257 690 b 431 386 176 298 319 261 z m 272 447 b 444 617 288 597 475 774 b 383 610 417 613 396 610 b 435 585 380 576 409 583 b 324 542 417 539 368 494 b 469 585 270 452 411 377 l 460 588 l 678 603 b 678 603 678 603 678 603 l 678 603 l 678 603 b 608 490 654 569 629 530 l 608 490 b 523 391 585 455 561 410 b 487 422 498 380 474 384 b 565 452 508 414 544 428 b 473 503 615 510 533 580 l 473 503 b 320 373 435 446 396 367 b 272 447 288 375 266 399 z m 501 453 b 501 453 549 541 569 455 z m 902 291 b 889 244 863 312 844 244 b 902 291 918 244 924 279 z m 889 255 b 882 281 875 255 871 275 b 889 255 901 292 911 255 z m 834 269 b 785 293 834 297 802 293 l 785 245 b 834 269 802 245 834 240 z m 807 256 l 807 256 l 798 256 l 798 282 b 807 256 834 282 821 256 z m 959 28 b 981 36 959 50 979 48 l 996 39 l 996 39 l 996 39 b 944 27 988 66 944 63 b 996 19 944 -9 990 -11 l 982 21 b 959 28 979 6 959 5 z m 855 245 l 855 293 l 841 293 l 841 245 z m 204 884 b 137 954 162 872 126 908 b 370 1073 152 1022 286 1079 b 267 929 341 1040 302 987 b 264 962 264 939 263 951 b 239 878 210 952 210 905 b 252 618 179 762 150 642 b 299 857 230 665 258 763 b 442 1082 450 856 558 1026 b 461 1084 454 1091 461 1086 l 462 1084 b 395 1099 458 1122 424 1124 l 401 1095 b 78 963 287 1115 119 1066 b 204 884 38 865 144 790 z m 417 1058 b 304 897 476 1017 403 886 b 289 901 299 897 294 899 b 321 903 300 900 310 900 b 417 1058 353 967 389 1025 z m 1003 28 b 1060 28 1003 -12 1060 -10 b 1003 28 1060 66 1003 66 z m 1018 28 b 1045 28 1018 50 1045 50 b 1018 28 1045 5 1018 5 z m 1117 48 b 1084 48 1110 59 1094 59 l 1084 55 l 1071 55 l 1071 0 l 1085 0 b 1090 43 1085 13 1083 38 b 1104 0 1109 56 1104 15 l 1119 0 b 1124 43 1119 13 1116 38 b 1137 0 1142 56 1137 15 l 1152 0 l 1152 35 b 1117 48 1152 62 1127 60 z m 526 914 b 425 863 478 956 441 897 b 502 780 375 752 412 680 b 605 786 498 728 535 704 l 605 786 l 605 786 b 607 709 593 762 581 728 b 624 691 610 701 616 694 b 784 861 667 673 744 801 b 815 907 787 865 803 889 b 828 891 819 902 824 897 b 821 734 847 864 754 762 b 898 779 841 725 870 748 b 999 783 895 729 931 705 b 1126 769 996 714 1056 707 b 1120 983 1211 845 1252 1006 b 1049 776 1185 908 1088 754 b 1119 914 1027 789 1087 907 b 1052 912 1091 938 1069 930 b 933 883 1034 941 974 953 b 869 847 858 763 828 765 b 817 953 908 927 840 918 b 839 948 824 948 832 944 b 822 978 843 964 834 973 b 788 929 790 994 764 949 b 662 754 763 891 677 754 b 757 991 628 754 748 975 l 738 995 b 1074 945 883 1003 1053 1001 b 787 1039 1133 1052 959 1055 b 854 1085 815 1078 841 1099 b 792 1102 850 1120 822 1125 b 728 1033 774 1089 751 1064 b 511 1007 631 1022 543 1008 b 545 981 509 981 526 980 b 700 993 573 983 632 989 b 646 901 680 964 661 932 b 557 789 606 842 568 789 b 630 924 534 789 598 917 b 536 883 590 960 555 918 b 459 789 509 842 474 789 b 526 914 436 789 493 907 z m 1032 885 b 1033 886 1033 886 1033 886 l 1033 886 l 1032 885 b 1032 885 1032 885 1032 885 b 954 788 1025 874 971 788 b 1032 885 938 788 999 932 z m 1105 677 b 1043 694 1102 712 1073 717 b 871 385 982 648 865 470 b 883 358 872 365 883 359 l 883 358 b 1010 359 889 303 945 302 b 986 472 1063 406 1046 489 b 934 366 995 441 972 344 b 929 382 930 368 928 373 b 1105 677 955 510 1070 715 z m 180 19 l 171 55 l 157 55 l 147 19 l 137 55 l 123 55 l 140 0 l 154 0 l 163 36 l 173 0 l 187 0 l 205 55 l 190 55 z m 499 12 b 483 55 477 -3 483 46 l 468 55 l 468 20 b 505 8 468 -9 496 -4 l 505 0 l 505 0 l 505 0 l 519 0 l 519 55 l 504 55 b 499 12 504 40 507 17 z m 903 0 l 903 76 l 888 76 l 888 0 z m 582 47 l 582 55 l 568 55 l 568 0 l 583 0 b 600 41 583 14 579 54 l 604 54 b 582 47 594 59 588 56 z m 608 41 l 621 38 l 621 38 l 621 38 b 641 36 625 48 641 50 b 627 32 638 35 634 34 b 642 6 585 24 617 -19 l 644 0 l 658 0 l 655 35 b 608 41 655 67 614 61 z m 641 26 b 623 11 641 2 625 10 b 641 26 612 22 638 25 b 641 26 641 26 641 26 l 641 26 b 641 26 641 26 641 26 z m 682 28 b 703 36 682 50 701 48 l 718 39 l 718 39 l 718 39 b 666 27 710 66 666 63 b 719 19 666 -9 712 -11 l 704 21 b 682 28 701 6 682 5 z m 820 28 b 877 28 820 -13 877 -10 b 820 28 877 66 820 65 z m 835 27 b 862 28 835 50 862 50 b 835 27 862 5 835 5 z m 549 44 l 559 44 l 559 55 l 559 55 l 549 55 l 549 75 l 534 66 l 534 55 l 528 55 l 528 44 l 534 44 b 560 1 534 24 528 -13 l 559 12 b 549 44 546 8 549 14 z m 725 27 b 775 15 725 -8 767 -10 l 761 17 b 740 23 757 4 740 8 l 776 23 b 725 27 777 69 725 66 z m 740 32 b 762 32 740 49 761 50 z m 263 19 l 253 55 l 239 55 l 230 19 l 219 55 l 205 55 l 223 0 l 237 0 l 246 36 l 256 0 l 270 0 l 288 55 l 273 55 z m 389 0 l 389 15 l 374 15 l 374 0 z m 345 19 l 336 55 l 322 55 l 313 19 l 302 55 l 288 55 l 305 0 l 320 0 l 329 36 l 338 0 l 352 0 l 370 55 l 356 55 z m 773 549 b 796 446 814 549 814 494 b 734 452 762 357 678 343 b 793 524 752 487 777 521 b 692 468 751 561 714 517 b 705 329 652 379 668 334 b 866 480 769 321 851 404 b 773 549 880 548 829 591 z m 803 44 l 813 44 l 813 55 l 813 55 l 803 55 l 803 75 l 789 66 l 789 55 l 782 55 l 782 44 l 789 44 b 814 1 789 24 782 -13 l 813 12 b 803 44 800 7 803 14 z m 417 47 l 417 55 l 403 55 l 403 55 l 403 -21 l 418 -21 l 418 7 b 450 6 428 -4 441 -4 b 417 47 475 34 436 77 z m 418 29 l 418 29 b 418 29 418 29 418 29 b 442 28 418 50 442 51 b 418 29 442 3 418 5 z m 932 0 l 932 15 l 918 15 l 918 0 z "},"4":{"ha":1275,"x_min":0,"x_max":0,"o":"m 945 147 l 945 164 l 353 164 l 353 147 z m 712 245 l 712 282 l 727 282 l 727 293 l 684 293 l 684 282 l 699 282 l 699 245 z m 646 259 l 642 249 l 662 244 l 662 244 b 665 274 684 244 695 268 b 677 280 645 278 661 288 l 681 290 b 660 264 652 307 621 272 b 646 259 682 259 662 249 z m 731 293 b 753 244 731 270 726 244 l 753 244 b 776 293 781 244 776 270 l 762 293 b 753 255 762 274 766 255 b 744 293 741 255 744 274 z m 431 386 b 558 370 429 310 495 309 b 617 221 539 297 548 237 b 737 597 576 308 665 482 l 717 603 b 906 551 793 603 890 593 b 774 651 945 628 875 650 b 826 687 801 685 824 698 l 826 687 b 764 705 823 723 794 728 b 713 649 753 696 734 676 b 477 621 633 644 544 631 b 210 463 506 816 257 690 b 431 386 176 298 319 261 z m 272 447 b 444 617 288 597 475 774 b 383 610 417 613 396 610 b 435 585 380 576 409 583 b 324 542 417 539 368 494 b 469 585 270 452 411 377 l 460 588 l 678 603 b 678 603 678 603 678 603 l 678 603 l 678 603 b 608 490 654 569 629 530 l 608 490 b 523 391 585 455 561 410 b 487 422 498 380 474 384 b 565 452 508 414 544 428 b 473 503 615 510 533 580 l 473 503 b 320 373 435 446 396 367 b 272 447 288 375 266 399 z m 501 453 b 501 453 549 541 569 455 z m 902 291 b 889 244 863 312 844 244 b 902 291 918 244 924 279 z m 889 255 b 882 281 875 255 871 275 b 889 255 901 292 911 255 z m 834 269 b 785 293 834 297 802 293 l 785 245 b 834 269 802 245 834 240 z m 807 256 l 807 256 l 798 256 l 798 282 b 807 256 834 282 821 256 z m 959 28 b 981 36 959 50 979 48 l 996 39 l 996 39 l 996 39 b 944 27 988 66 944 63 b 996 19 944 -9 990 -11 l 982 21 b 959 28 979 6 959 5 z m 855 245 l 855 293 l 841 293 l 841 245 z m 204 884 b 137 954 162 872 126 908 b 370 1073 152 1022 286 1079 b 267 929 341 1040 302 987 b 264 962 264 939 263 951 b 239 878 210 952 210 905 b 252 618 179 762 150 642 b 299 857 230 665 258 763 b 442 1082 450 856 558 1026 b 461 1084 454 1091 461 1086 l 462 1084 b 395 1099 458 1122 424 1124 l 401 1095 b 78 963 287 1115 119 1066 b 204 884 38 865 144 790 z m 417 1058 b 304 897 476 1017 403 886 b 289 901 299 897 294 899 b 321 903 300 900 310 900 b 417 1058 353 967 389 1025 z m 1003 28 b 1060 28 1003 -12 1060 -10 b 1003 28 1060 66 1003 66 z m 1018 28 b 1045 28 1018 50 1045 50 b 1018 28 1045 5 1018 5 z m 1117 48 b 1084 48 1110 59 1094 59 l 1084 55 l 1071 55 l 1071 0 l 1085 0 b 1090 43 1085 13 1083 38 b 1104 0 1109 56 1104 15 l 1119 0 b 1124 43 1119 13 1116 38 b 1137 0 1142 56 1137 15 l 1152 0 l 1152 35 b 1117 48 1152 62 1127 60 z m 526 914 b 425 863 478 956 441 897 b 502 780 375 752 412 680 b 605 786 498 728 535 704 l 605 786 l 605 786 b 607 709 593 762 581 728 b 624 691 610 701 616 694 b 784 861 667 673 744 801 b 815 907 787 865 803 889 b 828 891 819 902 824 897 b 821 734 847 864 754 762 b 898 779 841 725 870 748 b 999 783 895 729 931 705 b 1126 769 996 714 1056 707 b 1120 983 1211 845 1252 1006 b 1049 776 1185 908 1088 754 b 1119 914 1027 789 1087 907 b 1052 912 1091 938 1069 930 b 933 883 1034 941 974 953 b 869 847 858 763 828 765 b 817 953 908 927 840 918 b 839 948 824 948 832 944 b 822 978 843 964 834 973 b 788 929 790 994 764 949 b 662 754 763 891 677 754 b 757 991 628 754 748 975 l 738 995 b 1074 945 883 1003 1053 1001 b 787 1039 1133 1052 959 1055 b 854 1085 815 1078 841 1099 b 792 1102 850 1120 822 1125 b 728 1033 774 1089 751 1064 b 511 1007 631 1022 543 1008 b 545 981 509 981 526 980 b 700 993 573 983 632 989 b 646 901 680 964 661 932 b 557 789 606 842 568 789 b 630 924 534 789 598 917 b 536 883 590 960 555 918 b 459 789 509 842 474 789 b 526 914 436 789 493 907 z m 1032 885 b 1033 886 1033 886 1033 886 l 1033 886 l 1032 885 b 1032 885 1032 885 1032 885 b 954 788 1025 874 971 788 b 1032 885 938 788 999 932 z m 1105 677 b 1043 694 1102 712 1073 717 b 871 385 982 648 865 470 b 883 358 872 365 883 359 l 883 358 b 1010 359 889 303 945 302 b 986 472 1063 406 1046 489 b 934 366 995 441 972 344 b 929 382 930 368 928 373 b 1105 677 955 510 1070 715 z m 180 19 l 171 55 l 157 55 l 147 19 l 137 55 l 123 55 l 140 0 l 154 0 l 163 36 l 173 0 l 187 0 l 205 55 l 190 55 z m 499 12 b 483 55 477 -3 483 46 l 468 55 l 468 20 b 505 8 468 -9 496 -4 l 505 0 l 505 0 l 505 0 l 519 0 l 519 55 l 504 55 b 499 12 504 40 507 17 z m 903 0 l 903 76 l 888 76 l 888 0 z m 582 47 l 582 55 l 568 55 l 568 0 l 583 0 b 600 41 583 14 579 54 l 604 54 b 582 47 594 59 588 56 z m 608 41 l 621 38 l 621 38 l 621 38 b 641 36 625 48 641 50 b 627 32 638 35 634 34 b 642 6 585 24 617 -19 l 644 0 l 658 0 l 655 35 b 608 41 655 67 614 61 z m 641 26 b 623 11 641 2 625 10 b 641 26 612 22 638 25 b 641 26 641 26 641 26 l 641 26 b 641 26 641 26 641 26 z m 682 28 b 703 36 682 50 701 48 l 718 39 l 718 39 l 718 39 b 666 27 710 66 666 63 b 719 19 666 -9 712 -11 l 704 21 b 682 28 701 6 682 5 z m 820 28 b 877 28 820 -13 877 -10 b 820 28 877 66 820 65 z m 835 27 b 862 28 835 50 862 50 b 835 27 862 5 835 5 z m 549 44 l 559 44 l 559 55 l 559 55 l 549 55 l 549 75 l 534 66 l 534 55 l 528 55 l 528 44 l 534 44 b 560 1 534 24 528 -13 l 559 12 b 549 44 546 8 549 14 z m 725 27 b 775 15 725 -8 767 -10 l 761 17 b 740 23 757 4 740 8 l 776 23 b 725 27 777 69 725 66 z m 740 32 b 762 32 740 49 761 50 z m 263 19 l 253 55 l 239 55 l 230 19 l 219 55 l 205 55 l 223 0 l 237 0 l 246 36 l 256 0 l 270 0 l 288 55 l 273 55 z m 389 0 l 389 15 l 374 15 l 374 0 z m 345 19 l 336 55 l 322 55 l 313 19 l 302 55 l 288 55 l 305 0 l 320 0 l 329 36 l 338 0 l 352 0 l 370 55 l 356 55 z m 773 549 b 796 446 814 549 814 494 b 734 452 762 357 678 343 b 793 524 752 487 777 521 b 692 468 751 561 714 517 b 705 329 652 379 668 334 b 866 480 769 321 851 404 b 773 549 880 548 829 591 z m 803 44 l 813 44 l 813 55 l 813 55 l 803 55 l 803 75 l 789 66 l 789 55 l 782 55 l 782 44 l 789 44 b 814 1 789 24 782 -13 l 813 12 b 803 44 800 7 803 14 z m 417 47 l 417 55 l 403 55 l 403 55 l 403 -21 l 418 -21 l 418 7 b 450 6 428 -4 441 -4 b 417 47 475 34 436 77 z m 418 29 l 418 29 b 418 29 418 29 418 29 b 442 28 418 50 442 51 b 418 29 442 3 418 5 z m 932 0 l 932 15 l 918 15 l 918 0 z "},"5":{"ha":1215,"x_min":0,"x_max":0,"o":"m 918 147 l 918 164 l 327 164 l 327 147 z m 686 245 l 686 282 l 700 282 l 700 293 l 658 293 l 658 282 l 672 282 l 672 245 z m 620 259 l 615 249 l 635 244 l 635 244 b 638 274 658 244 668 268 b 650 280 619 278 634 288 l 654 290 b 634 264 625 307 595 272 b 620 259 656 259 635 249 z m 704 293 b 727 244 704 270 699 244 l 727 244 b 749 293 755 244 749 270 l 736 293 b 727 255 736 274 740 255 b 718 293 714 255 718 274 z m 405 386 b 532 370 403 310 469 309 b 590 221 512 297 521 237 b 710 597 550 308 638 482 l 690 603 b 879 551 767 603 864 593 b 747 651 919 628 849 650 b 800 687 774 685 798 698 l 800 687 b 738 705 796 723 768 728 b 686 649 726 696 708 676 b 451 621 606 644 518 631 b 184 463 480 816 230 690 b 405 386 150 298 293 261 z m 245 447 b 418 617 262 597 449 774 b 357 610 391 613 369 610 b 409 585 354 576 383 583 b 298 542 390 539 342 494 b 443 585 244 452 384 377 l 433 588 l 652 603 b 652 603 652 603 652 603 l 652 603 l 652 603 b 582 490 628 569 603 530 l 582 490 b 496 391 559 455 534 410 b 460 422 472 380 447 384 b 538 452 482 414 518 428 b 447 503 589 510 507 580 l 446 503 b 293 373 409 446 370 367 b 245 447 262 375 240 399 z m 474 453 b 474 453 523 541 543 455 z m 876 291 b 862 244 836 312 817 244 b 876 291 891 244 898 279 z m 862 255 b 856 281 848 255 845 275 b 862 255 875 292 884 255 z m 808 269 b 759 293 808 297 776 293 l 759 245 b 808 269 776 245 808 240 z m 781 256 l 781 256 l 772 256 l 772 282 b 781 256 807 282 795 256 z m 933 28 b 955 36 933 50 953 48 l 969 39 l 969 39 l 969 39 b 918 27 961 66 918 63 b 970 19 918 -9 963 -11 l 956 21 b 933 28 953 6 933 5 z m 829 245 l 829 293 l 815 293 l 815 245 z m 178 884 b 110 954 135 872 100 908 b 343 1073 126 1022 259 1079 b 241 929 315 1040 276 987 b 238 962 237 939 237 951 b 212 878 183 952 183 905 b 225 618 152 762 123 642 b 273 857 204 665 231 763 b 415 1082 424 856 531 1026 b 435 1084 428 1091 435 1086 l 435 1084 b 369 1099 431 1122 397 1124 l 375 1095 b 52 963 261 1115 93 1066 b 178 884 12 865 118 790 z m 391 1058 b 278 897 449 1017 377 886 b 263 901 272 897 267 899 b 295 903 274 900 284 900 b 391 1058 326 967 363 1025 z m 977 28 b 1034 28 977 -12 1034 -10 b 977 28 1034 66 977 66 z m 992 28 b 1019 28 992 50 1019 50 b 992 28 1019 5 992 5 z m 1090 48 b 1058 48 1084 59 1067 59 l 1058 55 l 1044 55 l 1044 0 l 1059 0 b 1064 43 1059 13 1056 38 b 1078 0 1083 56 1078 15 l 1092 0 b 1097 43 1092 13 1089 38 b 1111 0 1116 56 1111 15 l 1125 0 l 1125 35 b 1090 48 1125 62 1101 60 z m 499 914 b 399 863 451 956 415 897 b 475 780 349 752 386 680 b 579 786 472 728 509 704 l 579 786 l 579 786 b 581 709 566 762 554 728 b 598 691 584 701 589 694 b 758 861 640 673 718 801 b 788 907 760 865 777 889 b 802 891 793 902 798 897 b 795 734 820 864 728 762 b 872 779 815 725 843 748 b 973 783 869 729 904 705 b 1099 769 969 714 1029 707 b 1093 983 1185 845 1226 1006 b 1023 776 1158 908 1061 754 b 1092 914 1001 789 1061 907 b 1025 912 1065 938 1043 930 b 907 883 1008 941 948 953 b 842 847 832 763 802 765 b 791 953 882 927 814 918 b 812 948 798 948 806 944 b 796 978 817 964 808 973 b 761 929 763 994 738 949 b 636 754 736 891 651 754 b 730 991 602 754 721 975 l 712 995 b 1048 945 857 1003 1026 1001 b 761 1039 1107 1052 933 1055 b 828 1085 789 1078 814 1099 b 765 1102 824 1120 795 1125 b 701 1033 748 1089 725 1064 b 485 1007 604 1022 517 1008 b 519 981 482 981 500 980 b 673 993 547 983 605 989 b 620 901 654 964 635 932 b 531 789 580 842 542 789 b 604 924 507 789 571 917 b 510 883 563 960 529 918 b 433 789 482 842 448 789 b 499 914 409 789 467 907 z m 1006 885 b 1007 886 1006 886 1007 886 l 1007 886 l 1006 885 b 1006 885 1006 885 1006 885 b 927 788 999 874 945 788 b 1006 885 911 788 972 932 z m 1079 677 b 1017 694 1075 712 1047 717 b 844 385 956 648 839 470 b 857 358 846 365 857 359 l 857 358 b 983 359 863 303 919 302 b 960 472 1036 406 1020 489 b 907 366 969 441 946 344 b 902 382 903 368 901 373 b 1079 677 929 510 1043 715 z m 153 19 l 144 55 l 130 55 l 121 19 l 110 55 l 96 55 l 114 0 l 128 0 l 137 36 l 147 0 l 161 0 l 178 55 l 164 55 z m 473 12 b 457 55 451 -3 457 46 l 442 55 l 442 20 b 479 8 442 -9 470 -4 l 479 0 l 479 0 l 479 0 l 492 0 l 492 55 l 478 55 b 473 12 478 40 480 17 z m 877 0 l 877 76 l 862 76 l 862 0 z m 556 47 l 556 55 l 542 55 l 542 0 l 557 0 b 573 41 557 14 552 54 l 578 54 b 556 47 568 59 561 56 z m 582 41 l 595 38 l 595 38 l 595 38 b 615 36 598 48 615 50 b 600 32 612 35 607 34 b 616 6 558 24 590 -19 l 618 0 l 632 0 l 629 35 b 582 41 629 67 587 61 z m 614 26 b 597 11 614 2 599 10 b 614 26 586 22 612 25 b 614 26 614 26 614 26 l 615 26 b 614 26 615 26 614 26 z m 655 28 b 677 36 655 50 675 48 l 691 39 l 691 39 l 691 39 b 640 27 683 66 640 63 b 692 19 640 -9 686 -11 l 678 21 b 655 28 675 6 655 5 z m 794 28 b 851 28 794 -13 851 -10 b 794 28 851 66 794 65 z m 809 27 b 836 28 809 50 836 50 b 809 27 836 5 809 5 z m 522 44 l 533 44 l 533 55 l 532 55 l 522 55 l 522 75 l 508 66 l 508 55 l 501 55 l 501 44 l 508 44 b 534 1 508 24 501 -13 l 532 12 b 522 44 519 8 522 14 z m 698 27 b 749 15 698 -8 740 -10 l 734 17 b 713 23 731 4 714 8 l 750 23 b 698 27 751 69 698 66 z m 713 32 b 735 32 713 49 735 50 z m 236 19 l 227 55 l 213 55 l 203 19 l 193 55 l 179 55 l 196 0 l 210 0 l 220 36 l 229 0 l 243 0 l 261 55 l 247 55 z m 362 0 l 362 15 l 348 15 l 348 0 z m 319 19 l 310 55 l 296 55 l 286 19 l 276 55 l 262 55 l 279 0 l 293 0 l 303 36 l 312 0 l 326 0 l 344 55 l 329 55 z m 747 549 b 769 446 788 549 787 494 b 707 452 736 357 651 343 b 766 524 725 487 751 521 b 666 468 725 561 688 517 b 678 329 626 379 641 334 b 840 480 743 321 824 404 b 747 549 854 548 803 591 z m 777 44 l 787 44 l 787 55 l 787 55 l 777 55 l 777 75 l 762 66 l 762 55 l 756 55 l 756 44 l 762 44 b 788 1 762 24 756 -13 l 787 12 b 777 44 774 7 777 14 z m 390 47 l 390 55 l 377 55 l 377 55 l 377 -21 l 391 -21 l 391 7 b 424 6 402 -4 415 -4 b 390 47 448 34 409 77 z m 391 29 l 391 29 b 391 29 391 29 391 29 b 416 28 391 50 416 51 b 391 29 416 3 391 5 z m 906 0 l 906 15 l 891 15 l 891 0 z "},"6":{"ha":1219,"x_min":0,"x_max":0,"o":"m 918 147 l 918 164 l 327 164 l 327 147 z m 686 245 l 686 282 l 700 282 l 700 293 l 658 293 l 658 282 l 672 282 l 672 245 z m 620 259 l 615 249 l 635 244 l 635 244 b 638 274 658 244 668 268 b 650 280 619 278 634 288 l 654 290 b 634 264 625 307 595 272 b 620 259 656 259 635 249 z m 704 293 b 727 244 704 270 699 244 l 727 244 b 749 293 755 244 749 270 l 736 293 b 727 255 736 274 740 255 b 718 293 714 255 718 274 z m 405 386 b 532 370 403 310 469 309 b 590 221 512 297 521 237 b 710 597 550 308 638 482 l 690 603 b 879 551 767 603 864 593 b 747 651 919 628 849 650 b 800 687 774 685 798 698 l 800 687 b 738 705 796 723 768 728 b 686 649 726 696 708 676 b 451 621 606 644 518 631 b 184 463 480 816 230 690 b 405 386 150 298 293 261 z m 245 447 b 418 617 262 597 449 774 b 357 610 391 613 369 610 b 409 585 354 576 383 583 b 298 542 390 539 342 494 b 443 585 244 452 384 377 l 433 588 l 652 603 b 652 603 652 603 652 603 l 652 603 l 652 603 b 582 490 628 569 603 530 l 582 490 b 496 391 559 455 534 410 b 460 422 472 380 447 384 b 538 452 482 414 518 428 b 447 503 589 510 507 580 l 446 503 b 293 373 409 446 370 367 b 245 447 262 375 240 399 z m 474 453 b 474 453 523 541 543 455 z m 876 291 b 862 244 836 312 817 244 b 876 291 891 244 898 279 z m 862 255 b 856 281 848 255 845 275 b 862 255 875 292 884 255 z m 808 269 b 759 293 808 297 776 293 l 759 245 b 808 269 776 245 808 240 z m 781 256 l 781 256 l 772 256 l 772 282 b 781 256 807 282 795 256 z m 933 28 b 955 36 933 50 953 48 l 969 39 l 969 39 l 969 39 b 918 27 961 66 918 63 b 970 19 918 -9 963 -11 l 956 21 b 933 28 953 6 933 5 z m 829 245 l 829 293 l 815 293 l 815 245 z m 178 884 b 110 954 135 872 100 908 b 343 1073 126 1022 259 1079 b 241 929 315 1040 276 987 b 238 962 237 939 237 951 b 212 878 183 952 183 905 b 225 618 152 762 123 642 b 273 857 204 665 231 763 b 415 1082 424 856 531 1026 b 435 1084 428 1091 435 1086 l 435 1084 b 369 1099 431 1122 397 1124 l 375 1095 b 52 963 261 1115 93 1066 b 178 884 12 865 118 790 z m 391 1058 b 278 897 449 1017 377 886 b 263 901 272 897 267 899 b 295 903 274 900 284 900 b 391 1058 326 967 363 1025 z m 977 28 b 1034 28 977 -12 1034 -10 b 977 28 1034 66 977 66 z m 992 28 b 1019 28 992 50 1019 50 b 992 28 1019 5 992 5 z m 1090 48 b 1058 48 1084 59 1067 59 l 1058 55 l 1044 55 l 1044 0 l 1059 0 b 1064 43 1059 13 1056 38 b 1078 0 1083 56 1078 15 l 1092 0 b 1097 43 1092 13 1089 38 b 1111 0 1116 56 1111 15 l 1125 0 l 1125 35 b 1090 48 1125 62 1101 60 z m 499 914 b 399 863 451 956 415 897 b 475 780 349 752 386 680 b 579 786 472 728 509 704 l 579 786 l 579 786 b 581 709 566 762 554 728 b 598 691 584 701 589 694 b 758 861 640 673 718 801 b 788 907 760 865 777 889 b 802 891 793 902 798 897 b 795 734 820 864 728 762 b 872 779 815 725 843 748 b 973 783 869 729 904 705 b 1099 769 969 714 1029 707 b 1093 983 1185 845 1226 1006 b 1023 776 1158 908 1061 754 b 1092 914 1001 789 1061 907 b 1025 912 1065 938 1043 930 b 907 883 1008 941 948 953 b 842 847 832 763 802 765 b 791 953 882 927 814 918 b 812 948 798 948 806 944 b 796 978 817 964 808 973 b 761 929 763 994 738 949 b 636 754 736 891 651 754 b 730 991 602 754 721 975 l 712 995 b 1048 945 857 1003 1026 1001 b 761 1039 1107 1052 933 1055 b 828 1085 789 1078 814 1099 b 765 1102 824 1120 795 1125 b 701 1033 748 1089 725 1064 b 485 1007 604 1022 517 1008 b 519 981 482 981 500 980 b 673 993 547 983 605 989 b 620 901 654 964 635 932 b 531 789 580 842 542 789 b 604 924 507 789 571 917 b 510 883 563 960 529 918 b 433 789 482 842 448 789 b 499 914 409 789 467 907 z m 1006 885 b 1007 886 1006 886 1007 886 l 1007 886 l 1006 885 b 1006 885 1006 885 1006 885 b 927 788 999 874 945 788 b 1006 885 911 788 972 932 z m 1079 677 b 1017 694 1075 712 1047 717 b 844 385 956 648 839 470 b 857 358 846 365 857 359 l 857 358 b 983 359 863 303 919 302 b 960 472 1036 406 1020 489 b 907 366 969 441 946 344 b 902 382 903 368 901 373 b 1079 677 929 510 1043 715 z m 153 19 l 144 55 l 130 55 l 121 19 l 110 55 l 96 55 l 114 0 l 128 0 l 137 36 l 147 0 l 161 0 l 178 55 l 164 55 z m 473 12 b 457 55 451 -3 457 46 l 442 55 l 442 20 b 479 8 442 -9 470 -4 l 479 0 l 479 0 l 479 0 l 492 0 l 492 55 l 478 55 b 473 12 478 40 480 17 z m 877 0 l 877 76 l 862 76 l 862 0 z m 556 47 l 556 55 l 542 55 l 542 0 l 557 0 b 573 41 557 14 552 54 l 578 54 b 556 47 568 59 561 56 z m 582 41 l 595 38 l 595 38 l 595 38 b 615 36 598 48 615 50 b 600 32 612 35 607 34 b 616 6 558 24 590 -19 l 618 0 l 632 0 l 629 35 b 582 41 629 67 587 61 z m 614 26 b 597 11 614 2 599 10 b 614 26 586 22 612 25 b 614 26 614 26 614 26 l 615 26 b 614 26 615 26 614 26 z m 655 28 b 677 36 655 50 675 48 l 691 39 l 691 39 l 691 39 b 640 27 683 66 640 63 b 692 19 640 -9 686 -11 l 678 21 b 655 28 675 6 655 5 z m 794 28 b 851 28 794 -13 851 -10 b 794 28 851 66 794 65 z m 809 27 b 836 28 809 50 836 50 b 809 27 836 5 809 5 z m 522 44 l 533 44 l 533 55 l 532 55 l 522 55 l 522 75 l 508 66 l 508 55 l 501 55 l 501 44 l 508 44 b 534 1 508 24 501 -13 l 532 12 b 522 44 519 8 522 14 z m 698 27 b 749 15 698 -8 740 -10 l 734 17 b 713 23 731 4 714 8 l 750 23 b 698 27 751 69 698 66 z m 713 32 b 735 32 713 49 735 50 z m 236 19 l 227 55 l 213 55 l 203 19 l 193 55 l 179 55 l 196 0 l 210 0 l 220 36 l 229 0 l 243 0 l 261 55 l 247 55 z m 362 0 l 362 15 l 348 15 l 348 0 z m 319 19 l 310 55 l 296 55 l 286 19 l 276 55 l 262 55 l 279 0 l 293 0 l 303 36 l 312 0 l 326 0 l 344 55 l 329 55 z m 747 549 b 769 446 788 549 787 494 b 707 452 736 357 651 343 b 766 524 725 487 751 521 b 666 468 725 561 688 517 b 678 329 626 379 641 334 b 840 480 743 321 824 404 b 747 549 854 548 803 591 z m 777 44 l 787 44 l 787 55 l 787 55 l 777 55 l 777 75 l 762 66 l 762 55 l 756 55 l 756 44 l 762 44 b 788 1 762 24 756 -13 l 787 12 b 777 44 774 7 777 14 z m 390 47 l 390 55 l 377 55 l 377 55 l 377 -21 l 391 -21 l 391 7 b 424 6 402 -4 415 -4 b 390 47 448 34 409 77 z m 391 29 l 391 29 b 391 29 391 29 391 29 b 416 28 391 50 416 51 b 391 29 416 3 391 5 z m 906 0 l 906 15 l 891 15 l 891 0 z "},"7":{"ha":1275,"x_min":0,"x_max":0,"o":"m 945 147 l 945 164 l 353 164 l 353 147 z m 712 245 l 712 282 l 727 282 l 727 293 l 684 293 l 684 282 l 699 282 l 699 245 z m 646 259 l 642 249 l 662 244 l 662 244 b 665 274 684 244 695 268 b 677 280 645 278 661 288 l 681 290 b 660 264 652 307 621 272 b 646 259 682 259 662 249 z m 731 293 b 753 244 731 270 726 244 l 753 244 b 776 293 781 244 776 270 l 762 293 b 753 255 762 274 766 255 b 744 293 741 255 744 274 z m 431 386 b 558 370 429 310 495 309 b 617 221 539 297 548 237 b 737 597 576 308 665 482 l 717 603 b 906 551 793 603 890 593 b 774 651 945 628 875 650 b 826 687 801 685 824 698 l 826 687 b 764 705 823 723 794 728 b 713 649 753 696 734 676 b 477 621 633 644 544 631 b 210 463 506 816 257 690 b 431 386 176 298 319 261 z m 272 447 b 444 617 288 597 475 774 b 383 610 417 613 396 610 b 435 585 380 576 409 583 b 324 542 417 539 368 494 b 469 585 270 452 411 377 l 460 588 l 678 603 b 678 603 678 603 678 603 l 678 603 l 678 603 b 608 490 654 569 629 530 l 608 490 b 523 391 585 455 561 410 b 487 422 498 380 474 384 b 565 452 508 414 544 428 b 473 503 615 510 533 580 l 473 503 b 320 373 435 446 396 367 b 272 447 288 375 266 399 z m 501 453 b 501 453 549 541 569 455 z m 902 291 b 889 244 863 312 844 244 b 902 291 918 244 924 279 z m 889 255 b 882 281 875 255 871 275 b 889 255 901 292 911 255 z m 834 269 b 785 293 834 297 802 293 l 785 245 b 834 269 802 245 834 240 z m 807 256 l 807 256 l 798 256 l 798 282 b 807 256 834 282 821 256 z m 959 28 b 981 36 959 50 979 48 l 996 39 l 996 39 l 996 39 b 944 27 988 66 944 63 b 996 19 944 -9 990 -11 l 982 21 b 959 28 979 6 959 5 z m 855 245 l 855 293 l 841 293 l 841 245 z m 204 884 b 137 954 162 872 126 908 b 370 1073 152 1022 286 1079 b 267 929 341 1040 302 987 b 264 962 264 939 263 951 b 239 878 210 952 210 905 b 252 618 179 762 150 642 b 299 857 230 665 258 763 b 442 1082 450 856 558 1026 b 461 1084 454 1091 461 1086 l 462 1084 b 395 1099 458 1122 424 1124 l 401 1095 b 78 963 287 1115 119 1066 b 204 884 38 865 144 790 z m 417 1058 b 304 897 476 1017 403 886 b 289 901 299 897 294 899 b 321 903 300 900 310 900 b 417 1058 353 967 389 1025 z m 1003 28 b 1060 28 1003 -12 1060 -10 b 1003 28 1060 66 1003 66 z m 1018 28 b 1045 28 1018 50 1045 50 b 1018 28 1045 5 1018 5 z m 1117 48 b 1084 48 1110 59 1094 59 l 1084 55 l 1071 55 l 1071 0 l 1085 0 b 1090 43 1085 13 1083 38 b 1104 0 1109 56 1104 15 l 1119 0 b 1124 43 1119 13 1116 38 b 1137 0 1142 56 1137 15 l 1152 0 l 1152 35 b 1117 48 1152 62 1127 60 z m 526 914 b 425 863 478 956 441 897 b 502 780 375 752 412 680 b 605 786 498 728 535 704 l 605 786 l 605 786 b 607 709 593 762 581 728 b 624 691 610 701 616 694 b 784 861 667 673 744 801 b 815 907 787 865 803 889 b 828 891 819 902 824 897 b 821 734 847 864 754 762 b 898 779 841 725 870 748 b 999 783 895 729 931 705 b 1126 769 996 714 1056 707 b 1120 983 1211 845 1252 1006 b 1049 776 1185 908 1088 754 b 1119 914 1027 789 1087 907 b 1052 912 1091 938 1069 930 b 933 883 1034 941 974 953 b 869 847 858 763 828 765 b 817 953 908 927 840 918 b 839 948 824 948 832 944 b 822 978 843 964 834 973 b 788 929 790 994 764 949 b 662 754 763 891 677 754 b 757 991 628 754 748 975 l 738 995 b 1074 945 883 1003 1053 1001 b 787 1039 1133 1052 959 1055 b 854 1085 815 1078 841 1099 b 792 1102 850 1120 822 1125 b 728 1033 774 1089 751 1064 b 511 1007 631 1022 543 1008 b 545 981 509 981 526 980 b 700 993 573 983 632 989 b 646 901 680 964 661 932 b 557 789 606 842 568 789 b 630 924 534 789 598 917 b 536 883 590 960 555 918 b 459 789 509 842 474 789 b 526 914 436 789 493 907 z m 1032 885 b 1033 886 1033 886 1033 886 l 1033 886 l 1032 885 b 1032 885 1032 885 1032 885 b 954 788 1025 874 971 788 b 1032 885 938 788 999 932 z m 1105 677 b 1043 694 1102 712 1073 717 b 871 385 982 648 865 470 b 883 358 872 365 883 359 l 883 358 b 1010 359 889 303 945 302 b 986 472 1063 406 1046 489 b 934 366 995 441 972 344 b 929 382 930 368 928 373 b 1105 677 955 510 1070 715 z m 180 19 l 171 55 l 157 55 l 147 19 l 137 55 l 123 55 l 140 0 l 154 0 l 163 36 l 173 0 l 187 0 l 205 55 l 190 55 z m 499 12 b 483 55 477 -3 483 46 l 468 55 l 468 20 b 505 8 468 -9 496 -4 l 505 0 l 505 0 l 505 0 l 519 0 l 519 55 l 504 55 b 499 12 504 40 507 17 z m 903 0 l 903 76 l 888 76 l 888 0 z m 582 47 l 582 55 l 568 55 l 568 0 l 583 0 b 600 41 583 14 579 54 l 604 54 b 582 47 594 59 588 56 z m 608 41 l 621 38 l 621 38 l 621 38 b 641 36 625 48 641 50 b 627 32 638 35 634 34 b 642 6 585 24 617 -19 l 644 0 l 658 0 l 655 35 b 608 41 655 67 614 61 z m 641 26 b 623 11 641 2 625 10 b 641 26 612 22 638 25 b 641 26 641 26 641 26 l 641 26 b 641 26 641 26 641 26 z m 682 28 b 703 36 682 50 701 48 l 718 39 l 718 39 l 718 39 b 666 27 710 66 666 63 b 719 19 666 -9 712 -11 l 704 21 b 682 28 701 6 682 5 z m 820 28 b 877 28 820 -13 877 -10 b 820 28 877 66 820 65 z m 835 27 b 862 28 835 50 862 50 b 835 27 862 5 835 5 z m 549 44 l 559 44 l 559 55 l 559 55 l 549 55 l 549 75 l 534 66 l 534 55 l 528 55 l 528 44 l 534 44 b 560 1 534 24 528 -13 l 559 12 b 549 44 546 8 549 14 z m 725 27 b 775 15 725 -8 767 -10 l 761 17 b 740 23 757 4 740 8 l 776 23 b 725 27 777 69 725 66 z m 740 32 b 762 32 740 49 761 50 z m 263 19 l 253 55 l 239 55 l 230 19 l 219 55 l 205 55 l 223 0 l 237 0 l 246 36 l 256 0 l 270 0 l 288 55 l 273 55 z m 389 0 l 389 15 l 374 15 l 374 0 z m 345 19 l 336 55 l 322 55 l 313 19 l 302 55 l 288 55 l 305 0 l 320 0 l 329 36 l 338 0 l 352 0 l 370 55 l 356 55 z m 773 549 b 796 446 814 549 814 494 b 734 452 762 357 678 343 b 793 524 752 487 777 521 b 692 468 751 561 714 517 b 705 329 652 379 668 334 b 866 480 769 321 851 404 b 773 549 880 548 829 591 z m 803 44 l 813 44 l 813 55 l 813 55 l 803 55 l 803 75 l 789 66 l 789 55 l 782 55 l 782 44 l 789 44 b 814 1 789 24 782 -13 l 813 12 b 803 44 800 7 803 14 z m 417 47 l 417 55 l 403 55 l 403 55 l 403 -21 l 418 -21 l 418 7 b 450 6 428 -4 441 -4 b 417 47 475 34 436 77 z m 418 29 l 418 29 b 418 29 418 29 418 29 b 442 28 418 50 442 51 b 418 29 442 3 418 5 z m 932 0 l 932 15 l 918 15 l 918 0 z "},"8":{"ha":1215,"x_min":0,"x_max":0,"o":"m 915 147 l 915 164 l 324 164 l 324 147 z m 683 245 l 683 282 l 698 282 l 698 293 l 655 293 l 655 282 l 669 282 l 669 245 z m 617 259 l 612 249 l 633 244 l 632 244 b 636 274 655 244 666 268 b 648 280 616 278 631 288 l 652 290 b 631 264 623 307 592 272 b 617 259 653 259 633 249 z m 702 293 b 724 244 702 270 696 244 l 724 244 b 747 293 752 244 747 270 l 733 293 b 724 255 733 274 737 255 b 715 293 712 255 715 274 z m 402 386 b 529 370 400 310 466 309 b 587 221 509 297 519 237 b 707 597 547 308 636 482 l 688 603 b 876 551 764 603 861 593 b 745 651 916 628 846 650 b 797 687 772 685 795 698 l 797 687 b 735 705 793 723 765 728 b 683 649 723 696 705 676 b 448 621 603 644 515 631 b 181 463 477 816 228 690 b 402 386 147 298 290 261 z m 243 447 b 415 617 259 597 446 774 b 354 610 388 613 367 610 b 406 585 351 576 380 583 b 295 542 388 539 339 494 b 440 585 241 452 381 377 l 430 588 l 649 603 b 649 603 649 603 649 603 l 649 603 l 649 603 b 579 490 625 569 600 530 l 579 490 b 494 391 556 455 532 410 b 458 422 469 380 444 384 b 536 452 479 414 515 428 b 444 503 586 510 504 580 l 443 503 b 291 373 406 446 367 367 b 243 447 259 375 237 399 z m 472 453 b 472 453 520 541 540 455 z m 873 291 b 860 244 833 312 815 244 b 873 291 889 244 895 279 z m 860 255 b 853 281 845 255 842 275 b 860 255 872 292 882 255 z m 805 269 b 756 293 805 297 773 293 l 756 245 b 805 269 773 245 805 240 z m 778 256 l 778 256 l 769 256 l 769 282 b 778 256 804 282 792 256 z m 930 28 b 952 36 930 50 950 48 l 966 39 l 966 39 l 966 39 b 915 27 958 66 915 63 b 967 19 915 -9 961 -11 l 953 21 b 930 28 950 6 930 5 z m 826 245 l 826 293 l 812 293 l 812 245 z m 175 884 b 108 954 132 872 97 908 b 341 1073 123 1022 257 1079 b 238 929 312 1040 273 987 b 235 962 235 939 234 951 b 209 878 181 952 181 905 b 223 618 150 762 120 642 b 270 857 201 665 228 763 b 412 1082 421 856 529 1026 b 432 1084 425 1091 432 1086 l 432 1084 b 366 1099 428 1122 395 1124 l 372 1095 b 49 963 258 1115 90 1066 b 175 884 9 865 115 790 z m 388 1058 b 275 897 447 1017 374 886 b 260 901 269 897 264 899 b 292 903 271 900 281 900 b 388 1058 324 967 360 1025 z m 974 28 b 1031 28 974 -12 1031 -10 b 974 28 1031 66 974 66 z m 989 28 b 1016 28 989 50 1016 50 b 989 28 1016 5 989 5 z m 1088 48 b 1055 48 1081 59 1064 59 l 1055 55 l 1041 55 l 1041 0 l 1056 0 b 1061 43 1056 13 1053 38 b 1075 0 1080 56 1075 15 l 1089 0 b 1094 43 1089 13 1087 38 b 1108 0 1113 56 1108 15 l 1123 0 l 1123 35 b 1088 48 1123 62 1098 60 z m 497 914 b 396 863 449 956 412 897 b 473 780 346 752 383 680 b 576 786 469 728 506 704 l 576 786 l 576 786 b 578 709 563 762 551 728 b 595 691 581 701 587 694 b 755 861 638 673 715 801 b 785 907 758 865 774 889 b 799 891 790 902 795 897 b 792 734 818 864 725 762 b 869 779 812 725 841 748 b 970 783 866 729 901 705 b 1097 769 967 714 1027 707 b 1091 983 1182 845 1223 1006 b 1020 776 1156 908 1059 754 b 1090 914 998 789 1058 907 b 1023 912 1062 938 1040 930 b 904 883 1005 941 945 953 b 839 847 829 763 799 765 b 788 953 879 927 811 918 b 810 948 795 948 803 944 b 793 978 814 964 805 973 b 759 929 760 994 735 949 b 633 754 734 891 648 754 b 728 991 599 754 718 975 l 709 995 b 1045 945 854 1003 1024 1001 b 758 1039 1104 1052 930 1055 b 825 1085 786 1078 811 1099 b 763 1102 821 1120 793 1125 b 699 1033 745 1089 722 1064 b 482 1007 602 1022 514 1008 b 516 981 480 981 497 980 b 671 993 544 983 602 989 b 617 901 651 964 632 932 b 528 789 577 842 539 789 b 601 924 504 789 569 917 b 507 883 561 960 526 918 b 430 789 480 842 445 789 b 497 914 406 789 464 907 z m 1003 885 b 1004 886 1004 886 1004 886 l 1004 886 l 1003 885 b 1003 885 1003 885 1003 885 b 925 788 996 874 942 788 b 1003 885 908 788 970 932 z m 1076 677 b 1014 694 1072 712 1044 717 b 842 385 953 648 836 470 b 854 358 843 365 854 359 l 854 358 b 981 359 860 303 916 302 b 957 472 1034 406 1017 489 b 904 366 966 441 943 344 b 900 382 901 368 899 373 b 1076 677 926 510 1040 715 z m 151 19 l 142 55 l 127 55 l 118 19 l 108 55 l 93 55 l 111 0 l 125 0 l 134 36 l 144 0 l 158 0 l 176 55 l 161 55 z m 470 12 b 454 55 448 -3 454 46 l 439 55 l 439 20 b 476 8 439 -9 467 -4 l 476 0 l 476 0 l 476 0 l 490 0 l 490 55 l 475 55 b 470 12 475 40 478 17 z m 874 0 l 874 76 l 859 76 l 859 0 z m 553 47 l 553 55 l 539 55 l 539 0 l 554 0 b 570 41 554 14 550 54 l 575 54 b 553 47 565 59 558 56 z m 579 41 l 592 38 l 592 38 l 592 38 b 612 36 596 48 612 50 b 598 32 609 35 604 34 b 613 6 555 24 588 -19 l 615 0 l 629 0 l 626 35 b 579 41 626 67 585 61 z m 612 26 b 594 11 612 2 596 10 b 612 26 583 22 609 25 b 612 26 612 26 612 26 l 612 26 b 612 26 612 26 612 26 z m 652 28 b 674 36 652 50 672 48 l 689 39 l 689 39 l 689 39 b 637 27 681 66 637 63 b 689 19 637 -9 683 -11 l 675 21 b 652 28 672 6 652 5 z m 791 28 b 848 28 791 -13 848 -10 b 791 28 848 66 791 65 z m 806 27 b 833 28 806 50 833 50 b 806 27 833 5 806 5 z m 520 44 l 530 44 l 530 55 l 530 55 l 520 55 l 520 75 l 505 66 l 505 55 l 498 55 l 498 44 l 505 44 b 531 1 505 24 498 -13 l 530 12 b 520 44 517 8 520 14 z m 695 27 b 746 15 695 -8 738 -10 l 732 17 b 710 23 728 4 711 8 l 747 23 b 695 27 748 69 695 66 z m 711 32 b 732 32 711 49 732 50 z m 233 19 l 224 55 l 210 55 l 201 19 l 190 55 l 176 55 l 194 0 l 208 0 l 217 36 l 227 0 l 241 0 l 258 55 l 244 55 z m 359 0 l 359 15 l 345 15 l 345 0 z m 316 19 l 307 55 l 293 55 l 283 19 l 273 55 l 259 55 l 276 0 l 290 0 l 300 36 l 309 0 l 323 0 l 341 55 l 327 55 z m 744 549 b 767 446 785 549 785 494 b 705 452 733 357 649 343 b 763 524 723 487 748 521 b 663 468 722 561 685 517 b 675 329 623 379 638 334 b 837 480 740 321 822 404 b 744 549 851 548 800 591 z m 774 44 l 784 44 l 784 55 l 784 55 l 774 55 l 774 75 l 759 66 l 759 55 l 753 55 l 753 44 l 759 44 b 785 1 759 24 753 -13 l 784 12 b 774 44 771 7 774 14 z m 388 47 l 388 55 l 374 55 l 374 55 l 374 -21 l 389 -21 l 389 7 b 421 6 399 -4 412 -4 b 388 47 445 34 407 77 z m 388 29 l 388 29 b 388 29 388 29 388 29 b 413 28 388 50 413 51 b 388 29 413 3 388 5 z m 903 0 l 903 15 l 889 15 l 889 0 z "},"9":{"ha":1219,"x_min":0,"x_max":0,"o":"m 915 147 l 915 164 l 324 164 l 324 147 z m 683 245 l 683 282 l 698 282 l 698 293 l 655 293 l 655 282 l 669 282 l 669 245 z m 617 259 l 612 249 l 633 244 l 632 244 b 636 274 655 244 666 268 b 648 280 616 278 631 288 l 652 290 b 631 264 623 307 592 272 b 617 259 653 259 633 249 z m 702 293 b 724 244 702 270 696 244 l 724 244 b 747 293 752 244 747 270 l 733 293 b 724 255 733 274 737 255 b 715 293 712 255 715 274 z m 402 386 b 529 370 400 310 466 309 b 587 221 509 297 519 237 b 707 597 547 308 636 482 l 688 603 b 876 551 764 603 861 593 b 745 651 916 628 846 650 b 797 687 772 685 795 698 l 797 687 b 735 705 793 723 765 728 b 683 649 723 696 705 676 b 448 621 603 644 515 631 b 181 463 477 816 228 690 b 402 386 147 298 290 261 z m 243 447 b 415 617 259 597 446 774 b 354 610 388 613 367 610 b 406 585 351 576 380 583 b 295 542 388 539 339 494 b 440 585 241 452 381 377 l 430 588 l 649 603 b 649 603 649 603 649 603 l 649 603 l 649 603 b 579 490 625 569 600 530 l 579 490 b 494 391 556 455 532 410 b 458 422 469 380 444 384 b 536 452 479 414 515 428 b 444 503 586 510 504 580 l 443 503 b 291 373 406 446 367 367 b 243 447 259 375 237 399 z m 472 453 b 472 453 520 541 540 455 z m 873 291 b 860 244 833 312 815 244 b 873 291 889 244 895 279 z m 860 255 b 853 281 845 255 842 275 b 860 255 872 292 882 255 z m 805 269 b 756 293 805 297 773 293 l 756 245 b 805 269 773 245 805 240 z m 778 256 l 778 256 l 769 256 l 769 282 b 778 256 804 282 792 256 z m 930 28 b 952 36 930 50 950 48 l 966 39 l 966 39 l 966 39 b 915 27 958 66 915 63 b 967 19 915 -9 961 -11 l 953 21 b 930 28 950 6 930 5 z m 826 245 l 826 293 l 812 293 l 812 245 z m 175 884 b 108 954 132 872 97 908 b 341 1073 123 1022 257 1079 b 238 929 312 1040 273 987 b 235 962 235 939 234 951 b 209 878 181 952 181 905 b 223 618 150 762 120 642 b 270 857 201 665 228 763 b 412 1082 421 856 529 1026 b 432 1084 425 1091 432 1086 l 432 1084 b 366 1099 428 1122 395 1124 l 372 1095 b 49 963 258 1115 90 1066 b 175 884 9 865 115 790 z m 388 1058 b 275 897 447 1017 374 886 b 260 901 269 897 264 899 b 292 903 271 900 281 900 b 388 1058 324 967 360 1025 z m 974 28 b 1031 28 974 -12 1031 -10 b 974 28 1031 66 974 66 z m 989 28 b 1016 28 989 50 1016 50 b 989 28 1016 5 989 5 z m 1088 48 b 1055 48 1081 59 1064 59 l 1055 55 l 1041 55 l 1041 0 l 1056 0 b 1061 43 1056 13 1053 38 b 1075 0 1080 56 1075 15 l 1089 0 b 1094 43 1089 13 1087 38 b 1108 0 1113 56 1108 15 l 1123 0 l 1123 35 b 1088 48 1123 62 1098 60 z m 497 914 b 396 863 449 956 412 897 b 473 780 346 752 383 680 b 576 786 469 728 506 704 l 576 786 l 576 786 b 578 709 563 762 551 728 b 595 691 581 701 587 694 b 755 861 638 673 715 801 b 785 907 758 865 774 889 b 799 891 790 902 795 897 b 792 734 818 864 725 762 b 869 779 812 725 841 748 b 970 783 866 729 901 705 b 1097 769 967 714 1027 707 b 1091 983 1182 845 1223 1006 b 1020 776 1156 908 1059 754 b 1090 914 998 789 1058 907 b 1023 912 1062 938 1040 930 b 904 883 1005 941 945 953 b 839 847 829 763 799 765 b 788 953 879 927 811 918 b 810 948 795 948 803 944 b 793 978 814 964 805 973 b 759 929 760 994 735 949 b 633 754 734 891 648 754 b 728 991 599 754 718 975 l 709 995 b 1045 945 854 1003 1024 1001 b 758 1039 1104 1052 930 1055 b 825 1085 786 1078 811 1099 b 763 1102 821 1120 793 1125 b 699 1033 745 1089 722 1064 b 482 1007 602 1022 514 1008 b 516 981 480 981 497 980 b 671 993 544 983 602 989 b 617 901 651 964 632 932 b 528 789 577 842 539 789 b 601 924 504 789 569 917 b 507 883 561 960 526 918 b 430 789 480 842 445 789 b 497 914 406 789 464 907 z m 1003 885 b 1004 886 1004 886 1004 886 l 1004 886 l 1003 885 b 1003 885 1003 885 1003 885 b 925 788 996 874 942 788 b 1003 885 908 788 970 932 z m 1076 677 b 1014 694 1072 712 1044 717 b 842 385 953 648 836 470 b 854 358 843 365 854 359 l 854 358 b 981 359 860 303 916 302 b 957 472 1034 406 1017 489 b 904 366 966 441 943 344 b 900 382 901 368 899 373 b 1076 677 926 510 1040 715 z m 151 19 l 142 55 l 127 55 l 118 19 l 108 55 l 93 55 l 111 0 l 125 0 l 134 36 l 144 0 l 158 0 l 176 55 l 161 55 z m 470 12 b 454 55 448 -3 454 46 l 439 55 l 439 20 b 476 8 439 -9 467 -4 l 476 0 l 476 0 l 476 0 l 490 0 l 490 55 l 475 55 b 470 12 475 40 478 17 z m 874 0 l 874 76 l 859 76 l 859 0 z m 553 47 l 553 55 l 539 55 l 539 0 l 554 0 b 570 41 554 14 550 54 l 575 54 b 553 47 565 59 558 56 z m 579 41 l 592 38 l 592 38 l 592 38 b 612 36 596 48 612 50 b 598 32 609 35 604 34 b 613 6 555 24 588 -19 l 615 0 l 629 0 l 626 35 b 579 41 626 67 585 61 z m 612 26 b 594 11 612 2 596 10 b 612 26 583 22 609 25 b 612 26 612 26 612 26 l 612 26 b 612 26 612 26 612 26 z m 652 28 b 674 36 652 50 672 48 l 689 39 l 689 39 l 689 39 b 637 27 681 66 637 63 b 689 19 637 -9 683 -11 l 675 21 b 652 28 672 6 652 5 z m 791 28 b 848 28 791 -13 848 -10 b 791 28 848 66 791 65 z m 806 27 b 833 28 806 50 833 50 b 806 27 833 5 806 5 z m 520 44 l 530 44 l 530 55 l 530 55 l 520 55 l 520 75 l 505 66 l 505 55 l 498 55 l 498 44 l 505 44 b 531 1 505 24 498 -13 l 530 12 b 520 44 517 8 520 14 z m 695 27 b 746 15 695 -8 738 -10 l 732 17 b 710 23 728 4 711 8 l 747 23 b 695 27 748 69 695 66 z m 711 32 b 732 32 711 49 732 50 z m 233 19 l 224 55 l 210 55 l 201 19 l 190 55 l 176 55 l 194 0 l 208 0 l 217 36 l 227 0 l 241 0 l 258 55 l 244 55 z m 359 0 l 359 15 l 345 15 l 345 0 z m 316 19 l 307 55 l 293 55 l 283 19 l 273 55 l 259 55 l 276 0 l 290 0 l 300 36 l 309 0 l 323 0 l 341 55 l 327 55 z m 744 549 b 767 446 785 549 785 494 b 705 452 733 357 649 343 b 763 524 723 487 748 521 b 663 468 722 561 685 517 b 675 329 623 379 638 334 b 837 480 740 321 822 404 b 744 549 851 548 800 591 z m 774 44 l 784 44 l 784 55 l 784 55 l 774 55 l 774 75 l 759 66 l 759 55 l 753 55 l 753 44 l 759 44 b 785 1 759 24 753 -13 l 784 12 b 774 44 771 7 774 14 z m 388 47 l 388 55 l 374 55 l 374 55 l 374 -21 l 389 -21 l 389 7 b 421 6 399 -4 412 -4 b 388 47 445 34 407 77 z m 388 29 l 388 29 b 388 29 388 29 388 29 b 413 28 388 50 413 51 b 388 29 413 3 388 5 z m 903 0 l 903 15 l 889 15 l 889 0 z "},"\u0000":{"ha":0,"x_min":0,"x_max":0,"o":""},"\n":{"ha":0,"x_min":0,"x_max":0,"o":""},"\r":{"ha":0,"x_min":0,"x_max":0,"o":""}," ":{"ha":583,"x_min":0,"x_max":0,"o":""},"!":{"ha":1231,"x_min":0,"x_max":0,"o":"m 922 147 l 922 164 l 331 164 l 331 147 z m 690 245 l 690 282 l 705 282 l 705 293 l 662 293 l 662 282 l 676 282 l 676 245 z m 624 259 l 619 249 l 639 244 l 639 244 b 643 274 662 244 673 268 b 654 280 623 278 638 288 l 659 290 b 638 264 630 307 599 272 b 624 259 660 259 640 249 z m 709 293 b 731 244 709 270 703 244 l 731 244 b 754 293 759 244 754 270 l 740 293 b 731 255 740 274 744 255 b 722 293 719 255 722 274 z m 409 386 b 536 370 407 310 473 309 b 594 221 516 297 525 237 b 714 597 554 308 643 482 l 695 603 b 883 551 771 603 868 593 b 751 651 923 628 853 650 b 804 687 779 685 802 698 l 804 687 b 742 705 800 723 772 728 b 690 649 730 696 712 676 b 455 621 610 644 522 631 b 188 463 484 816 235 690 b 409 386 154 298 297 261 z m 249 447 b 422 617 266 597 453 774 b 361 610 395 613 373 610 b 413 585 358 576 387 583 b 302 542 395 539 346 494 b 447 585 248 452 388 377 l 437 588 l 656 603 b 656 603 656 603 656 603 l 656 603 l 656 603 b 586 490 632 569 607 530 l 586 490 b 501 391 563 455 539 410 b 465 422 476 380 451 384 b 543 452 486 414 522 428 b 451 503 593 510 511 580 l 450 503 b 298 373 413 446 374 367 b 249 447 266 375 244 399 z m 479 453 b 479 453 527 541 547 455 z m 880 291 b 866 244 840 312 821 244 b 880 291 896 244 902 279 z m 866 255 b 860 281 852 255 849 275 b 866 255 879 292 889 255 z m 812 269 b 763 293 812 297 780 293 l 763 245 b 812 269 780 245 812 240 z m 785 256 l 785 256 l 776 256 l 776 282 b 785 256 811 282 799 256 z m 937 28 b 959 36 937 50 957 48 l 973 39 l 973 39 l 973 39 b 922 27 965 66 922 63 b 974 19 922 -9 968 -11 l 960 21 b 937 28 957 6 937 5 z m 833 245 l 833 293 l 819 293 l 819 245 z m 182 884 b 114 954 139 872 104 908 b 348 1073 130 1022 264 1079 b 245 929 319 1040 280 987 b 242 962 242 939 241 951 b 216 878 188 952 188 905 b 229 618 157 762 127 642 b 277 857 208 665 235 763 b 419 1082 428 856 536 1026 b 439 1084 432 1091 439 1086 l 439 1084 b 373 1099 435 1122 402 1124 l 379 1095 b 56 963 265 1115 97 1066 b 182 884 16 865 122 790 z m 395 1058 b 282 897 453 1017 381 886 b 267 901 276 897 271 899 b 299 903 278 900 288 900 b 395 1058 331 967 367 1025 z m 981 28 b 1038 28 981 -12 1038 -10 b 981 28 1038 66 981 66 z m 996 28 b 1023 28 996 50 1023 50 b 996 28 1023 5 996 5 z m 1094 48 b 1062 48 1088 59 1071 59 l 1062 55 l 1048 55 l 1048 0 l 1063 0 b 1068 43 1063 13 1060 38 b 1082 0 1087 56 1082 15 l 1096 0 b 1101 43 1096 13 1094 38 b 1115 0 1120 56 1115 15 l 1129 0 l 1129 35 b 1094 48 1129 62 1105 60 z m 503 914 b 403 863 456 956 419 897 b 480 780 353 752 390 680 b 583 786 476 728 513 704 l 583 786 l 583 786 b 585 709 570 762 558 728 b 602 691 588 701 593 694 b 762 861 645 673 722 801 b 792 907 765 865 781 889 b 806 891 797 902 802 897 b 799 734 825 864 732 762 b 876 779 819 725 848 748 b 977 783 873 729 908 705 b 1103 769 973 714 1034 707 b 1098 983 1189 845 1230 1006 b 1027 776 1163 908 1066 754 b 1097 914 1005 789 1065 907 b 1030 912 1069 938 1047 930 b 911 883 1012 941 952 953 b 846 847 836 763 806 765 b 795 953 886 927 818 918 b 816 948 802 948 810 944 b 800 978 821 964 812 973 b 765 929 767 994 742 949 b 640 754 741 891 655 754 b 734 991 606 754 725 975 l 716 995 b 1052 945 861 1003 1031 1001 b 765 1039 1111 1052 937 1055 b 832 1085 793 1078 818 1099 b 769 1102 828 1120 800 1125 b 706 1033 752 1089 729 1064 b 489 1007 608 1022 521 1008 b 523 981 486 981 504 980 b 678 993 551 983 609 989 b 624 901 658 964 639 932 b 535 789 584 842 546 789 b 608 924 511 789 576 917 b 514 883 568 960 533 918 b 437 789 487 842 452 789 b 503 914 413 789 471 907 z m 1010 885 b 1011 886 1010 886 1011 886 l 1011 886 l 1010 885 b 1010 885 1010 885 1010 885 b 932 788 1003 874 949 788 b 1010 885 915 788 976 932 z m 1083 677 b 1021 694 1079 712 1051 717 b 848 385 960 648 843 470 b 861 358 850 365 861 359 l 861 358 b 988 359 867 303 923 302 b 964 472 1041 406 1024 489 b 911 366 973 441 950 344 b 907 382 908 368 906 373 b 1083 677 933 510 1047 715 z m 158 19 l 148 55 l 134 55 l 125 19 l 115 55 l 100 55 l 118 0 l 132 0 l 141 36 l 151 0 l 165 0 l 183 55 l 168 55 z m 477 12 b 461 55 455 -3 461 46 l 446 55 l 446 20 b 483 8 446 -9 474 -4 l 483 0 l 483 0 l 483 0 l 497 0 l 497 55 l 482 55 b 477 12 482 40 485 17 z m 881 0 l 881 76 l 866 76 l 866 0 z m 560 47 l 560 55 l 546 55 l 546 0 l 561 0 b 577 41 561 14 557 54 l 582 54 b 560 47 572 59 565 56 z m 586 41 l 599 38 l 599 38 l 599 38 b 619 36 602 48 619 50 b 605 32 616 35 611 34 b 620 6 562 24 594 -19 l 622 0 l 636 0 l 633 35 b 586 41 633 67 592 61 z m 619 26 b 601 11 619 2 603 10 b 619 26 590 22 616 25 b 619 26 619 26 619 26 l 619 26 b 619 26 619 26 619 26 z m 659 28 b 681 36 659 50 679 48 l 696 39 l 696 39 l 696 39 b 644 27 688 66 644 63 b 696 19 644 -9 690 -11 l 682 21 b 659 28 679 6 659 5 z m 798 28 b 855 28 798 -13 855 -10 b 798 28 855 66 798 65 z m 813 27 b 840 28 813 50 840 50 b 813 27 840 5 813 5 z m 527 44 l 537 44 l 537 55 l 537 55 l 527 55 l 527 75 l 512 66 l 512 55 l 505 55 l 505 44 l 512 44 b 538 1 512 24 505 -13 l 537 12 b 527 44 524 8 527 14 z m 702 27 b 753 15 702 -8 745 -10 l 739 17 b 717 23 735 4 718 8 l 754 23 b 702 27 755 69 702 66 z m 718 32 b 739 32 717 49 739 50 z m 240 19 l 231 55 l 217 55 l 208 19 l 197 55 l 183 55 l 201 0 l 215 0 l 224 36 l 234 0 l 248 0 l 265 55 l 251 55 z m 366 0 l 366 15 l 352 15 l 352 0 z m 323 19 l 314 55 l 300 55 l 290 19 l 280 55 l 266 55 l 283 0 l 297 0 l 307 36 l 316 0 l 330 0 l 348 55 l 334 55 z m 751 549 b 773 446 792 549 792 494 b 712 452 740 357 656 343 b 770 524 729 487 755 521 b 670 468 729 561 692 517 b 682 329 630 379 645 334 b 844 480 747 321 829 404 b 751 549 858 548 807 591 z m 781 44 l 791 44 l 791 55 l 791 55 l 781 55 l 781 75 l 766 66 l 766 55 l 760 55 l 760 44 l 766 44 b 792 1 766 24 760 -13 l 791 12 b 781 44 778 7 781 14 z m 395 47 l 395 55 l 381 55 l 381 55 l 381 -21 l 396 -21 l 396 7 b 428 6 406 -4 419 -4 b 395 47 452 34 414 77 z m 395 29 l 395 29 b 395 29 395 29 395 29 b 420 28 395 50 420 51 b 395 29 420 3 395 5 z m 910 0 l 910 15 l 896 15 l 896 0 z "},"#":{"ha":1163,"x_min":0,"x_max":0,"o":"m 889 147 l 889 164 l 298 164 l 298 147 z m 657 245 l 657 282 l 671 282 l 671 293 l 628 293 l 628 282 l 643 282 l 643 245 z m 590 259 l 586 249 l 606 244 l 606 244 b 609 274 629 244 639 268 b 621 280 589 278 605 288 l 625 290 b 605 264 596 307 566 272 b 590 259 627 259 606 249 z m 675 293 b 698 244 675 270 670 244 l 698 244 b 720 293 725 244 720 270 l 707 293 b 698 255 707 274 710 255 b 689 293 685 255 689 274 z m 376 386 b 503 370 374 310 440 309 b 561 221 483 297 492 237 b 681 597 520 308 609 482 l 661 603 b 850 551 738 603 834 593 b 718 651 890 628 820 650 b 771 687 745 685 768 698 l 771 687 b 709 705 767 723 739 728 b 657 649 697 696 678 676 b 422 621 577 644 489 631 b 155 463 451 816 201 690 b 376 386 121 298 264 261 z m 216 447 b 389 617 233 597 420 774 b 327 610 362 613 340 610 b 380 585 325 576 353 583 b 269 542 361 539 313 494 b 414 585 214 452 355 377 l 404 588 l 622 603 b 623 603 622 603 622 603 l 623 603 l 622 603 b 553 490 599 569 574 530 l 553 490 b 467 391 530 455 505 410 b 431 422 443 380 418 384 b 509 452 452 414 489 428 b 418 503 559 510 478 580 l 417 503 b 264 373 380 446 341 367 b 216 447 233 375 211 399 z m 445 453 b 445 453 494 541 514 455 z m 847 291 b 833 244 807 312 788 244 b 847 291 862 244 869 279 z m 833 255 b 827 281 819 255 816 275 b 833 255 846 292 855 255 z m 779 269 b 729 293 779 297 747 293 l 729 245 b 779 269 747 245 779 240 z m 751 256 l 751 256 l 743 256 l 743 282 b 751 256 778 282 766 256 z m 904 28 b 926 36 904 50 924 48 l 940 39 l 940 39 l 940 39 b 889 27 932 66 889 63 b 941 19 889 -9 934 -11 l 926 21 b 904 28 924 6 904 5 z m 799 245 l 799 293 l 786 293 l 786 245 z m 148 884 b 81 954 106 872 71 908 b 314 1073 97 1022 230 1079 b 212 929 286 1040 247 987 b 209 962 208 939 207 951 b 183 878 154 952 154 905 b 196 618 123 762 94 642 b 244 857 174 665 202 763 b 386 1082 395 856 502 1026 b 406 1084 399 1091 406 1086 l 406 1084 b 340 1099 402 1122 368 1124 l 346 1095 b 23 963 232 1115 64 1066 b 148 884 -17 865 88 790 z m 362 1058 b 249 897 420 1017 347 886 b 234 901 243 897 238 899 b 265 903 244 900 255 900 b 362 1058 297 967 333 1025 z m 948 28 b 1005 28 948 -12 1005 -10 b 948 28 1005 66 948 66 z m 963 28 b 990 28 963 50 990 50 b 963 28 990 5 963 5 z m 1061 48 b 1028 48 1055 59 1038 59 l 1028 55 l 1015 55 l 1015 0 l 1030 0 b 1035 43 1030 13 1027 38 b 1048 0 1054 56 1048 15 l 1063 0 b 1068 43 1063 13 1060 38 b 1082 0 1087 56 1082 15 l 1096 0 l 1096 35 b 1061 48 1096 62 1072 60 z m 470 914 b 370 863 422 956 386 897 b 446 780 320 752 357 680 b 550 786 443 728 479 704 l 550 786 l 550 786 b 551 709 537 762 525 728 b 569 691 555 701 560 694 b 729 861 611 673 688 801 b 759 907 731 865 747 889 b 773 891 764 902 768 897 b 766 734 791 864 698 762 b 843 779 786 725 814 748 b 943 783 840 729 875 705 b 1070 769 940 714 1000 707 b 1064 983 1155 845 1197 1006 b 994 776 1129 908 1032 754 b 1063 914 971 789 1032 907 b 996 912 1036 938 1013 930 b 878 883 979 941 919 953 b 813 847 803 763 772 765 b 761 953 853 927 785 918 b 783 948 768 948 777 944 b 767 978 787 964 779 973 b 732 929 734 994 709 949 b 606 754 707 891 622 754 b 701 991 573 754 692 975 l 682 995 b 1019 945 827 1003 997 1001 b 732 1039 1078 1052 904 1055 b 798 1085 760 1078 785 1099 b 736 1102 795 1120 766 1125 b 672 1033 719 1089 696 1064 b 455 1007 575 1022 488 1008 b 490 981 453 981 471 980 b 644 993 518 983 576 989 b 591 901 625 964 606 932 b 502 789 551 842 512 789 b 575 924 478 789 542 917 b 481 883 534 960 500 918 b 404 789 453 842 418 789 b 470 914 380 789 438 907 z m 977 885 b 977 886 977 886 977 886 l 977 886 l 977 885 b 977 885 977 885 977 885 b 898 788 970 874 915 788 b 977 885 882 788 943 932 z m 1050 677 b 987 694 1046 712 1018 717 b 815 385 927 648 810 470 b 828 358 816 365 828 359 l 828 358 b 954 359 834 303 890 302 b 931 472 1007 406 991 489 b 878 366 939 441 916 344 b 873 382 874 368 872 373 b 1050 677 899 510 1014 715 z m 124 19 l 115 55 l 101 55 l 92 19 l 81 55 l 67 55 l 84 0 l 99 0 l 108 36 l 117 0 l 131 0 l 149 55 l 135 55 z m 443 12 b 427 55 421 -3 427 46 l 413 55 l 413 20 b 450 8 413 -9 441 -4 l 450 0 l 450 0 l 450 0 l 463 0 l 463 55 l 449 55 b 443 12 449 40 451 17 z m 847 0 l 847 76 l 833 76 l 833 0 z m 526 47 l 526 55 l 513 55 l 513 0 l 527 0 b 544 41 527 14 523 54 l 549 54 b 526 47 539 59 532 56 z m 553 41 l 566 38 l 566 38 l 566 38 b 585 36 569 48 585 50 b 571 32 583 35 578 34 b 586 6 529 24 561 -19 l 588 0 l 603 0 l 600 35 b 553 41 600 67 558 61 z m 585 26 b 568 11 585 2 569 10 b 585 26 557 22 582 25 b 585 26 585 26 585 26 l 585 26 b 585 26 585 26 585 26 z m 626 28 b 648 36 626 50 646 48 l 662 39 l 662 39 l 662 39 b 611 27 654 66 611 63 b 663 19 611 -9 656 -11 l 649 21 b 626 28 646 6 626 5 z m 764 28 b 821 28 764 -13 821 -10 b 764 28 821 66 764 65 z m 779 27 b 806 28 779 50 806 50 b 779 27 806 5 779 5 z m 493 44 l 503 44 l 503 55 l 503 55 l 493 55 l 493 75 l 479 66 l 479 55 l 472 55 l 472 44 l 479 44 b 504 1 479 24 472 -13 l 503 12 b 493 44 490 8 493 14 z m 669 27 b 720 15 669 -8 711 -10 l 705 17 b 684 23 701 4 684 8 l 721 23 b 669 27 721 69 669 66 z m 684 32 b 706 32 684 49 706 50 z m 207 19 l 198 55 l 184 55 l 174 19 l 164 55 l 150 55 l 167 0 l 181 0 l 191 36 l 200 0 l 214 0 l 232 55 l 218 55 z m 333 0 l 333 15 l 318 15 l 318 0 z m 290 19 l 281 55 l 267 55 l 257 19 l 247 55 l 232 55 l 250 0 l 264 0 l 273 36 l 283 0 l 297 0 l 315 55 l 300 55 z m 717 549 b 740 446 759 549 758 494 b 678 452 707 357 622 343 b 737 524 696 487 722 521 b 637 468 696 561 659 517 b 649 329 596 379 612 334 b 811 480 714 321 795 404 b 717 549 824 548 774 591 z m 748 44 l 758 44 l 758 55 l 758 55 l 748 55 l 748 75 l 733 66 l 733 55 l 726 55 l 726 44 l 733 44 b 759 1 733 24 726 -13 l 758 12 b 748 44 744 7 748 14 z m 361 47 l 361 55 l 348 55 l 348 55 l 348 -21 l 362 -21 l 362 7 b 395 6 372 -4 386 -4 b 361 47 419 34 380 77 z m 362 29 l 362 28 b 362 29 362 28 362 29 b 386 28 362 50 386 51 b 362 29 386 3 362 5 z m 877 0 l 877 15 l 862 15 l 862 0 z "},"$":{"ha":1200,"x_min":0,"x_max":0,"o":"m 907 147 l 907 164 l 316 164 l 316 147 z m 675 245 l 675 282 l 689 282 l 689 293 l 646 293 l 646 282 l 661 282 l 661 245 z m 608 259 l 604 249 l 624 244 l 624 244 b 627 274 647 244 657 268 b 639 280 607 278 623 288 l 643 290 b 623 264 614 307 584 272 b 608 259 645 259 624 249 z m 693 293 b 716 244 693 270 688 244 l 716 244 b 738 293 743 244 738 270 l 725 293 b 716 255 725 274 728 255 b 707 293 703 255 707 274 z m 394 386 b 521 370 392 310 458 309 b 579 221 501 297 510 237 b 699 597 538 308 627 482 l 679 603 b 868 551 756 603 853 593 b 736 651 908 628 838 650 b 789 687 763 685 787 698 l 789 687 b 727 705 785 723 757 728 b 675 649 715 696 697 676 b 440 621 595 644 507 631 b 173 463 469 816 219 690 b 394 386 139 298 282 261 z m 234 447 b 407 617 251 597 438 774 b 345 610 380 613 358 610 b 398 585 343 576 372 583 b 287 542 379 539 331 494 b 432 585 232 452 373 377 l 422 588 l 641 603 b 641 603 641 603 641 603 l 641 603 l 641 603 b 571 490 617 569 592 530 l 571 490 b 485 391 548 455 523 410 b 449 422 461 380 436 384 b 527 452 470 414 507 428 b 436 503 578 510 496 580 l 435 503 b 282 373 398 446 359 367 b 234 447 251 375 229 399 z m 463 453 b 463 453 512 541 532 455 z m 865 291 b 851 244 825 312 806 244 b 865 291 880 244 887 279 z m 851 255 b 845 281 837 255 834 275 b 851 255 864 292 873 255 z m 797 269 b 747 293 797 297 765 293 l 747 245 b 797 269 765 245 797 240 z m 770 256 l 770 256 l 761 256 l 761 282 b 770 256 796 282 784 256 z m 922 28 b 944 36 922 50 942 48 l 958 39 l 958 39 l 958 39 b 907 27 950 66 907 63 b 959 19 907 -9 952 -11 l 944 21 b 922 28 942 6 922 5 z m 817 245 l 817 293 l 804 293 l 804 245 z m 167 884 b 99 954 124 872 89 908 b 332 1073 115 1022 248 1079 b 230 929 304 1040 265 987 b 227 962 226 939 225 951 b 201 878 172 952 172 905 b 214 618 141 762 112 642 b 262 857 193 665 220 763 b 404 1082 413 856 520 1026 b 424 1084 417 1091 424 1086 l 424 1084 b 358 1099 420 1122 386 1124 l 364 1095 b 41 963 250 1115 82 1066 b 167 884 1 865 106 790 z m 380 1058 b 267 897 438 1017 366 886 b 252 901 261 897 256 899 b 283 903 262 900 273 900 b 380 1058 315 967 351 1025 z m 966 28 b 1023 28 966 -12 1023 -10 b 966 28 1023 66 966 66 z m 981 28 b 1008 28 981 50 1008 50 b 981 28 1008 5 981 5 z m 1079 48 b 1046 48 1073 59 1056 59 l 1046 55 l 1033 55 l 1033 0 l 1048 0 b 1053 43 1048 13 1045 38 b 1066 0 1072 56 1066 15 l 1081 0 b 1086 43 1081 13 1078 38 b 1100 0 1105 56 1100 15 l 1114 0 l 1114 35 b 1079 48 1114 62 1090 60 z m 488 914 b 388 863 440 956 404 897 b 464 780 338 752 375 680 b 568 786 461 728 497 704 l 568 786 l 568 786 b 569 709 555 762 543 728 b 587 691 573 701 578 694 b 747 861 629 673 706 801 b 777 907 749 865 765 889 b 791 891 782 902 787 897 b 784 734 809 864 717 762 b 861 779 804 725 832 748 b 961 783 858 729 893 705 b 1088 769 958 714 1018 707 b 1082 983 1174 845 1215 1006 b 1012 776 1147 908 1050 754 b 1081 914 990 789 1050 907 b 1014 912 1054 938 1032 930 b 896 883 997 941 937 953 b 831 847 821 763 791 765 b 779 953 871 927 803 918 b 801 948 786 948 795 944 b 785 978 806 964 797 973 b 750 929 752 994 727 949 b 624 754 725 891 640 754 b 719 991 591 754 710 975 l 701 995 b 1037 945 845 1003 1015 1001 b 750 1039 1096 1052 922 1055 b 817 1085 778 1078 803 1099 b 754 1102 813 1120 784 1125 b 690 1033 737 1089 714 1064 b 473 1007 593 1022 506 1008 b 508 981 471 981 489 980 b 662 993 536 983 594 989 b 609 901 643 964 624 932 b 520 789 569 842 531 789 b 593 924 496 789 560 917 b 499 883 552 960 518 918 b 422 789 471 842 437 789 b 488 914 398 789 456 907 z m 995 885 b 995 886 995 886 995 886 l 995 886 l 995 885 b 995 885 995 885 995 885 b 916 788 988 874 933 788 b 995 885 900 788 961 932 z m 1068 677 b 1006 694 1064 712 1036 717 b 833 385 945 648 828 470 b 846 358 835 365 846 359 l 846 358 b 972 359 852 303 908 302 b 949 472 1025 406 1009 489 b 896 366 958 441 934 344 b 891 382 892 368 890 373 b 1068 677 918 510 1032 715 z m 142 19 l 133 55 l 119 55 l 110 19 l 99 55 l 85 55 l 102 0 l 117 0 l 126 36 l 135 0 l 150 0 l 167 55 l 153 55 z m 461 12 b 446 55 439 -3 446 46 l 431 55 l 431 20 b 468 8 431 -9 459 -4 l 468 0 l 468 0 l 468 0 l 481 0 l 481 55 l 467 55 b 461 12 467 40 469 17 z m 865 0 l 865 76 l 851 76 l 851 0 z m 544 47 l 544 55 l 531 55 l 531 0 l 546 0 b 562 41 546 14 541 54 l 567 54 b 544 47 557 59 550 56 z m 571 41 l 584 38 l 584 38 l 584 38 b 604 36 587 48 604 50 b 589 32 601 35 596 34 b 605 6 547 24 579 -19 l 606 0 l 621 0 l 618 35 b 571 41 618 67 576 61 z m 603 26 b 586 11 603 2 587 10 b 603 26 575 22 600 25 b 603 26 603 26 603 26 l 603 26 b 603 26 603 26 603 26 z m 644 28 b 666 36 644 50 664 48 l 680 39 l 680 39 l 680 39 b 629 27 672 66 629 63 b 681 19 629 -9 674 -11 l 667 21 b 644 28 664 6 644 5 z m 782 28 b 839 28 782 -13 839 -10 b 782 28 839 66 782 65 z m 798 27 b 824 28 798 50 824 50 b 798 27 824 5 798 5 z m 511 44 l 521 44 l 521 55 l 521 55 l 511 55 l 511 75 l 497 66 l 497 55 l 490 55 l 490 44 l 497 44 b 523 1 497 24 490 -13 l 521 12 b 511 44 508 8 511 14 z m 687 27 b 738 15 687 -8 729 -10 l 723 17 b 702 23 719 4 702 8 l 739 23 b 687 27 739 69 687 66 z m 702 32 b 724 32 702 49 724 50 z m 225 19 l 216 55 l 202 55 l 192 19 l 182 55 l 168 55 l 185 0 l 199 0 l 209 36 l 218 0 l 232 0 l 250 55 l 236 55 z m 351 0 l 351 15 l 336 15 l 336 0 z m 308 19 l 299 55 l 285 55 l 275 19 l 265 55 l 251 55 l 268 0 l 282 0 l 291 36 l 301 0 l 315 0 l 333 55 l 318 55 z m 735 549 b 758 446 777 549 776 494 b 696 452 725 357 640 343 b 755 524 714 487 740 521 b 655 468 714 561 677 517 b 667 329 615 379 630 334 b 829 480 732 321 813 404 b 735 549 842 548 792 591 z m 766 44 l 776 44 l 776 55 l 776 55 l 766 55 l 766 75 l 751 66 l 751 55 l 744 55 l 744 44 l 751 44 b 777 1 751 24 744 -13 l 776 12 b 766 44 763 7 766 14 z m 379 47 l 379 55 l 366 55 l 366 55 l 366 -21 l 380 -21 l 380 7 b 413 6 390 -4 404 -4 b 379 47 437 34 398 77 z m 380 29 l 380 28 b 380 29 380 28 380 29 b 405 28 380 50 405 51 b 380 29 405 3 380 5 z m 895 0 l 895 15 l 880 15 l 880 0 z "},"%":{"ha":1365,"x_min":0,"x_max":0,"o":"m 569 755 b 316 972 569 943 433 972 b 69 755 199 972 69 943 b 316 538 69 559 190 538 b 569 755 444 538 569 560 z m 316 583 b 316 929 182 583 199 929 b 316 583 433 929 450 583 z m 1042 434 b 795 217 923 434 795 405 b 1042 0 795 21 914 0 b 1295 217 1168 0 1295 22 b 1042 434 1295 405 1159 434 z m 1042 45 b 1042 391 905 45 923 391 b 1042 45 1159 391 1174 45 z m 740 972 l 568 465 l 411 0 l 602 0 l 931 972 z "},"&":{"ha":956,"x_min":0,"x_max":0,"o":"m 885 317 l 742 317 b 709 252 739 298 727 276 b 494 484 656 355 578 455 b 649 714 613 524 647 619 b 356 974 651 843 572 974 b 75 724 147 974 77 850 b 220 484 72 626 96 526 b 356 -5 -68 386 -9 -9 b 663 84 453 -3 565 29 l 709 0 l 839 0 l 761 153 b 885 317 818 200 863 255 z m 356 931 b 492 660 511 931 492 762 b 230 660 492 459 230 443 b 356 931 230 765 210 931 z m 356 36 b 194 193 266 36 194 107 l 194 309 b 356 464 194 393 266 464 b 606 191 447 464 535 324 l 622 162 b 356 36 537 93 427 36 z "},"(":{"ha":307,"x_min":0,"x_max":0,"o":"m 379 -41 b 215 122 289 -41 215 33 l 215 852 b 379 1014 215 939 289 1014 l 379 1057 b 46 722 196 1057 46 907 l 46 250 b 379 -84 46 66 196 -84 z "},")":{"ha":308,"x_min":0,"x_max":0,"o":"m -71 -84 b 262 250 112 -84 262 66 l 262 722 b -71 1057 262 907 112 1057 l -71 1014 b 91 852 19 1014 91 939 l 91 122 b -71 -41 91 33 19 -41 z "},"*":{"ha":224,"x_min":0,"x_max":0,"o":"m 133 805 l 133 852 l 173 827 l 195 865 l 155 888 l 195 912 l 173 950 l 133 926 l 133 972 l 90 972 l 90 926 l 48 950 l 28 912 l 67 888 l 28 865 l 48 827 l 90 852 l 90 805 z "},"+":{"ha":618,"x_min":0,"x_max":0,"o":"m 396 574 l 396 764 l 222 764 l 222 574 l 32 574 l 32 400 l 222 400 l 222 210 l 396 210 l 396 400 l 585 400 l 585 574 z "},",":{"ha":250,"x_min":0,"x_max":0,"o":"m 130 174 b 44 86 82 174 44 134 b -10 -97 37 17 20 -45 b 130 174 307 -19 232 174 z "},"-":{"ha":492,"x_min":0,"x_max":0,"o":"m 459 400 l 459 574 l 32 574 l 32 400 z "},".":{"ha":233,"x_min":0,"x_max":0,"o":"m 117 174 b 117 0 2 174 2 0 b 117 174 231 0 231 174 z "},"/":{"ha":660,"x_min":0,"x_max":0,"o":"m 226 464 l 69 -50 l 261 -50 l 590 1024 l 399 1024 z "},":":{"ha":244,"x_min":0,"x_max":0,"o":"m 121 433 b 121 259 8 433 8 259 b 121 433 237 259 237 433 z m 121 679 b 121 505 8 679 8 505 b 121 679 237 505 237 679 z "},";":{"ha":293,"x_min":0,"x_max":0,"o":"m 167 679 b 167 505 54 679 54 505 b 167 679 283 505 283 679 z m 167 433 b 28 162 48 433 107 303 b 167 433 347 240 269 433 z "},"<":{"ha":433,"x_min":0,"x_max":0,"o":"m 279 224 l 401 348 l 263 486 l 401 626 l 279 748 l 17 486 z "},"=":{"ha":493,"x_min":0,"x_max":0,"o":"m 38 696 l 38 522 l 455 522 l 455 696 z m 38 276 l 455 276 l 455 450 l 38 450 z "},">":{"ha":436,"x_min":0,"x_max":0,"o":"m 418 486 l 154 748 l 32 626 l 170 486 l 32 348 l 154 224 l 294 364 z "},"?":{"ha":1231,"x_min":0,"x_max":0,"o":"m 945 147 l 945 164 l 353 164 l 353 147 z m 712 245 l 712 282 l 727 282 l 727 293 l 684 293 l 684 282 l 699 282 l 699 245 z m 646 259 l 642 249 l 662 244 l 662 244 b 665 274 684 244 695 268 b 677 280 645 278 661 288 l 681 290 b 660 264 652 307 621 272 b 646 259 682 259 662 249 z m 731 293 b 753 244 731 270 726 244 l 753 244 b 776 293 781 244 776 270 l 762 293 b 753 255 762 274 766 255 b 744 293 741 255 744 274 z m 431 386 b 558 370 429 310 495 309 b 617 221 539 297 548 237 b 737 597 576 308 665 482 l 717 603 b 906 551 793 603 890 593 b 774 651 945 628 875 650 b 826 687 801 685 824 698 l 826 687 b 764 705 823 723 794 728 b 713 649 753 696 734 676 b 477 621 633 644 544 631 b 210 463 506 816 257 690 b 431 386 176 298 319 261 z m 272 447 b 444 617 288 597 475 774 b 383 610 417 613 396 610 b 435 585 380 576 409 583 b 324 542 417 539 368 494 b 469 585 270 452 411 377 l 460 588 l 678 603 b 678 603 678 603 678 603 l 678 603 l 678 603 b 608 490 654 569 629 530 l 608 490 b 523 391 585 455 561 410 b 487 422 498 380 474 384 b 565 452 508 414 544 428 b 473 503 615 510 533 580 l 473 503 b 320 373 435 446 396 367 b 272 447 288 375 266 399 z m 501 453 b 501 453 549 541 569 455 z m 902 291 b 889 244 863 312 844 244 b 902 291 918 244 924 279 z m 889 255 b 882 281 875 255 871 275 b 889 255 901 292 911 255 z m 834 269 b 785 293 834 297 802 293 l 785 245 b 834 269 802 245 834 240 z m 807 256 l 807 256 l 798 256 l 798 282 b 807 256 834 282 821 256 z m 959 28 b 981 36 959 50 979 48 l 996 39 l 996 39 l 996 39 b 944 27 988 66 944 63 b 996 19 944 -9 990 -11 l 982 21 b 959 28 979 6 959 5 z m 855 245 l 855 293 l 841 293 l 841 245 z m 204 884 b 137 954 162 872 126 908 b 370 1073 152 1022 286 1079 b 267 929 341 1040 302 987 b 264 962 264 939 263 951 b 239 878 210 952 210 905 b 252 618 179 762 150 642 b 299 857 230 665 258 763 b 442 1082 450 856 558 1026 b 461 1084 454 1091 461 1086 l 462 1084 b 395 1099 458 1122 424 1124 l 401 1095 b 78 963 287 1115 119 1066 b 204 884 38 865 144 790 z m 417 1058 b 304 897 476 1017 403 886 b 289 901 299 897 294 899 b 321 903 300 900 310 900 b 417 1058 353 967 389 1025 z m 1003 28 b 1060 28 1003 -12 1060 -10 b 1003 28 1060 66 1003 66 z m 1018 28 b 1045 28 1018 50 1045 50 b 1018 28 1045 5 1018 5 z m 1117 48 b 1084 48 1110 59 1094 59 l 1084 55 l 1071 55 l 1071 0 l 1085 0 b 1090 43 1085 13 1083 38 b 1104 0 1109 56 1104 15 l 1119 0 b 1124 43 1119 13 1116 38 b 1137 0 1142 56 1137 15 l 1152 0 l 1152 35 b 1117 48 1152 62 1127 60 z m 526 914 b 425 863 478 956 441 897 b 502 780 375 752 412 680 b 605 786 498 728 535 704 l 605 786 l 605 786 b 607 709 593 762 581 728 b 624 691 610 701 616 694 b 784 861 667 673 744 801 b 815 907 787 865 803 889 b 828 891 819 902 824 897 b 821 734 847 864 754 762 b 898 779 841 725 870 748 b 999 783 895 729 931 705 b 1126 769 996 714 1056 707 b 1120 983 1211 845 1252 1006 b 1049 776 1185 908 1088 754 b 1119 914 1027 789 1087 907 b 1052 912 1091 938 1069 930 b 933 883 1034 941 974 953 b 869 847 858 763 828 765 b 817 953 908 927 840 918 b 839 948 824 948 832 944 b 822 978 843 964 834 973 b 788 929 790 994 764 949 b 662 754 763 891 677 754 b 757 991 628 754 748 975 l 738 995 b 1074 945 883 1003 1053 1001 b 787 1039 1133 1052 959 1055 b 854 1085 815 1078 841 1099 b 792 1102 850 1120 822 1125 b 728 1033 774 1089 751 1064 b 511 1007 631 1022 543 1008 b 545 981 509 981 526 980 b 700 993 573 983 632 989 b 646 901 680 964 661 932 b 557 789 606 842 568 789 b 630 924 534 789 598 917 b 536 883 590 960 555 918 b 459 789 509 842 474 789 b 526 914 436 789 493 907 z m 1032 885 b 1033 886 1033 886 1033 886 l 1033 886 l 1032 885 b 1032 885 1032 885 1032 885 b 954 788 1025 874 971 788 b 1032 885 938 788 999 932 z m 1105 677 b 1043 694 1102 712 1073 717 b 871 385 982 648 865 470 b 883 358 872 365 883 359 l 883 358 b 1010 359 889 303 945 302 b 986 472 1063 406 1046 489 b 934 366 995 441 972 344 b 929 382 930 368 928 373 b 1105 677 955 510 1070 715 z m 180 19 l 171 55 l 157 55 l 147 19 l 137 55 l 123 55 l 140 0 l 154 0 l 163 36 l 173 0 l 187 0 l 205 55 l 190 55 z m 499 12 b 483 55 477 -3 483 46 l 468 55 l 468 20 b 505 8 468 -9 496 -4 l 505 0 l 505 0 l 505 0 l 519 0 l 519 55 l 504 55 b 499 12 504 40 507 17 z m 903 0 l 903 76 l 888 76 l 888 0 z m 582 47 l 582 55 l 568 55 l 568 0 l 583 0 b 600 41 583 14 579 54 l 604 54 b 582 47 594 59 588 56 z m 608 41 l 621 38 l 621 38 l 621 38 b 641 36 625 48 641 50 b 627 32 638 35 634 34 b 642 6 585 24 617 -19 l 644 0 l 658 0 l 655 35 b 608 41 655 67 614 61 z m 641 26 b 623 11 641 2 625 10 b 641 26 612 22 638 25 b 641 26 641 26 641 26 l 641 26 b 641 26 641 26 641 26 z m 682 28 b 703 36 682 50 701 48 l 718 39 l 718 39 l 718 39 b 666 27 710 66 666 63 b 719 19 666 -9 712 -11 l 704 21 b 682 28 701 6 682 5 z m 820 28 b 877 28 820 -13 877 -10 b 820 28 877 66 820 65 z m 835 27 b 862 28 835 50 862 50 b 835 27 862 5 835 5 z m 549 44 l 559 44 l 559 55 l 559 55 l 549 55 l 549 75 l 534 66 l 534 55 l 528 55 l 528 44 l 534 44 b 560 1 534 24 528 -13 l 559 12 b 549 44 546 8 549 14 z m 725 27 b 775 15 725 -8 767 -10 l 761 17 b 740 23 757 4 740 8 l 776 23 b 725 27 777 69 725 66 z m 740 32 b 762 32 740 49 761 50 z m 263 19 l 253 55 l 239 55 l 230 19 l 219 55 l 205 55 l 223 0 l 237 0 l 246 36 l 256 0 l 270 0 l 288 55 l 273 55 z m 389 0 l 389 15 l 374 15 l 374 0 z m 345 19 l 336 55 l 322 55 l 313 19 l 302 55 l 288 55 l 305 0 l 320 0 l 329 36 l 338 0 l 352 0 l 370 55 l 356 55 z m 773 549 b 796 446 814 549 814 494 b 734 452 762 357 678 343 b 793 524 752 487 777 521 b 692 468 751 561 714 517 b 705 329 652 379 668 334 b 866 480 769 321 851 404 b 773 549 880 548 829 591 z m 803 44 l 813 44 l 813 55 l 813 55 l 803 55 l 803 75 l 789 66 l 789 55 l 782 55 l 782 44 l 789 44 b 814 1 789 24 782 -13 l 813 12 b 803 44 800 7 803 14 z m 417 47 l 417 55 l 403 55 l 403 55 l 403 -21 l 418 -21 l 418 7 b 450 6 428 -4 441 -4 b 417 47 475 34 436 77 z m 418 29 l 418 29 b 418 29 418 29 418 29 b 442 28 418 50 442 51 b 418 29 442 3 418 5 z m 932 0 l 932 15 l 918 15 l 918 0 z "},"@":{"ha":1208,"x_min":0,"x_max":0,"o":"m 911 147 l 911 164 l 320 164 l 320 147 z m 679 245 l 679 282 l 694 282 l 694 293 l 651 293 l 651 282 l 665 282 l 665 245 z m 613 259 l 608 249 l 628 244 l 628 244 b 632 274 651 244 662 268 b 643 280 612 278 627 288 l 648 290 b 627 264 618 307 588 272 b 613 259 649 259 628 249 z m 697 293 b 720 244 697 270 692 244 l 720 244 b 742 293 748 244 742 270 l 729 293 b 720 255 729 274 733 255 b 711 293 707 255 711 274 z m 398 386 b 525 370 396 310 462 309 b 583 221 505 297 514 237 b 703 597 543 308 631 482 l 683 603 b 872 551 760 603 857 593 b 740 651 912 628 842 650 b 793 687 767 685 791 698 l 793 687 b 731 705 789 723 761 728 b 679 649 719 696 701 676 b 444 621 599 644 511 631 b 177 463 473 816 224 690 b 398 386 143 298 286 261 z m 238 447 b 411 617 255 597 442 774 b 350 610 384 613 362 610 b 402 585 347 576 376 583 b 291 542 383 539 335 494 b 436 585 237 452 377 377 l 426 588 l 645 603 b 645 603 645 603 645 603 l 645 603 l 645 603 b 575 490 621 569 596 530 l 575 490 b 489 391 552 455 527 410 b 454 422 465 380 440 384 b 531 452 475 414 511 428 b 440 503 582 510 500 580 l 439 503 b 286 373 402 446 363 367 b 238 447 255 375 233 399 z m 467 453 b 467 453 516 541 536 455 z m 869 291 b 855 244 829 312 810 244 b 869 291 885 244 891 279 z m 855 255 b 849 281 841 255 838 275 b 855 255 868 292 877 255 z m 801 269 b 752 293 801 297 769 293 l 752 245 b 801 269 769 245 801 240 z m 774 256 l 774 256 l 765 256 l 765 282 b 774 256 800 282 788 256 z m 926 28 b 948 36 926 50 946 48 l 962 39 l 962 39 l 962 39 b 911 27 954 66 911 63 b 963 19 911 -9 956 -11 l 949 21 b 926 28 946 6 926 5 z m 822 245 l 822 293 l 808 293 l 808 245 z m 171 884 b 103 954 128 872 93 908 b 336 1073 119 1022 252 1079 b 234 929 308 1040 269 987 b 231 962 231 939 230 951 b 205 878 176 952 177 905 b 218 618 146 762 116 642 b 266 857 197 665 224 763 b 408 1082 417 856 525 1026 b 428 1084 421 1091 428 1086 l 428 1084 b 362 1099 424 1122 391 1124 l 368 1095 b 45 963 254 1115 86 1066 b 171 884 5 865 111 790 z m 384 1058 b 271 897 442 1017 370 886 b 256 901 265 897 260 899 b 288 903 267 900 277 900 b 384 1058 320 967 356 1025 z m 970 28 b 1027 28 970 -12 1027 -10 b 970 28 1027 66 970 66 z m 985 28 b 1012 28 985 50 1012 50 b 985 28 1012 5 985 5 z m 1083 48 b 1051 48 1077 59 1060 59 l 1051 55 l 1037 55 l 1037 0 l 1052 0 b 1057 43 1052 13 1049 38 b 1071 0 1076 56 1071 15 l 1085 0 b 1090 43 1085 13 1083 38 b 1104 0 1109 56 1104 15 l 1118 0 l 1118 35 b 1083 48 1118 62 1094 60 z m 492 914 b 392 863 444 956 408 897 b 468 780 342 752 379 680 b 572 786 465 728 502 704 l 572 786 l 572 786 b 574 709 559 762 547 728 b 591 691 577 701 582 694 b 751 861 633 673 711 801 b 781 907 753 865 770 889 b 795 891 786 902 791 897 b 788 734 813 864 721 762 b 865 779 808 725 837 748 b 966 783 862 729 897 705 b 1092 769 962 714 1023 707 b 1086 983 1178 845 1219 1006 b 1016 776 1152 908 1054 754 b 1085 914 994 789 1054 907 b 1018 912 1058 938 1036 930 b 900 883 1001 941 941 953 b 835 847 825 763 795 765 b 784 953 875 927 807 918 b 805 948 791 948 799 944 b 789 978 810 964 801 973 b 754 929 756 994 731 949 b 629 754 729 891 644 754 b 723 991 595 754 714 975 l 705 995 b 1041 945 850 1003 1019 1001 b 754 1039 1100 1052 926 1055 b 821 1085 782 1078 807 1099 b 758 1102 817 1120 788 1125 b 694 1033 741 1089 718 1064 b 478 1007 597 1022 510 1008 b 512 981 475 981 493 980 b 666 993 540 983 598 989 b 613 901 647 964 628 932 b 524 789 573 842 535 789 b 597 924 500 789 564 917 b 503 883 556 960 522 918 b 426 789 475 842 441 789 b 492 914 402 789 460 907 z m 999 885 b 1000 886 999 886 1000 886 l 1000 886 l 999 885 b 999 885 999 885 999 885 b 921 788 992 874 938 788 b 999 885 904 788 965 932 z m 1072 677 b 1010 694 1068 712 1040 717 b 837 385 949 648 832 470 b 850 358 839 365 850 359 l 850 358 b 976 359 856 303 912 302 b 953 472 1030 406 1013 489 b 900 366 962 441 939 344 b 895 382 896 368 894 373 b 1072 677 922 510 1036 715 z m 147 19 l 137 55 l 123 55 l 114 19 l 103 55 l 89 55 l 107 0 l 121 0 l 130 36 l 140 0 l 154 0 l 171 55 l 157 55 z m 466 12 b 450 55 444 -3 450 46 l 435 55 l 435 20 b 472 8 435 -9 463 -4 l 472 0 l 472 0 l 472 0 l 485 0 l 485 55 l 471 55 b 466 12 471 40 473 17 z m 870 0 l 870 76 l 855 76 l 855 0 z m 549 47 l 549 55 l 535 55 l 535 0 l 550 0 b 566 41 550 14 545 54 l 571 54 b 549 47 561 59 554 56 z m 575 41 l 588 38 l 588 38 l 588 38 b 608 36 591 48 608 50 b 594 32 605 35 600 34 b 609 6 551 24 583 -19 l 611 0 l 625 0 l 622 35 b 575 41 622 67 580 61 z m 608 26 b 590 11 607 2 592 10 b 608 26 579 22 605 25 b 608 26 608 26 608 26 l 608 26 b 608 26 608 26 608 26 z m 648 28 b 670 36 648 50 668 48 l 684 39 l 684 39 l 684 39 b 633 27 676 66 633 63 b 685 19 633 -9 679 -11 l 671 21 b 648 28 668 6 648 5 z m 787 28 b 844 28 787 -13 844 -10 b 787 28 844 66 787 65 z m 802 27 b 829 28 802 50 829 50 b 802 27 829 5 802 5 z m 516 44 l 526 44 l 526 55 l 526 55 l 515 55 l 515 75 l 501 66 l 501 55 l 494 55 l 494 44 l 501 44 b 527 1 501 24 494 -13 l 526 12 b 516 44 512 8 516 14 z m 691 27 b 742 15 691 -8 733 -10 l 727 17 b 706 23 724 4 707 8 l 743 23 b 691 27 744 69 691 66 z m 707 32 b 728 32 706 49 728 50 z m 229 19 l 220 55 l 206 55 l 196 19 l 186 55 l 172 55 l 189 0 l 203 0 l 213 36 l 222 0 l 236 0 l 254 55 l 240 55 z m 355 0 l 355 15 l 341 15 l 341 0 z m 312 19 l 303 55 l 289 55 l 279 19 l 269 55 l 255 55 l 272 0 l 286 0 l 296 36 l 305 0 l 319 0 l 337 55 l 323 55 z m 740 549 b 762 446 781 549 780 494 b 700 452 729 357 644 343 b 759 524 718 487 744 521 b 659 468 718 561 681 517 b 671 329 619 379 634 334 b 833 480 736 321 817 404 b 740 549 847 548 796 591 z m 770 44 l 780 44 l 780 55 l 780 55 l 770 55 l 770 75 l 755 66 l 755 55 l 749 55 l 749 44 l 755 44 b 781 1 755 24 749 -13 l 780 12 b 770 44 767 7 770 14 z m 384 47 l 384 55 l 370 55 l 370 55 l 370 -21 l 384 -21 l 384 7 b 417 6 395 -4 408 -4 b 384 47 441 34 402 77 z m 384 29 l 384 28 b 384 29 384 28 384 29 b 409 28 384 50 409 51 b 384 29 409 3 384 5 z m 899 0 l 899 15 l 884 15 l 884 0 z "},"A":{"ha":661,"x_min":0,"x_max":0,"o":"m 419 972 l 245 972 l -7 0 l 43 0 l 93 207 l 441 207 l 493 0 l 667 0 z m 364 403 b 107 248 333 234 224 248 l 267 886 b 364 403 295 777 384 505 z "},"B":{"ha":739,"x_min":0,"x_max":0,"o":"m 476 486 b 469 972 790 486 793 972 l 49 972 l 49 0 l 476 0 b 476 486 790 0 792 486 z m 221 929 l 383 929 b 316 552 555 912 533 386 b 221 929 200 641 221 784 z m 342 71 b 221 291 266 114 221 200 l 221 465 l 383 465 b 342 71 548 448 535 -38 z "},"C":{"ha":600,"x_min":0,"x_max":0,"o":"m 596 812 l 596 876 b 29 638 384 1084 29 931 l 29 333 b 596 97 29 40 386 -114 l 596 160 b 224 165 484 10 295 -5 b 226 808 189 250 191 727 b 596 812 296 976 484 962 z "},"D":{"ha":749,"x_min":0,"x_max":0,"o":"m 386 972 l 49 972 l 49 0 l 385 0 b 719 333 566 0 719 148 l 719 638 b 386 972 719 826 564 972 z m 524 165 b 326 81 488 78 414 21 b 224 291 261 126 224 207 l 224 929 b 523 808 354 929 462 953 b 524 165 557 727 559 250 z "},"E":{"ha":706,"x_min":0,"x_max":0,"o":"m 49 0 l 716 0 l 716 43 l 452 43 b 224 291 311 43 224 162 l 224 465 l 511 465 l 511 508 l 452 508 b 224 755 311 508 224 627 l 224 929 l 716 929 l 716 972 l 49 972 z "},"F":{"ha":696,"x_min":0,"x_max":0,"o":"m 49 0 l 223 0 l 223 465 l 509 465 l 509 508 l 450 508 b 223 755 309 508 223 627 l 223 929 l 716 929 l 716 972 l 49 972 z "},"G":{"ha":710,"x_min":0,"x_max":0,"o":"m 569 509 l 290 509 l 290 462 l 313 462 b 526 303 419 462 497 393 b 378 43 509 160 452 53 b 225 165 332 36 264 69 b 226 808 190 250 192 727 b 597 812 299 976 487 962 l 597 876 b 30 638 385 1084 30 931 b 204 41 30 390 -13 160 b 697 333 428 -81 697 84 l 697 509 l 569 509 z "},"H":{"ha":764,"x_min":0,"x_max":0,"o":"m 49 0 l 223 0 l 223 465 l 542 465 l 542 0 l 714 0 l 714 972 l 542 972 l 542 509 l 450 509 b 223 755 311 509 223 627 l 223 972 l 49 972 z "},"I":{"ha":272,"x_min":0,"x_max":0,"o":"m 49 0 l 223 0 l 223 972 l 49 972 z "},"J":{"ha":593,"x_min":0,"x_max":0,"o":"m 553 562 l 553 972 l 379 972 l 379 538 b 358 165 379 448 386 233 b -14 160 288 -5 98 10 l -14 97 b 553 329 202 -115 553 45 l 553 562 z "},"K":{"ha":713,"x_min":0,"x_max":0,"o":"m 49 972 l 49 0 l 223 0 l 223 290 l 338 450 l 542 0 l 717 0 l 445 596 l 714 972 l 640 972 l 345 565 b 223 621 309 515 223 448 l 223 972 z "},"L":{"ha":696,"x_min":0,"x_max":0,"o":"m 49 972 l 49 0 l 716 0 l 716 43 l 450 43 b 223 291 311 43 223 162 l 223 972 z "},"M":{"ha":943,"x_min":0,"x_max":0,"o":"m 49 972 l 49 0 l 223 0 l 223 609 b 319 640 223 733 249 783 b 430 403 355 560 392 481 l 516 403 l 719 850 l 719 0 b 893 0 778 0 836 0 l 893 972 l 719 972 l 511 526 b 431 526 495 493 447 493 l 223 972 z "},"N":{"ha":811,"x_min":0,"x_max":0,"o":"m 49 972 l 49 0 l 223 0 l 223 869 l 586 0 b 762 0 645 0 704 0 l 762 972 l 586 972 l 586 346 b 493 329 586 269 557 178 l 223 972 z "},"O":{"ha":726,"x_min":0,"x_max":0,"o":"m 362 972 b 29 638 179 972 29 822 l 29 333 b 362 0 29 150 179 0 b 696 333 546 0 696 150 l 696 638 b 362 972 696 822 546 972 z m 526 207 b 200 207 526 -9 200 -9 l 200 767 b 362 929 200 855 272 929 b 526 767 453 929 526 855 l 526 207 z "},"P":{"ha":717,"x_min":0,"x_max":0,"o":"m 476 972 l 49 972 l 49 0 l 223 0 l 223 465 b 714 733 431 465 714 429 b 476 972 714 865 607 972 z m 343 536 b 223 929 199 617 223 786 l 383 929 b 343 536 548 914 535 428 z "},"Q":{"ha":729,"x_min":0,"x_max":0,"o":"m 696 638 b 364 972 696 822 546 972 b 29 638 179 972 29 822 l 29 333 b 569 72 29 55 353 -102 b 696 0 662 -9 636 0 l 591 91 b 696 333 655 152 696 238 z m 517 153 l 424 234 l 379 234 l 505 126 b 200 207 422 -21 200 40 l 200 767 b 526 767 200 979 526 981 b 517 153 526 672 534 209 z "},"R":{"ha":744,"x_min":0,"x_max":0,"o":"m 474 486 b 476 972 790 486 792 972 l 49 972 l 49 0 l 221 0 l 221 465 l 381 465 b 497 0 530 465 497 117 l 712 0 l 712 279 b 474 486 697 395 595 486 z m 357 527 b 221 755 273 565 221 658 l 221 929 l 383 929 b 357 527 549 914 530 450 z "},"S":{"ha":688,"x_min":0,"x_max":0,"o":"m 11 733 b 342 465 11 495 191 465 b 344 43 492 465 498 50 l 10 43 l 10 0 l 220 0 b 677 269 408 0 677 -26 b 437 509 677 400 568 509 l 342 509 b 342 929 189 522 189 914 l 677 929 l 677 972 l 249 972 b 11 733 118 972 11 865 z "},"T":{"ha":626,"x_min":0,"x_max":0,"o":"m -21 972 l -21 929 l 227 929 l 227 0 l 400 0 l 400 681 b 646 929 400 819 488 929 l 646 972 z "},"U":{"ha":742,"x_min":0,"x_max":0,"o":"m 703 972 l 535 972 l 535 207 b 210 207 535 -9 210 -9 l 210 972 l 39 972 l 39 333 b 372 0 39 150 189 0 b 703 333 556 0 703 150 z "},"V":{"ha":657,"x_min":0,"x_max":0,"o":"m 240 0 l 414 0 l 664 972 l 489 972 l 284 171 b 241 171 279 148 246 148 l 40 972 l -7 972 z "},"W":{"ha":1281,"x_min":0,"x_max":0,"o":"m 862 0 l 1036 0 b 1288 972 1096 238 1224 736 l 1112 972 l 905 165 b 864 165 900 145 869 145 l 660 972 l 484 972 l 279 165 b 238 165 274 145 243 145 l 36 972 l -7 972 l 238 0 l 410 0 b 636 886 465 212 567 629 z "},"X":{"ha":679,"x_min":0,"x_max":0,"o":"m 162 0 l 379 388 l 610 0 l 657 0 l 400 429 b 691 972 452 524 639 877 l 517 972 l 350 662 b 264 660 331 627 283 626 l 79 972 l 33 972 l 286 543 b -14 0 233 445 43 97 z "},"Y":{"ha":646,"x_min":0,"x_max":0,"o":"m 304 655 b 216 655 285 622 236 622 l 26 972 l -22 972 b 236 541 21 914 198 603 l 235 0 l 409 0 b 410 543 409 181 409 362 b 666 972 450 609 624 907 l 488 972 z "},"Z":{"ha":774,"x_min":0,"x_max":0,"o":"m 31 972 l 31 929 l 538 929 l -15 0 l 783 0 l 783 43 l 329 43 b 281 128 286 43 259 90 l 783 972 z "},"[":{"ha":272,"x_min":0,"x_max":0,"o":"m 49 -84 b 440 -84 180 -84 311 -84 l 440 -41 l 223 -41 l 223 1014 l 440 1014 l 440 1057 l 49 1057 z "},"\\":{"ha":663,"x_min":0,"x_max":0,"o":"m 263 1024 l 69 1024 l 400 -50 l 592 -50 l 435 464 z "},"]":{"ha":269,"x_min":0,"x_max":0,"o":"m 220 1057 l -171 1057 l -171 1014 l 48 1014 l 48 -41 l -171 -41 l -171 -84 b 220 -84 -40 -84 91 -84 z "},"^":{"ha":349,"x_min":0,"x_max":0,"o":"m 29 750 l 74 750 l 108 860 l 145 750 l 319 750 l 262 972 l 86 972 z "},"_":{"ha":619,"x_min":0,"x_max":0,"o":"m 587 0 l 587 174 l 32 174 l 32 0 z "},"a":{"ha":724,"x_min":0,"x_max":0,"o":"m 680 515 b 87 555 680 669 320 784 l 87 491 b 508 541 299 715 484 614 l 508 507 b 17 246 323 507 17 538 b 255 0 17 110 117 0 l 684 0 l 684 514 z m 405 78 b 348 464 198 -62 177 448 l 508 464 b 405 78 508 317 532 165 z "},"b":{"ha":739,"x_min":0,"x_max":0,"o":"m 705 483 b 219 683 658 712 398 683 l 219 972 l 44 972 l 44 0 l 472 0 b 710 246 610 0 710 110 b 705 483 710 269 710 464 z m 493 243 b 324 78 491 140 448 -5 b 219 290 256 122 219 203 l 219 640 b 493 243 437 640 510 679 z "},"c":{"ha":599,"x_min":0,"x_max":0,"o":"m 584 521 l 584 586 b 17 328 380 788 17 660 b 584 88 17 31 377 -122 l 584 153 b 287 159 472 0 348 16 b 289 517 249 243 253 434 b 584 521 360 688 486 643 z "},"d":{"ha":740,"x_min":0,"x_max":0,"o":"m 519 972 l 519 683 b 33 483 340 683 79 712 b 28 247 28 464 28 269 b 266 0 28 110 128 0 l 695 0 l 695 972 z m 519 290 b 414 78 519 203 481 122 b 245 243 290 -5 248 140 b 519 640 228 679 300 640 z "},"e":{"ha":718,"x_min":0,"x_max":0,"o":"m 701 434 b 462 683 701 571 601 683 b 34 162 -4 683 34 691 l 36 160 b 324 -10 38 45 194 -9 b 631 121 448 -12 544 33 l 631 184 b 210 134 418 -43 232 60 l 210 169 b 701 434 398 169 701 138 z m 210 553 b 368 640 210 646 306 643 b 368 212 522 624 522 228 l 210 212 z "},"f":{"ha":535,"x_min":0,"x_max":0,"o":"m 339 683 b 118 438 209 674 118 567 l 118 257 l -3 257 l -3 209 l 118 209 l 118 -290 l 292 -290 l 292 209 l 456 209 l 456 257 b 292 484 380 257 307 286 b 538 640 301 645 395 640 l 540 683 z "},"g":{"ha":710,"x_min":0,"x_max":0,"o":"m 665 683 b 30 450 401 683 56 736 b 30 215 27 429 27 234 b 491 0 67 -40 301 0 l 491 -133 b 29 -247 463 -290 199 -247 l 29 -290 l 446 -290 b 666 -43 575 -279 666 -172 z m 491 291 b 353 45 491 207 489 43 b 246 438 217 45 244 357 b 360 640 248 536 286 633 b 491 453 498 646 479 453 l 491 291 z "},"h":{"ha":683,"x_min":0,"x_max":0,"o":"m 429 398 l 431 398 l 431 0 l 646 0 l 643 483 b 219 683 599 695 377 683 l 219 972 l 44 972 l 44 0 l 219 0 l 219 391 b 384 598 219 669 367 615 b 429 398 429 552 427 479 z "},"i":{"ha":264,"x_min":0,"x_max":0,"o":"m 131 743 b 131 917 244 743 244 917 b 131 743 17 917 17 743 z m 44 683 l 44 0 l 219 0 l 219 683 z "},"j":{"ha":265,"x_min":0,"x_max":0,"o":"m 132 743 b 132 917 247 743 247 917 b 132 743 18 917 18 743 z m 44 683 l 44 3 b 2 -207 44 -76 59 -147 b -239 -247 -53 -267 -134 -247 l -239 -290 l -1 -290 b 220 -43 127 -279 220 -172 l 220 683 z "},"k":{"ha":664,"x_min":0,"x_max":0,"o":"m 44 0 l 220 0 l 219 298 l 460 0 l 670 0 l 301 417 l 622 683 l 541 683 l 274 459 b 219 484 253 440 219 455 l 219 972 l 44 972 z "},"l":{"ha":264,"x_min":0,"x_max":0,"o":"m 44 0 l 219 0 l 219 972 l 44 972 z "},"m":{"ha":1199,"x_min":0,"x_max":0,"o":"m 217 631 b 215 683 215 646 215 660 l 44 683 l 44 0 l 217 0 b 217 450 217 162 217 288 b 336 617 217 536 288 603 b 539 541 424 643 508 634 l 539 0 l 713 0 l 713 453 b 753 608 713 565 701 588 b 986 541 851 645 951 645 l 986 0 l 1160 0 l 1160 514 b 870 683 1160 514 1156 681 b 648 624 786 684 713 665 b 217 631 539 700 343 703 z "},"n":{"ha":753,"x_min":0,"x_max":0,"o":"m 215 631 b 215 683 215 648 215 665 l 44 683 l 44 0 l 219 0 l 219 453 b 303 607 219 502 238 581 b 541 541 403 643 505 646 l 541 0 l 713 0 l 713 515 b 215 631 712 669 406 740 z "},"o":{"ha":701,"x_min":0,"x_max":0,"o":"m 351 683 b 17 343 167 683 17 531 b 351 -14 17 136 163 -14 b 684 326 534 -14 684 140 b 351 683 684 533 537 683 z m 496 188 b 203 188 496 -24 203 -21 l 203 464 b 351 640 203 555 261 640 b 496 464 439 640 496 555 l 496 188 z "},"p":{"ha":685,"x_min":0,"x_max":0,"o":"m 417 683 b 44 683 293 683 169 683 l 44 -290 l 219 -290 l 219 0 b 655 231 387 0 632 -21 b 656 443 656 243 656 431 b 417 683 656 576 548 683 z m 439 241 b 219 140 434 -19 219 14 l 219 640 l 324 640 b 439 241 462 633 441 350 z "},"q":{"ha":685,"x_min":0,"x_max":0,"o":"m 267 683 b 28 443 136 683 28 576 b 29 231 28 431 28 243 b 466 0 52 -21 297 0 l 466 -290 l 640 -290 l 640 683 b 267 683 516 683 391 683 z m 466 140 b 245 241 466 14 250 -19 b 360 640 243 350 223 633 l 466 640 l 466 140 z "},"r":{"ha":632,"x_min":0,"x_max":0,"o":"m 217 683 l 44 683 l 44 0 l 219 0 l 219 564 b 577 583 331 629 448 672 l 641 629 b 217 631 527 700 341 702 z "},"s":{"ha":642,"x_min":0,"x_max":0,"o":"m 20 515 b 128 343 20 386 53 369 b 323 317 189 321 261 317 b 309 59 458 314 446 60 b 18 59 180 59 104 59 l 18 -2 b 327 -2 84 -2 209 -2 b 623 179 471 -2 623 53 b 516 350 623 305 590 324 b 321 377 456 372 382 377 b 311 624 185 377 218 612 b 625 624 440 624 537 624 l 625 683 b 259 683 504 683 382 683 b 20 515 170 683 20 645 z "},"t":{"ha":676,"x_min":0,"x_max":0,"o":"m 683 -2 l 683 59 b 325 260 513 59 325 12 l 325 640 l 518 640 l 518 683 b 325 972 451 721 325 710 l 152 972 l 152 683 l -10 683 l -10 640 l 152 640 l 152 169 b 683 -2 154 -36 519 -2 z "},"u":{"ha":753,"x_min":0,"x_max":0,"o":"m 708 -2 l 708 683 l 534 683 l 534 300 b 212 141 534 40 236 -10 l 212 683 l 37 683 l 39 167 b 339 -2 39 48 206 -2 z "},"v":{"ha":557,"x_min":0,"x_max":0,"o":"m 208 0 l 382 0 l 556 683 l 382 683 l 245 147 b 209 147 240 128 214 128 l 45 683 l -3 683 z "},"w":{"ha":1001,"x_min":0,"x_max":0,"o":"m 350 683 l 217 162 b 176 162 210 141 181 141 l 44 683 l 1 683 l 172 0 l 346 0 b 500 596 382 145 443 379 l 651 0 l 825 0 b 1001 683 867 164 939 445 l 827 683 l 694 162 b 653 162 689 141 658 141 l 520 683 z "},"x":{"ha":560,"x_min":0,"x_max":0,"o":"m 159 279 b 0 0 150 260 12 19 l 179 0 b 321 255 184 10 315 245 l 509 0 l 558 0 b 340 291 541 22 357 267 l 558 683 l 379 683 b 269 478 374 674 307 548 b 214 474 257 457 228 453 l 53 683 l 3 683 l 224 393 z "},"y":{"ha":704,"x_min":0,"x_max":0,"o":"m 440 -290 b 660 -43 569 -279 660 -172 l 659 683 l 486 683 l 486 300 b 305 57 486 186 417 81 b 212 141 259 67 219 97 l 212 683 l 38 683 l 38 169 b 328 0 38 169 42 3 l 486 0 l 486 -133 b 316 -248 447 -236 392 -250 l 35 -246 l 35 -290 z "},"z":{"ha":624,"x_min":0,"x_max":0,"o":"m 35 683 l 35 640 l 380 640 l -3 0 l 597 0 l 597 43 l 326 43 b 283 114 285 43 266 84 l 626 683 z "},"{":{"ha":439,"x_min":0,"x_max":0,"o":"m 218 1014 b 129 567 218 795 258 674 b 142 393 49 502 46 479 b 218 -84 258 288 218 143 b 609 -84 349 -84 480 -84 b 609 -41 609 -71 609 -55 b 392 -41 537 -41 465 -41 b 392 212 392 53 392 117 b 299 486 392 367 330 405 b 392 729 330 567 392 605 b 392 1014 392 824 392 919 b 609 1014 465 1014 537 1014 b 609 1057 609 1027 609 1041 l 218 1057 b 218 1014 218 1041 218 1027 z "},"|":{"ha":272,"x_min":0,"x_max":0,"o":"m 223 -102 l 223 1074 l 49 1074 l 49 -102 z "},"}":{"ha":438,"x_min":0,"x_max":0,"o":"m 219 1057 l -174 1057 b -174 1014 -174 1041 -174 1027 b 45 1014 -99 1014 -27 1014 b 45 729 45 919 45 824 b 138 486 45 605 107 567 b 45 212 107 405 45 367 b 45 -41 45 117 45 53 b -174 -41 -27 -41 -99 -41 b -174 -84 -174 -55 -174 -71 b 219 -84 -43 -84 88 -84 b 295 393 219 143 180 288 b 309 567 390 479 388 502 b 219 1014 180 674 219 795 b 219 1057 219 1027 219 1041 z "},"~":{"ha":615,"x_min":0,"x_max":0,"o":"m 133 755 b 217 829 147 800 164 829 b 407 740 278 829 304 740 b 586 886 504 740 566 805 l 481 914 b 454 864 476 895 467 876 b 217 938 379 803 342 938 b 28 786 111 938 55 874 z "},"":{"ha":410,"x_min":0,"x_max":0,"o":""},"":{"ha":269,"x_min":0,"x_max":0,"o":"m 47 0 l 221 0 l 221 771 l 47 771 z m 135 972 b 135 800 20 972 20 800 b 135 972 249 800 249 972 z "},"":{"ha":635,"x_min":0,"x_max":0,"o":"m 610 812 l 610 877 b 479 957 571 915 526 941 l 479 1086 l 305 1086 l 305 965 b 43 640 164 933 43 810 l 43 334 b 305 9 43 164 164 41 l 305 -112 l 479 -112 l 479 16 b 610 97 526 31 571 59 l 610 162 b 238 167 502 15 312 -9 b 240 810 203 250 205 727 b 610 812 314 983 503 957 z "},"":{"ha":883,"x_min":0,"x_max":0,"o":"m 24 0 l 813 0 l 813 43 l 306 43 b 310 362 305 126 306 250 l 530 362 l 530 407 l 311 407 b 332 627 317 514 324 605 b 703 631 403 795 591 779 l 703 695 b 136 457 491 903 136 750 l 136 407 l 24 407 l 24 362 l 136 362 l 136 43 l 24 43 z "},"":{"ha":715,"x_min":0,"x_max":0,"o":"m 524 972 b 62 972 257 515 335 517 l 14 972 b 272 541 55 915 235 605 l 271 415 l 55 415 l 55 372 l 271 372 l 271 260 l 55 260 l 55 217 l 271 217 l 271 0 l 445 0 b 445 217 445 72 445 145 l 659 217 l 659 260 l 445 260 b 445 372 445 298 445 334 l 659 372 l 659 415 l 445 415 b 447 543 447 459 447 502 b 702 972 486 610 660 908 z "},"":{"ha":690,"x_min":0,"x_max":0,"o":"m 333 914 b 649 914 464 914 561 914 l 649 972 b 283 972 526 972 404 972 b 44 807 194 972 44 934 b 139 643 44 688 71 665 b 44 507 85 617 44 576 b 101 359 44 414 61 381 b 388 302 190 305 287 295 b 332 59 447 290 480 60 b 40 59 202 59 128 59 l 40 0 b 349 0 107 0 232 0 b 645 178 494 0 645 53 b 551 341 645 293 618 317 b 606 614 702 417 642 588 b 278 698 483 696 328 646 b 333 914 235 758 247 891 z m 326 612 b 345 612 333 612 338 612 b 382 372 482 610 447 388 b 326 612 199 353 237 583 z "},"":{"ha":760,"x_min":0,"x_max":0,"o":"m 633 772 b 332 858 538 867 449 858 b 40 567 171 858 40 727 b 126 195 40 419 21 300 b 428 109 221 100 311 109 b 719 400 588 109 719 240 b 633 772 719 548 738 667 z m 595 233 b 332 164 514 153 433 164 b 95 400 202 164 95 271 b 164 734 95 534 76 645 b 428 803 245 814 326 803 b 664 567 557 803 664 698 b 595 233 664 433 683 322 z m 135 477 b 392 217 135 334 251 217 b 573 293 463 217 526 246 l 573 343 b 344 346 487 226 392 236 b 345 622 316 412 318 558 b 573 626 400 753 497 719 l 573 676 b 135 477 416 831 135 733 z "},"":{"ha":822,"x_min":0,"x_max":0,"o":"m 141 364 l 279 224 l 403 348 l 263 486 l 403 626 l 279 748 l 17 486 z m 527 364 l 665 224 l 789 348 l 649 486 l 789 626 l 665 748 l 403 486 z "},"":{"ha":0,"x_min":0,"x_max":0,"o":""},"":{"ha":293,"x_min":0,"x_max":0,"o":"m 146 957 b 146 726 -6 957 -6 726 b 146 957 299 726 299 957 z m 94 771 b 94 910 41 814 51 877 z m 113 758 l 122 758 l 122 834 b 166 758 166 834 166 839 l 177 758 b 113 758 158 750 135 750 z m 122 910 b 147 841 199 910 160 843 b 122 910 116 841 122 841 z m 203 774 b 163 838 203 802 201 838 b 103 917 194 838 265 921 b 203 774 191 972 289 848 z "},"":{"ha":363,"x_min":0,"x_max":0,"o":"m 181 972 b 181 674 -16 972 -16 674 b 181 972 377 674 377 972 z m 127 769 b 234 877 57 841 163 948 b 127 769 307 807 198 698 z "},"":{"ha":632,"x_min":0,"x_max":0,"o":"m 39 0 l 592 0 l 592 174 l 39 174 z m 403 574 l 403 764 l 229 764 l 229 574 l 39 574 l 39 400 l 229 400 l 229 210 l 403 210 l 403 400 l 592 400 l 592 574 z "},"":{"ha":282,"x_min":0,"x_max":0,"o":"m 248 647 b 151 647 207 647 191 647 b 109 687 128 647 109 668 b 153 771 109 729 110 757 b 248 857 217 792 248 772 b 35 859 248 1018 35 1018 l 95 859 b 142 963 95 898 87 963 b 187 859 198 963 186 894 b 35 631 192 724 35 866 l 248 631 z "},"":{"ha":258,"x_min":0,"x_max":0,"o":"m 121 965 b 167 869 174 965 167 906 b 99 818 167 818 135 815 l 99 793 b 167 743 135 797 167 793 b 121 646 167 705 174 646 b 78 675 96 646 84 658 l 29 675 b 222 720 66 611 219 607 b 170 806 223 756 214 791 b 222 891 214 821 223 856 b 29 936 219 1005 66 1001 l 78 936 b 121 965 84 953 96 965 z "},"":{"ha":231,"x_min":0,"x_max":0,"o":"m 115 591 b 115 417 1 591 1 417 b 115 591 230 417 230 591 z "},"":{"ha":186,"x_min":0,"x_max":0,"o":"m 28 978 l 28 963 l 86 963 l 86 631 l 148 631 l 148 978 z "},"":{"ha":819,"x_min":0,"x_max":0,"o":"m 803 486 l 540 748 l 416 626 l 556 486 l 416 348 l 540 224 l 680 364 z m 416 486 l 154 748 l 32 626 l 170 486 l 32 348 l 154 224 l 294 364 z "},"":{"ha":746,"x_min":0,"x_max":0,"o":"m 344 800 b 344 972 457 800 457 972 b 344 800 230 972 230 800 z m 257 771 l 257 696 b 26 284 257 567 26 517 b 676 334 26 -117 676 -86 l 676 396 l 507 396 l 507 205 b 182 205 507 -7 182 -7 b 426 684 182 550 426 540 l 426 771 z "},"":{"ha":661,"x_min":0,"x_max":0,"o":"m 396 1048 l 345 1251 l 172 1251 l 222 1048 z m 419 972 l 246 972 l -7 0 l 45 0 l 95 207 l 441 207 l 495 0 l 667 0 z m 314 248 l 107 248 l 267 886 l 402 364 b 314 248 417 305 372 248 z "},"":{"ha":661,"x_min":0,"x_max":0,"o":"m 467 1251 l 293 1251 l 243 1048 l 415 1048 z m 419 972 l 245 972 l -7 0 l 43 0 l 93 207 l 440 207 l 493 0 l 667 0 z m 312 248 l 107 248 l 267 886 l 400 364 b 312 248 415 305 372 248 z "},"":{"ha":661,"x_min":0,"x_max":0,"o":"m 331 1231 l 376 1048 l 550 1048 l 498 1251 l 162 1251 l 110 1048 l 284 1048 z m 419 972 l 245 972 l -7 0 l 43 0 l 93 207 l 441 207 l 493 0 l 667 0 z m 312 248 l 107 248 l 267 886 l 402 364 b 312 248 415 305 372 248 z "},"":{"ha":661,"x_min":0,"x_max":0,"o":"m 402 1048 b 534 1157 474 1048 519 1096 l 457 1176 b 262 1195 426 1058 345 1195 b 122 1083 183 1195 143 1148 l 200 1058 b 402 1048 240 1189 324 1048 z m 419 972 l 246 972 l -7 0 l 45 0 l 95 207 l 441 207 l 495 0 l 667 0 z m 314 248 l 107 248 l 267 886 l 402 364 b 314 248 417 305 372 248 z "},"":{"ha":661,"x_min":0,"x_max":0,"o":"m 436 1048 b 436 1222 552 1048 552 1222 b 436 1048 322 1222 322 1048 z m 203 1048 b 203 1222 319 1048 319 1222 b 203 1048 90 1222 90 1048 z m 419 972 l 245 972 l -7 0 l 43 0 l 93 207 l 440 207 l 493 0 l 667 0 z m 312 248 l 107 248 l 267 886 l 400 364 b 312 248 415 305 372 248 z "},"":{"ha":661,"x_min":0,"x_max":0,"o":"m 329 1048 b 329 1300 496 1048 496 1300 b 329 1048 164 1300 164 1048 z m 376 1219 b 284 1129 436 1160 345 1069 b 376 1219 224 1188 315 1279 z m 419 972 l 245 972 l -7 0 l 43 0 l 93 207 l 441 207 l 493 0 l 667 0 z m 312 248 l 107 248 l 267 886 l 402 364 b 312 248 415 305 372 248 z "},"":{"ha":1143,"x_min":0,"x_max":0,"o":"m 1154 929 l 1154 972 b 487 972 1098 972 544 972 l -19 0 l 31 0 l 134 207 l 482 207 l 480 0 l 1154 0 l 1154 43 l 737 43 b 663 119 696 43 663 78 l 663 465 l 949 465 l 949 509 l 737 509 b 663 584 696 509 663 543 l 663 929 z m 484 364 b 365 248 482 305 425 248 l 160 248 l 486 886 z "},"":{"ha":600,"x_min":0,"x_max":0,"o":"m 596 812 l 596 876 b 29 638 384 1084 29 931 l 29 333 b 277 12 29 169 143 48 b 233 -114 269 -34 253 -78 b 446 10 357 -84 420 -36 b 596 97 500 24 551 52 l 596 160 b 462 55 558 109 510 72 b 286 79 470 174 300 193 b 226 165 262 100 241 129 b 226 808 189 250 191 727 b 596 812 298 976 486 962 z "},"":{"ha":706,"x_min":0,"x_max":0,"o":"m 495 1048 l 443 1251 l 271 1251 l 321 1048 z m 716 972 l 49 972 l 49 0 l 716 0 l 716 43 l 299 43 b 224 119 257 43 224 78 l 224 465 l 511 465 l 511 509 b 224 929 168 509 224 450 l 716 929 z "},"":{"ha":706,"x_min":0,"x_max":0,"o":"m 562 1251 l 390 1251 l 338 1048 l 512 1048 z m 716 972 l 49 972 l 49 0 l 716 0 l 716 43 l 299 43 b 223 119 257 43 223 78 l 223 465 l 509 465 l 509 509 b 223 929 168 509 223 450 l 716 929 z "},"":{"ha":704,"x_min":0,"x_max":0,"o":"m 381 1231 l 428 1048 l 600 1048 l 550 1251 b 212 1251 438 1251 324 1251 l 162 1048 l 335 1048 z m 714 972 l 49 972 l 49 0 l 714 0 l 714 43 l 299 43 b 223 119 257 43 223 78 l 223 465 l 509 465 l 509 509 b 223 929 168 509 223 450 l 714 929 z "},"":{"ha":706,"x_min":0,"x_max":0,"o":"m 505 1048 b 505 1222 619 1048 619 1222 b 505 1048 392 1222 392 1048 z m 273 1048 b 273 1222 386 1048 386 1222 b 273 1048 159 1222 159 1048 z m 716 972 l 49 972 l 49 0 l 716 0 l 716 43 l 299 43 b 223 119 257 43 223 78 l 223 465 l 509 465 l 509 509 b 223 929 168 509 223 450 l 716 929 z "},"":{"ha":272,"x_min":0,"x_max":0,"o":"m 167 1251 l -7 1251 l 45 1048 l 217 1048 z m 48 972 l 48 0 l 222 0 l 222 972 z "},"":{"ha":272,"x_min":0,"x_max":0,"o":"m 49 0 l 223 0 l 223 972 l 49 972 z m 105 1251 l 56 1048 l 228 1048 l 280 1251 z "},"":{"ha":271,"x_min":0,"x_max":0,"o":"m 136 1231 l 180 1048 l 355 1048 l 305 1251 l -33 1251 l -83 1048 l 89 1048 z m 48 0 l 222 0 l 222 972 l 48 972 z "},"":{"ha":272,"x_min":0,"x_max":0,"o":"m 48 0 l 222 0 l 222 972 l 48 972 z m 26 1222 b 26 1048 -90 1222 -90 1048 b 26 1222 139 1048 139 1222 z m 257 1222 b 257 1048 143 1222 143 1048 b 257 1222 372 1048 372 1222 z "},"":{"ha":854,"x_min":0,"x_max":0,"o":"m 493 972 l 155 972 l 155 574 l 0 574 l 0 398 l 155 398 l 155 0 l 491 0 b 824 333 672 0 824 148 l 824 638 b 493 972 824 826 671 972 z m 631 165 b 329 140 560 -5 329 12 l 329 398 l 486 398 l 486 574 l 329 574 l 329 929 b 629 808 459 929 567 953 b 631 165 664 727 664 250 z "},"":{"ha":811,"x_min":0,"x_max":0,"o":"m 480 1048 b 612 1157 550 1048 597 1096 l 533 1176 b 340 1195 504 1058 423 1195 b 200 1083 261 1195 219 1148 l 278 1058 b 480 1048 318 1189 402 1048 z m 588 972 l 588 214 b 545 205 588 190 555 183 l 223 972 l 49 972 l 49 0 l 223 0 l 223 869 l 588 0 b 762 0 647 0 704 0 l 762 972 z "},"":{"ha":725,"x_min":0,"x_max":0,"o":"m 450 1048 l 398 1251 l 226 1251 l 276 1048 z m 362 972 b 29 638 179 972 29 822 l 29 333 b 362 0 29 150 179 0 b 696 333 545 0 696 150 l 696 638 b 362 972 696 822 545 972 z m 526 207 b 198 207 526 -9 198 -9 l 198 767 b 362 929 198 855 272 929 b 526 767 452 929 526 855 z "},"":{"ha":725,"x_min":0,"x_max":0,"o":"m 491 1251 l 319 1251 l 267 1048 l 441 1048 z m 362 972 b 29 638 179 972 29 822 l 29 333 b 362 0 29 150 179 0 b 695 333 545 0 695 150 l 695 638 b 362 972 695 822 545 972 z m 526 207 b 198 207 526 -9 198 -9 l 198 767 b 362 929 198 855 272 929 b 526 767 452 929 526 855 z "},"":{"ha":725,"x_min":0,"x_max":0,"o":"m 357 1231 l 403 1048 l 576 1048 l 526 1251 b 188 1251 414 1251 302 1251 l 138 1048 l 312 1048 z m 362 972 b 29 638 179 972 29 822 l 29 333 b 362 0 29 150 179 0 b 696 333 545 0 696 150 l 696 638 b 362 972 696 822 545 972 z m 526 207 b 198 207 526 -9 198 -9 l 198 767 b 362 929 198 855 272 929 b 526 767 451 929 526 855 l 526 207 z "},"":{"ha":725,"x_min":0,"x_max":0,"o":"m 436 1048 b 569 1157 508 1048 553 1096 l 491 1176 b 296 1195 460 1058 379 1195 b 157 1083 217 1195 177 1148 l 234 1058 b 436 1048 274 1189 358 1048 z m 362 972 b 29 638 179 972 29 822 l 29 333 b 362 0 29 150 179 0 b 696 333 545 0 696 150 l 696 638 b 362 972 696 822 545 972 z m 526 207 b 200 207 526 -9 200 -9 l 200 767 b 362 929 200 855 272 929 b 526 767 452 929 526 855 l 526 207 z "},"":{"ha":725,"x_min":0,"x_max":0,"o":"m 234 1048 b 234 1222 348 1048 348 1222 b 234 1048 119 1222 119 1048 z m 467 1048 b 467 1222 581 1048 581 1222 b 467 1048 352 1222 352 1048 z m 362 972 b 29 638 179 972 29 822 l 29 333 b 362 0 29 150 179 0 b 696 333 545 0 696 150 l 696 638 b 362 972 696 822 545 972 z m 526 207 b 198 207 526 -9 198 -9 l 198 767 b 362 929 198 855 272 929 b 526 767 451 929 526 855 l 526 207 z "},"":{"ha":581,"x_min":0,"x_max":0,"o":"m 547 621 l 423 743 l 289 608 l 156 743 l 32 621 l 166 486 l 32 352 l 156 229 l 289 364 l 423 229 l 547 352 l 413 486 z "},"":{"ha":728,"x_min":0,"x_max":0,"o":"m 570 900 l 602 972 l 559 972 l 537 924 b 30 638 316 1058 30 898 b 158 71 30 403 -8 202 l 127 0 l 170 0 l 190 48 b 697 333 411 -86 697 74 b 570 900 697 569 735 769 z m 201 767 b 363 929 201 855 273 929 b 504 848 423 929 475 896 l 203 172 z m 223 119 l 523 796 l 527 207 b 223 119 527 26 296 -3 z "},"":{"ha":740,"x_min":0,"x_max":0,"o":"m 482 1048 l 432 1251 l 258 1251 l 308 1048 z m 534 972 l 534 207 b 208 207 534 -9 208 -9 l 208 972 l 39 972 l 39 333 b 372 0 39 150 187 0 b 701 333 554 0 701 150 l 701 972 z "},"":{"ha":742,"x_min":0,"x_max":0,"o":"m 482 1251 l 310 1251 l 258 1048 l 432 1048 z m 535 972 l 535 207 b 210 207 535 -9 210 -9 l 210 972 l 39 972 l 39 333 b 373 0 39 150 189 0 b 703 333 556 0 703 150 l 703 972 z "},"":{"ha":742,"x_min":0,"x_max":0,"o":"m 372 1231 l 416 1048 l 591 1048 l 541 1251 l 203 1251 l 153 1048 l 325 1048 z m 535 972 l 535 207 b 210 207 535 -9 210 -9 l 210 972 l 39 972 l 39 333 b 373 0 39 150 189 0 b 703 333 556 0 703 150 l 703 972 z "},"":{"ha":742,"x_min":0,"x_max":0,"o":"m 487 1048 b 487 1222 601 1048 601 1222 b 487 1048 372 1222 372 1048 z m 254 1048 b 254 1222 368 1048 368 1222 b 254 1048 141 1222 141 1048 z m 535 972 l 535 207 b 210 207 535 -9 210 -9 l 210 972 l 39 972 l 39 333 b 373 0 39 150 189 0 b 703 333 556 0 703 150 l 703 972 z "},"":{"ha":646,"x_min":0,"x_max":0,"o":"m 404 1251 l 229 1251 l 179 1048 l 354 1048 z m 488 972 b 26 972 221 515 298 517 l -22 972 b 236 541 21 915 198 605 l 235 0 l 409 0 b 410 543 409 181 409 362 b 666 972 450 610 624 907 z "},"":{"ha":653,"x_min":0,"x_max":0,"o":"m 223 822 l 223 972 l 49 972 l 49 0 l 223 0 l 223 150 b 645 500 411 97 645 217 b 223 822 645 734 421 877 z m 449 303 b 223 190 404 197 312 162 l 223 783 b 449 303 493 865 507 445 z "},"":{"ha":675,"x_min":0,"x_max":0,"o":"m 305 926 b 43 667 69 926 43 712 l 43 38 l 202 38 l 202 696 b 348 886 202 762 210 886 b 348 502 488 886 490 515 l 348 462 b 252 10 495 448 479 22 l 252 -29 b 652 264 527 -29 652 65 b 434 483 652 383 553 483 b 652 707 560 483 652 583 b 434 926 652 827 555 926 z "},"":{"ha":724,"x_min":0,"x_max":0,"o":"m 680 514 b 87 555 680 669 320 784 l 87 490 b 508 541 299 715 484 614 l 508 507 b 17 247 324 507 17 538 b 255 0 17 110 117 0 l 684 0 l 684 514 z m 508 105 b 348 43 508 31 417 40 b 348 464 196 57 196 448 l 508 464 z m 503 750 l 451 953 l 277 953 l 329 750 z "},"":{"ha":722,"x_min":0,"x_max":0,"o":"m 489 953 l 315 953 l 265 750 l 437 750 z m 680 514 b 86 555 679 669 318 784 l 86 490 b 508 541 299 715 484 614 l 508 507 b 17 247 322 507 17 538 b 255 0 17 110 117 0 l 682 0 l 682 514 z m 508 105 b 348 43 508 31 415 40 b 348 464 194 57 194 448 l 508 464 z "},"":{"ha":722,"x_min":0,"x_max":0,"o":"m 398 933 l 444 750 l 617 750 l 567 953 l 229 953 l 179 750 l 353 750 z m 680 514 b 87 555 679 669 320 784 l 87 490 b 508 541 299 715 484 614 l 508 507 b 17 247 324 507 17 538 b 255 0 17 110 117 0 l 682 0 l 682 514 z m 508 105 b 348 43 508 31 417 40 b 348 464 194 57 194 448 l 508 464 z "},"":{"ha":724,"x_min":0,"x_max":0,"o":"m 682 514 b 87 555 680 669 320 784 l 87 490 b 510 541 301 715 486 614 l 510 507 b 17 247 324 507 17 538 b 256 0 17 110 117 0 l 684 0 l 684 514 z m 510 105 b 349 43 510 31 417 40 b 349 464 196 57 196 448 l 510 464 z m 423 750 b 556 857 496 750 541 796 l 479 877 b 284 895 448 760 367 895 b 144 783 205 895 165 848 l 222 760 b 423 750 261 891 346 750 z "},"":{"ha":724,"x_min":0,"x_max":0,"o":"m 504 750 b 504 922 620 750 620 922 b 504 750 391 922 391 750 z m 682 514 b 87 555 680 669 320 784 l 87 490 b 508 541 299 715 486 614 l 508 507 b 17 247 324 507 17 538 b 256 0 17 110 117 0 l 684 0 l 684 514 z m 508 105 b 348 43 508 31 417 40 b 348 464 196 57 196 448 l 508 464 z m 274 750 b 274 922 387 750 387 922 b 274 750 158 922 158 750 z "},"":{"ha":724,"x_min":0,"x_max":0,"o":"m 351 750 b 351 1002 517 750 517 1002 b 351 750 184 1002 184 750 z m 396 921 b 305 829 456 860 365 771 b 396 921 244 889 336 981 z m 682 514 b 87 555 680 669 320 784 l 87 490 b 510 541 299 715 486 614 l 510 507 b 17 247 324 507 17 538 b 256 0 17 110 117 0 l 684 0 l 684 514 z m 510 105 b 349 43 510 31 417 40 b 349 464 196 57 196 448 l 510 464 z "},"":{"ha":1192,"x_min":0,"x_max":0,"o":"m 1174 433 b 934 683 1174 571 1074 683 b 574 646 739 683 632 684 b 393 683 520 671 455 683 b 86 555 269 684 174 640 l 86 490 b 508 541 300 715 484 614 l 508 507 b 15 247 322 507 15 538 b 255 0 15 110 117 0 l 682 0 b 796 -10 719 -10 758 -10 b 1103 119 920 -12 1017 33 l 1103 184 b 682 129 894 -40 710 57 l 682 167 b 1174 433 872 167 1174 138 z m 682 514 b 841 638 682 614 700 648 b 841 212 994 624 994 226 l 682 212 z m 348 43 b 348 464 195 57 195 448 l 508 464 l 507 162 l 508 160 b 348 43 508 67 519 31 z "},"":{"ha":599,"x_min":0,"x_max":0,"o":"m 584 519 l 584 584 b 17 328 382 786 17 660 b 311 -9 17 141 156 12 b 268 -122 303 -50 289 -88 b 492 21 410 -88 473 -33 b 584 88 525 36 556 59 l 584 152 b 498 67 556 112 527 84 b 329 91 486 160 360 178 b 289 517 241 193 249 424 b 584 519 360 686 487 641 z "},"":{"ha":718,"x_min":0,"x_max":0,"o":"m 480 752 l 430 955 l 256 955 l 306 752 z m 701 433 b 463 681 701 569 601 681 b 36 160 -4 681 36 690 l 37 159 b 325 -12 37 43 194 -10 b 632 119 448 -14 544 31 l 632 183 b 210 133 420 -45 234 59 l 210 167 b 701 433 398 167 701 136 z m 210 552 b 370 638 210 645 306 641 b 370 210 523 622 523 226 l 210 210 z "},"":{"ha":718,"x_min":0,"x_max":0,"o":"m 481 955 l 306 955 l 256 752 l 429 752 z m 701 433 b 463 681 701 569 601 681 b 34 160 -4 681 34 690 l 38 159 b 324 -12 38 43 194 -10 b 631 119 448 -14 544 31 l 631 183 b 210 133 420 -45 234 59 l 210 167 b 701 433 398 167 701 136 z m 210 552 b 370 638 210 645 306 641 b 370 210 522 622 522 226 l 210 210 z "},"":{"ha":718,"x_min":0,"x_max":0,"o":"m 367 934 l 413 752 l 586 752 l 536 955 l 198 955 l 148 752 l 322 752 z m 701 433 b 462 681 701 569 601 681 b 34 160 -4 681 34 690 l 36 159 b 324 -12 38 43 193 -10 b 631 119 448 -14 544 31 l 631 183 b 208 133 419 -45 232 59 l 208 167 b 701 433 398 167 701 136 z m 208 552 b 369 638 208 645 305 641 b 369 210 522 622 522 226 l 208 210 z "},"":{"ha":718,"x_min":0,"x_max":0,"o":"m 701 433 b 462 681 701 569 601 681 b 34 160 -4 681 34 690 l 36 159 b 324 -12 38 43 194 -10 b 631 119 448 -14 544 31 l 631 183 b 210 133 418 -45 232 59 l 210 167 b 701 433 398 167 701 136 z m 210 552 b 370 638 210 645 306 641 b 370 210 522 622 522 226 l 210 210 z m 484 752 b 484 926 598 752 598 926 b 484 752 370 926 370 752 z m 251 752 b 251 926 365 752 365 926 b 251 752 138 926 138 752 z "},"":{"ha":264,"x_min":0,"x_max":0,"o":"m 219 752 l 169 955 l -6 955 l 44 752 z m 219 0 l 219 683 l 44 683 l 44 0 z "},"":{"ha":264,"x_min":0,"x_max":0,"o":"m 219 0 l 219 683 l 44 683 l 44 0 z m 94 953 l 44 750 l 219 750 l 269 953 z "},"":{"ha":261,"x_min":0,"x_max":0,"o":"m 130 933 l 175 750 l 349 750 l 299 953 l -39 953 l -89 750 l 83 750 z m 216 0 l 216 683 l 44 683 l 44 0 z "},"":{"ha":263,"x_min":0,"x_max":0,"o":"m 14 922 b 14 750 -99 922 -99 750 b 14 922 130 750 130 922 z m 247 922 b 247 750 133 922 133 750 b 247 922 361 750 361 922 z m 218 0 l 218 683 l 44 683 l 44 0 z "},"":{"ha":740,"x_min":0,"x_max":0,"o":"m 779 877 b 695 829 769 834 741 822 l 695 970 l 519 970 l 519 879 b 335 772 424 900 362 862 l 412 750 b 519 796 431 810 462 812 l 519 683 b 33 483 340 683 79 710 b 28 247 30 464 28 269 b 267 0 28 110 128 0 l 695 0 l 695 752 b 859 857 779 740 838 779 z m 519 129 b 360 43 519 36 424 40 b 245 243 286 50 248 145 b 360 640 240 359 223 626 l 519 640 z "},"":{"ha":754,"x_min":0,"x_max":0,"o":"m 453 750 b 586 857 525 750 570 796 l 508 877 b 313 895 479 760 396 895 b 174 783 234 895 194 848 l 251 760 b 453 750 291 891 375 750 z m 715 0 l 713 514 b 217 631 713 667 406 739 b 217 683 217 648 217 665 l 44 683 l 44 0 l 219 0 l 219 453 b 541 541 219 669 520 674 l 541 0 z "},"":{"ha":703,"x_min":0,"x_max":0,"o":"m 446 750 l 396 953 l 221 953 l 273 750 z m 351 681 b 18 341 168 681 18 529 b 683 324 18 -141 683 -115 b 351 681 683 531 539 681 z m 497 186 b 204 186 497 -26 204 -22 l 204 462 b 351 638 204 553 261 638 b 497 462 440 638 497 553 l 497 186 z "},"":{"ha":704,"x_min":0,"x_max":0,"o":"m 490 953 l 316 953 l 266 750 l 440 750 z m 352 681 b 18 341 168 681 18 529 b 685 324 18 -141 685 -115 b 352 681 685 531 540 681 z m 499 186 b 204 186 499 -26 204 -22 l 204 462 b 352 638 204 553 263 638 b 499 462 442 638 499 553 z "},"":{"ha":704,"x_min":0,"x_max":0,"o":"m 356 933 l 402 750 l 575 750 l 525 953 b 187 953 413 953 299 953 l 137 750 l 309 750 z m 352 681 b 18 341 168 681 18 529 b 685 324 18 -141 685 -115 b 352 681 685 531 540 681 z m 499 186 b 204 186 499 -26 204 -22 l 204 462 b 352 638 204 553 263 638 b 499 462 442 638 499 553 z "},"":{"ha":704,"x_min":0,"x_max":0,"o":"m 351 681 b 18 341 168 681 18 529 b 685 324 18 -141 685 -115 b 351 681 685 531 539 681 z m 497 186 b 204 186 497 -26 204 -22 l 204 462 b 351 638 204 553 261 638 b 497 462 440 638 497 553 l 497 186 z m 425 750 b 558 857 496 750 542 796 l 478 877 b 285 895 449 760 368 895 b 146 783 206 895 165 848 l 221 760 b 425 750 261 891 347 750 z "},"":{"ha":703,"x_min":0,"x_max":0,"o":"m 463 750 b 463 922 578 750 578 922 b 463 750 349 922 349 750 z m 232 750 b 232 922 346 750 346 922 b 232 750 116 922 116 750 z m 351 681 b 18 341 168 681 18 529 b 683 324 18 -141 683 -115 b 351 681 683 531 539 681 z m 497 186 b 204 186 497 -26 204 -22 l 204 462 b 351 638 204 553 261 638 b 497 462 440 638 497 553 l 497 186 z "},"":{"ha":617,"x_min":0,"x_max":0,"o":"m 308 596 b 308 771 422 596 422 771 b 308 596 194 771 194 596 z m 31 574 l 31 400 l 586 400 l 586 574 z m 308 376 b 308 203 194 376 194 203 b 308 376 422 203 422 376 z "},"":{"ha":701,"x_min":0,"x_max":0,"o":"m 518 636 l 542 683 l 498 683 l 484 653 b 17 341 268 750 17 590 b 180 31 17 203 82 90 l 165 0 l 210 0 l 215 12 b 684 324 434 -84 684 78 b 518 636 684 464 618 576 z m 203 462 b 453 588 203 624 367 691 l 218 109 b 203 462 191 167 203 378 z m 496 186 b 244 72 496 24 325 -12 l 477 550 b 496 186 510 481 496 281 z "},"":{"ha":753,"x_min":0,"x_max":0,"o":"m 486 750 l 434 953 l 262 953 l 312 750 z m 534 684 l 534 152 b 444 53 534 102 477 53 b 212 684 160 53 212 43 l 38 684 l 39 167 b 341 0 39 50 208 -2 l 708 0 l 708 684 z "},"":{"ha":753,"x_min":0,"x_max":0,"o":"m 511 953 l 337 953 l 287 750 l 461 750 z m 534 684 l 534 152 b 446 53 534 102 477 53 b 211 684 160 53 211 43 l 39 684 l 39 167 b 341 0 41 50 208 -2 l 708 0 l 708 684 z "},"":{"ha":753,"x_min":0,"x_max":0,"o":"m 534 684 l 534 152 b 444 53 534 102 477 53 b 211 684 160 53 211 43 l 39 684 l 39 167 b 341 0 41 50 208 -2 l 708 0 l 708 684 z m 373 933 l 418 750 l 592 750 l 542 953 b 204 953 428 953 316 953 l 154 750 l 327 750 z "},"":{"ha":753,"x_min":0,"x_max":0,"o":"m 489 750 b 489 922 603 750 603 922 b 489 750 375 922 375 750 z m 534 684 l 534 152 b 444 53 534 102 477 53 b 212 684 160 53 212 43 l 37 684 l 39 167 b 339 0 39 50 208 -2 l 708 0 l 708 684 z m 256 750 b 256 922 372 750 372 922 b 256 750 143 922 143 750 z "},"":{"ha":704,"x_min":0,"x_max":0,"o":"m 461 953 l 286 953 l 236 750 l 409 750 z m 659 683 l 486 683 l 486 176 b 212 141 486 -9 221 38 l 212 683 l 38 683 l 38 169 b 328 0 38 169 42 3 l 486 0 l 486 -134 b 316 -250 448 -236 392 -250 l 35 -247 l 35 -290 l 440 -290 b 660 -45 569 -281 660 -172 z "},"":{"ha":522,"x_min":0,"x_max":0,"o":"m 219 590 l 219 683 l 44 683 l 44 0 l 219 0 l 219 95 b 508 341 369 60 515 171 b 219 590 500 512 365 626 z m 219 143 l 219 546 b 219 143 389 555 396 141 z "},"":{"ha":704,"x_min":0,"x_max":0,"o":"m 462 750 b 462 922 578 750 578 922 b 462 750 348 922 348 750 z m 485 683 l 485 176 b 211 141 485 -9 219 38 l 211 683 l 38 683 l 38 169 b 326 0 38 169 40 3 l 485 0 l 485 -134 b 316 -250 447 -236 392 -250 l 35 -247 l 35 -290 l 440 -290 b 659 -45 567 -281 659 -172 l 659 683 z m 231 750 b 231 922 345 750 345 922 b 231 750 116 922 116 750 z "},"":{"ha":1201,"x_min":0,"x_max":0,"o":"m 1212 929 l 1212 972 b 362 972 913 972 633 972 b 29 638 179 972 29 822 l 29 333 b 362 0 29 150 179 0 b 1212 0 633 0 913 0 l 1212 43 l 795 43 b 720 119 753 43 720 78 l 720 465 l 1007 465 l 1007 509 l 795 509 b 720 584 753 509 720 543 l 720 929 z m 526 207 b 200 207 526 -9 200 -9 l 200 767 b 362 929 200 855 272 929 b 526 767 453 929 526 855 z "},"":{"ha":1197,"x_min":0,"x_max":0,"o":"m 1180 433 b 941 681 1180 569 1079 681 b 549 615 703 681 596 683 b 17 341 336 779 17 624 b 561 62 17 19 355 -114 b 803 -12 618 12 717 -10 b 1110 119 927 -14 1022 31 l 1110 183 b 687 133 898 -45 711 59 l 687 167 b 1180 433 877 167 1180 136 z m 687 552 b 848 638 687 645 784 641 b 848 210 1001 622 1001 226 l 687 210 z m 496 186 b 203 186 496 -26 203 -22 l 203 462 b 351 638 203 553 261 638 b 496 462 439 638 496 553 z "},"":{"ha":688,"x_min":0,"x_max":0,"o":"m 342 929 l 677 929 l 677 972 l 249 972 b 11 734 118 972 11 865 b 342 465 11 495 192 465 b 344 43 492 465 499 52 l 10 43 l 10 0 l 222 0 b 677 269 408 0 677 -26 b 437 509 677 402 568 509 l 342 509 b 342 929 191 522 191 915 z m 560 1048 l 611 1251 l 437 1251 l 392 1069 l 346 1251 l 172 1251 l 223 1048 z "},"":{"ha":642,"x_min":0,"x_max":0,"o":"m 489 750 l 540 953 l 366 953 l 321 771 l 275 953 l 103 953 l 153 750 b 489 750 265 750 377 750 z m 309 624 b 625 624 440 624 537 624 l 625 684 b 259 684 502 684 380 684 b 20 515 170 684 20 645 b 127 343 20 386 51 369 b 321 317 187 321 261 317 b 308 59 456 314 444 60 b 18 59 178 59 104 59 l 18 0 b 621 179 187 0 621 -47 b 515 350 621 305 590 324 b 320 378 456 374 382 378 b 309 624 184 378 218 612 z "},"":{"ha":646,"x_min":0,"x_max":0,"o":"m 207 1048 b 207 1222 321 1048 321 1222 b 207 1048 93 1222 93 1048 z m 440 1048 b 440 1222 554 1048 554 1222 b 440 1048 326 1222 326 1048 z m 488 972 b 26 972 221 515 298 517 l -22 972 b 236 541 21 915 200 605 l 235 0 l 409 0 b 412 543 409 181 409 362 b 666 972 450 610 626 907 z "},"":{"ha":778,"x_min":0,"x_max":0,"o":"m 563 1048 l 613 1251 l 441 1251 l 394 1069 l 347 1251 l 175 1251 l 225 1048 z m 284 126 l 785 972 l 34 972 l 34 929 l 541 929 l -11 0 l 785 0 l 785 43 l 332 43 b 284 126 289 43 261 90 z "},"":{"ha":624,"x_min":0,"x_max":0,"o":"m 480 750 l 532 953 l 357 953 l 311 771 l 266 953 l 92 953 l 144 750 b 480 750 256 750 368 750 z m 285 114 l 626 683 l 35 683 l 35 640 l 380 640 l -3 0 l 599 0 l 599 43 l 326 43 b 285 114 285 43 266 83 z "},"":{"ha":632,"x_min":0,"x_max":0,"o":"m 599 400 l 599 574 l 32 574 l 32 400 z "},"":{"ha":888,"x_min":0,"x_max":0,"o":"m 854 400 l 854 574 l 32 574 l 32 400 z "},"":{"ha":243,"x_min":0,"x_max":0,"o":"m 118 819 b 258 1089 237 819 178 948 b 118 819 -61 1012 16 819 z "},"":{"ha":275,"x_min":0,"x_max":0,"o":"m 165 1089 b 25 819 46 1089 104 960 b 165 1089 344 896 266 1089 z "},"":{"ha":469,"x_min":0,"x_max":0,"o":"m 117 819 b 259 1089 238 819 179 948 b 117 819 -60 1012 15 819 z m 345 819 b 484 1089 464 819 405 948 b 345 819 167 1012 243 819 z "},"":{"ha":501,"x_min":0,"x_max":0,"o":"m 165 1089 b 25 819 44 1089 104 960 b 165 1089 342 896 266 1089 z m 392 1089 b 251 819 271 1089 330 960 b 392 1089 570 896 494 1089 z "},"":{"ha":478,"x_min":0,"x_max":0,"o":"m 131 174 b -8 -97 12 174 71 45 b 131 174 311 -19 233 174 z m 359 174 b 219 -97 238 174 298 45 b 359 174 536 -19 461 174 z "},"":{"ha":319,"x_min":0,"x_max":0,"o":"m 111 290 b 209 290 143 290 176 290 l 209 567 l 292 567 l 292 610 l 209 610 l 209 717 l 111 717 l 111 610 l 28 610 l 28 567 l 111 567 z "},"":{"ha":697,"x_min":0,"x_max":0,"o":"m 116 174 b 116 0 2 174 2 0 b 116 174 230 0 230 174 z m 581 174 b 581 0 468 174 468 0 b 581 174 695 0 695 174 z m 349 174 b 349 0 235 174 235 0 b 349 174 462 0 462 174 z "},"":{"ha":1924,"x_min":0,"x_max":0,"o":"m 740 972 l 568 465 l 409 0 l 602 0 l 931 972 z m 569 755 b 316 972 569 943 433 972 b 69 755 199 972 69 943 b 316 538 69 559 190 538 b 569 755 442 538 569 560 z m 316 583 b 316 929 181 583 197 929 b 316 583 433 929 449 583 z m 1600 434 b 1354 217 1483 434 1354 405 b 1600 0 1354 21 1474 0 b 1854 217 1726 0 1854 22 b 1600 434 1854 405 1717 434 z m 1600 45 b 1600 391 1466 45 1481 391 b 1600 45 1717 391 1733 45 z m 1040 434 b 793 217 923 434 793 405 b 1040 0 793 21 914 0 b 1293 217 1167 0 1293 22 b 1040 434 1293 405 1157 434 z m 1040 45 b 1040 391 905 45 923 391 b 1040 45 1157 391 1174 45 z "},"":{"ha":881,"x_min":0,"x_max":0,"o":"m 855 812 l 855 877 b 290 640 643 1084 290 933 l 290 586 l 69 586 l 69 541 l 290 541 l 290 431 l 69 431 l 69 388 l 290 388 l 290 334 b 855 97 290 41 647 -112 l 855 162 b 485 167 745 10 556 -3 b 461 388 473 198 464 286 l 673 388 l 673 431 l 459 431 b 461 541 459 467 459 505 l 673 541 l 673 586 l 461 586 b 487 810 464 688 473 777 b 855 812 557 977 745 962 z "},"":{"ha":426,"x_min":0,"x_max":0,"o":"m 25 964 l 82 964 l 82 750 l 122 750 b 178 964 122 988 104 964 l 178 972 l 25 972 z m 353 972 b 239 972 285 829 306 829 l 199 972 l 199 750 l 239 750 l 239 945 l 285 841 l 306 841 l 353 945 l 353 750 l 392 750 l 392 972 z "},"":{"ha":1454,"x_min":0,"x_max":0,"o":"m 631 145 l 419 972 l 245 972 l -7 0 l 43 0 l 93 207 l 441 207 l 479 55 b 1377 -67 596 -284 1157 -257 l 1355 -34 b 631 145 1170 -179 715 -217 z m 364 403 b 107 250 333 236 224 250 l 267 886 b 364 403 295 777 384 507 z m 1093 972 l 755 972 l 755 0 l 1089 0 b 1424 334 1270 0 1424 148 l 1424 640 b 1093 972 1424 826 1270 972 z m 1229 167 b 1033 81 1193 78 1120 21 b 929 291 967 126 929 207 l 929 929 b 1229 808 1058 929 1167 953 b 1229 167 1263 727 1263 250 z "},"":{"ha":978,"x_min":0,"x_max":0,"o":"m 631 145 l 419 972 l 245 972 l -7 0 l 43 0 l 93 207 l 441 207 l 479 55 b 929 -207 541 -128 733 -203 l 929 -166 b 631 145 791 -141 671 -26 z m 364 403 b 107 250 333 236 224 250 l 267 886 b 364 403 295 777 383 507 z m 753 972 l 753 0 l 929 0 l 929 972 z "},"":{"ha":1400,"x_min":0,"x_max":0,"o":"m 1029 43 b 927 279 951 52 927 176 l 927 972 l 753 972 l 753 0 l 1420 0 l 1420 43 z m 629 145 l 419 972 l 245 972 l -7 0 l 43 0 l 93 207 l 440 207 l 479 55 b 1376 -67 595 -284 1157 -257 l 1353 -34 b 629 145 1170 -179 714 -217 z m 364 403 b 107 250 331 236 222 250 l 265 886 b 364 403 295 777 383 507 z "},"":{"ha":1517,"x_min":0,"x_max":0,"o":"m 629 145 l 419 972 l 245 972 l -7 0 l 43 0 l 93 207 l 440 207 l 479 55 b 1376 -67 595 -284 1157 -257 l 1353 -34 b 629 145 1170 -179 714 -217 z m 364 403 b 107 250 331 236 222 250 l 265 886 b 364 403 295 777 383 507 z m 1291 972 l 1291 346 b 1198 329 1291 269 1262 178 l 927 972 l 753 972 l 753 0 l 927 0 l 927 869 l 1291 0 b 1467 0 1350 0 1408 0 l 1467 972 z "},"":{"ha":1451,"x_min":0,"x_max":0,"o":"m 1181 486 b 1181 972 1496 486 1498 972 l 753 972 l 753 0 l 927 0 l 927 465 l 1086 465 b 1201 0 1236 465 1201 117 l 1419 0 l 1419 279 b 1181 486 1403 396 1301 486 z m 1064 527 b 927 757 977 565 927 658 l 927 929 l 1088 929 b 1064 527 1255 914 1234 452 z m 629 145 l 419 972 l 245 972 l -7 0 l 43 0 l 93 207 l 440 207 l 479 55 b 1376 -67 595 -284 1157 -257 l 1353 -34 b 629 145 1170 -179 714 -217 z m 364 403 b 107 250 331 236 222 250 l 265 886 b 364 403 295 777 383 507 z "},"":{"ha":1431,"x_min":0,"x_max":0,"o":"m 629 145 l 419 972 l 245 972 l -7 0 l 43 0 l 93 207 l 440 207 l 479 55 b 1376 -67 595 -284 1157 -257 l 1353 -34 b 629 145 1170 -179 715 -217 z m 364 403 b 107 250 331 236 222 250 l 267 886 b 364 403 295 777 383 507 z m 1086 929 l 1420 929 l 1420 974 l 993 974 b 755 734 862 974 755 865 b 1086 465 755 496 936 465 b 1088 45 1236 465 1243 52 l 753 45 l 753 0 l 964 0 b 1420 269 1151 0 1420 -26 b 1181 509 1420 402 1312 509 l 1086 509 b 1086 929 933 524 933 915 z "},"":{"ha":1204,"x_min":0,"x_max":0,"o":"m 629 145 l 419 972 l 245 972 l -7 0 l 43 0 l 93 207 l 440 207 l 479 55 b 1224 -155 574 -222 964 -255 l 1224 -103 b 629 145 1010 -179 698 -148 z m 364 403 b 107 250 331 236 222 250 l 267 886 b 364 403 295 777 383 507 z m 1181 972 l 557 972 l 557 929 l 803 929 l 803 0 l 977 0 l 977 681 b 1224 929 977 819 1065 929 l 1224 972 l 1181 972 z "},"":{"ha":1203,"x_min":0,"x_max":0,"o":"m 793 0 l 967 0 b 969 543 967 183 967 362 b 1224 972 1008 610 1182 907 l 1046 972 b 584 972 779 515 857 517 l 536 972 b 795 541 579 915 757 605 z m 629 145 l 419 972 l 245 972 l -7 0 l 43 0 l 93 207 l 440 207 l 479 55 b 1224 -155 574 -222 964 -255 l 1224 -103 b 629 145 1010 -179 698 -148 z m 364 403 b 107 250 331 236 222 250 l 267 886 b 364 403 295 777 383 507 z "},"":{"ha":1415,"x_min":0,"x_max":0,"o":"m 927 290 l 1043 450 l 1248 0 l 1422 0 l 1150 598 l 1419 972 l 1344 972 l 1051 567 b 927 622 1014 515 927 450 l 927 972 l 753 972 l 753 0 l 927 0 z m 629 145 l 419 972 l 245 972 l -7 0 l 43 0 l 93 207 l 440 207 l 479 55 b 1376 -67 595 -284 1157 -257 l 1353 -34 b 629 145 1170 -179 714 -217 z m 364 403 b 107 250 331 236 222 250 l 265 886 b 364 403 295 777 383 507 z "},"":{"ha":1471,"x_min":0,"x_max":0,"o":"m 1246 972 l 1246 683 b 760 483 1067 683 807 712 b 755 247 757 464 755 269 b 993 0 755 110 855 0 l 1422 0 l 1422 972 z m 1246 290 b 1141 78 1246 203 1208 122 b 972 243 1019 -5 976 140 b 1246 640 955 679 1027 640 z m 631 145 l 419 972 l 246 972 l -7 0 l 45 0 l 95 207 l 441 207 l 479 55 b 1377 -67 596 -284 1158 -257 l 1355 -34 b 631 145 1172 -179 715 -217 z m 365 403 b 107 250 333 236 224 250 l 267 886 b 365 403 296 777 384 507 z "},"":{"ha":972,"x_min":0,"x_max":0,"o":"m 843 743 b 843 917 957 743 957 917 b 843 743 727 917 727 743 z m 929 0 l 929 683 l 755 683 l 755 0 z m 615 207 l 419 972 l 246 972 l -7 0 l 45 0 l 95 207 l 441 207 l 479 55 b 929 -207 543 -128 733 -203 l 929 -166 b 615 207 729 -131 660 33 z m 365 403 b 107 250 333 236 224 250 l 267 886 b 365 403 296 777 384 507 z "},"":{"ha":978,"x_min":0,"x_max":0,"o":"m 755 972 l 755 0 l 929 0 l 929 972 z m 614 207 l 419 972 l 245 972 l -7 0 l 45 0 l 93 207 l 441 207 l 479 55 b 929 -207 541 -128 733 -203 l 929 -166 b 614 207 727 -131 658 33 z m 364 403 b 107 250 333 236 224 250 l 267 886 b 364 403 295 777 384 507 z "},"":{"ha":1449,"x_min":0,"x_max":0,"o":"m 927 453 b 1250 541 927 669 1229 674 l 1250 0 l 1424 0 l 1422 515 b 926 631 1422 669 1115 740 b 926 683 926 648 926 665 l 753 683 l 753 0 l 927 0 l 927 453 z m 629 145 l 419 972 l 245 972 l -7 0 l 43 0 l 93 207 l 440 207 l 479 55 b 1376 -67 596 -284 1157 -257 l 1353 -34 b 629 145 1170 -179 715 -217 z m 364 403 b 107 250 333 236 222 250 l 267 886 b 364 403 295 777 383 507 z "},"":{"ha":1333,"x_min":0,"x_max":0,"o":"m 927 564 b 1284 583 1039 629 1155 672 l 1350 629 b 926 631 1236 700 1050 702 l 926 683 l 753 683 l 753 0 l 927 0 z m 1353 -34 b 629 145 1170 -179 714 -217 l 419 972 l 245 972 l -7 0 l 43 0 l 93 207 l 440 207 l 479 55 b 1376 -67 595 -284 1157 -257 z m 364 403 b 107 250 331 236 222 250 l 265 886 b 364 403 295 777 383 507 z "},"":{"ha":1374,"x_min":0,"x_max":0,"o":"m 1358 181 b 1251 352 1358 307 1327 326 b 1057 379 1193 374 1119 379 b 1046 624 920 379 953 614 b 1362 624 1176 624 1274 624 l 1362 684 b 996 684 1239 684 1117 684 b 757 517 907 684 757 645 b 864 345 757 388 788 371 b 1058 317 924 322 996 317 b 1045 60 1193 315 1181 62 b 753 60 915 60 841 60 l 753 0 b 1358 181 924 0 1358 -45 z m 1355 -34 b 629 145 1170 -179 715 -217 l 419 972 l 245 972 l -7 0 l 43 0 l 93 207 l 440 207 l 479 55 b 1376 -67 596 -284 1157 -257 z m 364 403 b 107 250 333 236 224 250 l 267 886 b 364 403 295 777 383 507 z "},"":{"ha":1322,"x_min":0,"x_max":0,"o":"m 981 260 l 981 640 l 1174 640 l 1174 684 b 981 972 1105 721 981 712 l 807 972 l 807 684 l 646 684 l 646 640 l 807 640 l 808 169 b 1339 0 810 -34 1176 0 l 1339 60 b 981 260 1169 60 981 14 z m 631 145 l 419 972 l 245 972 l -7 0 l 45 0 l 93 207 l 441 207 l 479 55 b 1224 -155 574 -222 965 -255 l 1224 -103 b 631 145 1010 -179 700 -148 z m 364 403 b 107 250 333 236 224 250 l 267 886 b 364 403 295 777 384 507 z "},"":{"ha":1410,"x_min":0,"x_max":0,"o":"m 1205 683 l 1205 300 b 1024 57 1205 186 1138 81 b 931 141 979 67 938 97 l 931 683 l 757 683 l 757 169 b 1046 0 757 169 760 3 l 1205 0 l 1205 -133 b 1036 -248 1167 -236 1110 -250 l 753 -246 l 753 -290 l 1160 -290 b 1379 -43 1288 -279 1379 -172 l 1379 683 z m 1138 -181 l 1138 -126 b 629 145 936 -167 689 -112 l 419 972 l 245 972 l -7 0 l 43 0 l 93 207 l 440 207 l 479 55 b 1138 -181 564 -193 886 -245 z m 364 403 b 107 250 333 236 222 250 l 267 886 b 364 403 295 777 383 507 z "},"":{"ha":1363,"x_min":0,"x_max":0,"o":"m 631 145 l 419 972 l 245 972 l -7 0 l 43 0 l 93 207 l 441 207 l 479 55 b 1376 -67 596 -284 1157 -257 l 1355 -34 b 631 145 1170 -179 715 -217 z m 364 403 b 107 250 333 236 224 250 l 267 886 b 364 403 295 777 384 507 z m 927 298 l 1169 0 l 1377 0 l 1008 417 l 1329 683 l 1248 683 l 983 459 b 927 484 960 440 927 455 l 927 972 l 753 972 l 753 0 l 927 0 z "},"":{"ha":1482,"x_min":0,"x_max":0,"o":"m 846 -114 b 684 514 641 -43 684 278 l 682 515 b 87 555 680 669 320 784 l 87 491 b 510 541 299 715 486 614 l 510 507 b 17 246 324 507 17 538 b 256 0 17 110 117 0 l 542 0 b 916 -207 603 -162 751 -203 b 1363 -67 1087 -207 1254 -160 l 1341 -34 b 846 -114 1228 -122 1015 -172 z m 405 78 b 349 464 199 -62 179 448 l 510 464 b 405 78 510 317 532 165 z m 1263 972 l 1263 683 b 777 483 1084 683 823 712 b 772 247 772 464 772 269 b 1010 0 772 110 872 0 l 1437 0 l 1437 972 z m 1263 290 b 1158 78 1263 203 1225 122 b 989 243 1034 -5 992 140 b 1263 640 972 679 1044 640 z "},"":{"ha":989,"x_min":0,"x_max":0,"o":"m 944 0 l 944 683 l 772 683 l 772 0 z m 858 743 b 858 917 972 743 972 917 b 858 743 744 917 744 743 z m 1341 -34 b 846 -114 1228 -122 1015 -172 b 684 514 641 -43 684 278 l 682 515 b 87 555 680 669 320 784 l 87 491 b 510 541 301 715 486 614 l 510 507 b 17 246 324 507 17 538 b 256 0 17 110 117 0 l 542 0 b 916 -207 603 -162 751 -203 b 1363 -67 1087 -207 1254 -160 z m 405 78 b 349 464 199 -62 179 448 l 510 464 b 405 78 510 317 532 165 z "},"":{"ha":992,"x_min":0,"x_max":0,"o":"m 946 972 l 772 972 l 772 0 l 946 0 z m 1341 -34 b 846 -114 1228 -122 1015 -172 b 684 514 641 -43 684 278 l 682 515 b 87 555 680 669 320 784 l 87 491 b 508 541 299 715 486 614 l 508 507 b 17 246 324 507 17 538 b 256 0 17 110 117 0 l 542 0 b 916 -207 603 -162 751 -203 b 1363 -67 1087 -207 1254 -160 z m 405 78 b 348 464 199 -62 177 448 l 508 464 b 405 78 508 317 532 165 z "},"":{"ha":1481,"x_min":0,"x_max":0,"o":"m 944 453 b 1266 541 944 669 1246 674 l 1266 0 l 1441 0 l 1439 515 b 942 631 1439 669 1132 740 b 942 683 942 648 942 665 l 770 683 l 770 0 l 944 0 l 944 453 z m 846 -114 b 684 514 641 -43 684 278 l 680 515 b 87 555 680 669 320 784 l 87 491 b 508 541 299 715 484 614 l 508 507 b 17 246 324 507 17 538 b 255 0 17 110 117 0 l 542 0 b 916 -207 601 -162 751 -203 b 1363 -67 1087 -207 1254 -160 l 1341 -34 b 846 -114 1229 -122 1015 -172 z m 405 78 b 348 464 198 -62 177 448 l 508 464 b 405 78 508 317 532 165 z "},"":{"ha":1357,"x_min":0,"x_max":0,"o":"m 944 564 b 1301 583 1056 629 1172 672 l 1366 629 b 942 631 1253 700 1066 702 l 942 683 l 770 683 l 770 0 l 944 0 z m 844 -114 b 682 514 641 -43 682 278 l 680 515 b 86 555 679 669 318 784 l 86 491 b 508 541 299 715 484 614 l 508 507 b 17 246 322 507 17 538 b 255 0 17 110 117 0 l 542 0 b 917 -207 601 -162 749 -203 b 1363 -67 1087 -207 1254 -160 l 1341 -34 b 844 -114 1229 -122 1013 -172 z m 403 78 b 348 464 198 -62 177 448 l 508 464 b 403 78 508 317 530 165 z "},"":{"ha":1396,"x_min":0,"x_max":0,"o":"m 846 -114 b 684 514 641 -43 684 278 l 680 515 b 87 555 680 669 320 784 l 87 491 b 508 541 299 715 484 614 l 508 507 b 17 246 324 507 17 538 b 255 0 17 110 117 0 l 542 0 b 916 -207 601 -162 751 -203 b 1363 -67 1087 -207 1254 -160 l 1341 -34 b 846 -114 1228 -122 1015 -172 z m 405 78 b 348 464 198 -62 177 448 l 508 464 b 405 78 508 317 532 165 z m 1063 624 b 1378 624 1192 624 1289 624 l 1378 684 b 1013 684 1256 684 1134 684 b 773 515 923 684 773 645 b 880 345 773 386 804 371 b 1075 317 941 321 1013 317 b 1061 60 1210 315 1197 62 b 770 60 932 60 858 60 l 770 0 b 1375 179 941 0 1375 -47 b 1268 352 1375 305 1344 326 b 1073 378 1210 374 1135 378 b 1063 624 937 378 970 612 z "},"":{"ha":1339,"x_min":0,"x_max":0,"o":"m 813 172 b 1344 2 815 -33 1181 2 l 1344 62 b 986 262 1174 62 986 16 l 986 641 l 1179 641 l 1179 686 b 986 974 1112 724 986 714 l 813 974 l 813 686 l 651 686 l 651 641 l 813 641 z m 1341 -34 b 844 -114 1227 -122 1013 -172 b 682 514 641 -43 682 278 l 681 515 b 86 555 679 669 319 784 l 86 491 b 508 541 300 715 484 614 l 508 507 b 15 246 322 507 15 538 b 255 0 15 110 117 0 l 543 0 b 915 -207 601 -162 750 -203 b 1362 -67 1086 -207 1255 -160 z m 403 78 b 348 464 198 -62 177 448 l 508 464 b 403 78 508 317 531 165 z "},"":{"ha":1440,"x_min":0,"x_max":0,"o":"m 1222 683 l 1222 300 b 1041 57 1222 186 1154 81 b 948 141 996 67 954 97 l 948 683 l 773 683 l 773 169 b 1063 0 775 169 777 3 l 1222 0 l 1222 -133 b 1053 -248 1184 -236 1127 -250 l 772 -246 l 772 -290 l 1177 -290 b 1396 -43 1304 -279 1396 -172 l 1396 683 z m 1149 -176 l 1149 -122 b 846 -114 1051 -145 941 -147 b 684 514 641 -43 684 278 l 682 515 b 87 555 680 669 320 784 l 87 491 b 510 541 299 715 486 614 l 510 507 b 17 246 324 507 17 538 b 256 0 17 110 117 0 l 542 0 b 916 -207 603 -162 751 -203 z m 405 78 b 349 464 199 -62 179 448 l 510 464 b 405 78 510 317 532 165 z "},"":{"ha":1385,"x_min":0,"x_max":0,"o":"m 944 298 l 1187 0 l 1396 0 l 1027 417 l 1347 683 l 1266 683 l 1001 459 b 944 484 979 440 944 455 l 944 972 l 772 972 l 772 0 l 946 0 z m 846 -114 b 684 514 641 -43 684 278 l 682 515 b 87 555 680 669 320 784 l 87 491 b 510 541 299 715 486 614 l 510 507 b 17 246 324 507 17 538 b 256 0 17 110 117 0 l 542 0 b 916 -207 603 -162 751 -203 b 1363 -67 1087 -207 1254 -160 l 1341 -34 b 846 -114 1229 -122 1015 -172 z m 405 78 b 349 464 199 -62 179 448 l 510 464 b 405 78 510 317 532 165 z "},"":{"ha":1717,"x_min":0,"x_max":0,"o":"m 629 145 l 419 972 l 245 972 l -7 0 l 43 0 l 93 207 l 440 207 l 479 55 b 1376 -67 596 -284 1157 -257 l 1353 -34 b 629 145 1170 -179 715 -217 z m 364 403 b 107 250 333 236 224 250 l 267 886 b 364 403 295 777 383 507 z m 1460 219 b 1232 465 1320 219 1232 338 l 1232 972 l 1058 972 l 1058 174 l 1725 174 l 1725 219 l 1460 219 z m 927 291 l 927 972 l 753 972 l 753 0 l 1717 0 l 1717 43 l 1155 43 b 927 291 1015 43 927 162 z "},"":{"ha":2299,"x_min":0,"x_max":0,"o":"m 1936 972 l 1598 972 l 1598 0 l 1934 0 b 2268 334 2115 0 2268 148 l 2268 640 b 1936 972 2268 826 2113 972 z m 2074 167 b 1875 81 2037 78 1963 21 b 1772 291 1810 126 1772 207 l 1772 929 b 2072 808 1903 929 2012 953 b 2074 167 2106 727 2108 250 z m 629 145 l 419 972 l 245 972 l -7 0 l 43 0 l 93 207 l 440 207 l 479 55 b 1376 -67 596 -284 1157 -257 l 1353 -34 b 629 145 1170 -179 715 -217 z m 364 403 b 107 250 333 236 222 250 l 267 886 b 364 403 295 777 383 507 z m 2124 1007 l 2146 1041 b 1520 1153 2005 1164 1731 1214 b 1293 705 1313 1093 1293 896 l 1293 346 b 1198 329 1293 269 1262 178 l 927 972 l 753 972 l 753 0 l 927 0 l 927 869 l 1293 0 b 1467 0 1350 0 1408 0 l 1467 722 b 1629 1086 1467 865 1476 1033 b 2124 1007 1798 1145 2012 1095 z "},"":{"ha":2011,"x_min":0,"x_max":0,"o":"m 631 145 l 419 972 l 246 972 l -7 0 l 45 0 l 95 207 l 441 207 l 479 55 b 1226 -155 576 -222 965 -255 l 1226 -103 b 631 145 1012 -179 700 -148 z m 365 403 b 107 250 333 236 224 250 l 267 886 b 365 403 296 777 384 507 z m 558 929 l 805 929 l 805 0 l 979 0 l 979 681 b 1226 929 979 819 1065 929 l 1226 972 l 558 972 z m 2022 929 l 2022 972 l 1357 972 l 1357 0 l 2022 0 l 2022 43 l 1758 43 b 1531 291 1619 43 1531 162 l 1531 465 l 1817 465 l 1817 509 l 1758 509 b 1531 757 1619 509 1531 627 l 1531 929 z "},"":{"ha":1581,"x_min":0,"x_max":0,"o":"m 631 145 l 419 972 l 246 972 l -7 0 l 45 0 l 93 207 l 441 207 l 479 55 b 1224 -155 576 -222 965 -255 l 1224 -103 b 631 145 1012 -179 700 -148 z m 365 403 b 107 250 333 236 224 250 l 267 886 b 365 403 295 777 384 507 z m 1357 972 l 1357 0 l 1531 0 l 1531 972 z m 558 929 l 805 929 l 805 0 l 979 0 l 979 681 b 1224 929 979 819 1065 929 l 1224 972 l 558 972 z "},"":{"ha":1283,"x_min":0,"x_max":0,"o":"m 929 972 l 753 972 l 753 0 l 929 0 z m 629 145 l 419 972 l 245 972 l -7 0 l 43 0 l 93 207 l 440 207 l 479 55 b 1224 -155 574 -222 964 -255 l 1224 -103 b 629 145 1010 -179 698 -148 z m 364 403 b 107 250 333 236 224 250 l 267 886 b 364 403 295 777 383 507 z m 1058 972 l 1058 0 l 1234 0 l 1234 972 z "},"":{"ha":2228,"x_min":0,"x_max":0,"o":"m 631 145 l 419 972 l 246 972 l -7 0 l 45 0 l 95 207 l 441 207 l 479 55 b 1377 -67 596 -284 1158 -257 l 1355 -34 b 631 145 1172 -179 715 -217 z m 365 403 b 107 250 333 236 224 250 l 267 886 b 365 403 296 777 384 507 z m 926 631 b 926 683 926 648 926 665 l 755 683 l 755 0 l 929 0 l 929 453 b 1251 541 929 669 1229 674 l 1251 0 l 1424 0 l 1424 515 b 926 631 1422 669 1117 740 z m 2005 972 l 2005 683 b 1517 483 1824 683 1563 712 b 1512 247 1513 464 1512 269 b 1751 0 1512 110 1612 0 l 2179 0 l 2179 972 z m 2005 290 b 1900 78 2005 203 1965 122 b 1729 243 1775 -5 1732 140 b 2005 640 1713 679 1784 640 z "},"":{"ha":1964,"x_min":0,"x_max":0,"o":"m 1201 0 l 1201 60 b 981 260 1114 60 981 50 l 981 640 l 1172 640 l 1172 684 b 981 972 1105 721 981 712 l 807 972 l 807 684 l 645 684 l 645 640 l 807 640 b 1201 0 808 -10 745 0 z m 629 145 l 419 972 l 245 972 l -7 0 l 43 0 l 93 207 l 440 207 l 479 55 b 1224 -155 574 -222 964 -255 l 1224 -103 b 629 145 1010 -179 698 -148 z m 364 403 b 107 250 331 236 222 250 l 267 886 b 364 403 295 777 383 507 z m 1956 441 b 1719 691 1956 579 1856 691 b 1289 221 1267 691 1288 698 l 1079 221 l 1079 176 l 1289 176 l 1289 169 l 1293 169 b 1579 -2 1293 52 1450 -2 b 1886 128 1703 -3 1800 41 l 1886 193 b 1465 141 1674 -34 1489 69 l 1465 176 b 1956 441 1660 176 1956 148 z m 1465 562 b 1625 646 1465 655 1562 650 b 1625 221 1777 633 1777 234 l 1465 221 z "},"":{"ha":1643,"x_min":0,"x_max":0,"o":"m 1600 0 l 1600 683 l 1427 683 l 1427 0 z m 1513 743 b 1513 917 1627 743 1627 917 b 1513 743 1400 917 1400 743 z m 981 260 l 981 640 l 1172 640 l 1172 684 b 981 972 1105 721 981 712 l 807 972 l 807 684 l 646 684 l 646 640 l 807 640 l 808 169 b 1339 0 810 -34 1174 0 l 1339 60 b 981 260 1167 60 981 14 z m 631 145 l 419 972 l 245 972 l -7 0 l 43 0 l 93 207 l 441 207 l 479 55 b 1224 -155 574 -222 964 -255 l 1224 -103 b 631 145 1010 -179 698 -148 z m 364 403 b 107 250 333 236 224 250 l 267 886 b 364 403 295 777 383 507 z "},"":{"ha":1253,"x_min":0,"x_max":0,"o":"m 1208 972 l 1032 972 l 1032 0 l 1208 0 z m 1341 -34 b 844 -114 1228 -122 1013 -172 b 682 514 641 -43 682 278 l 680 515 b 86 555 679 669 318 784 l 86 491 b 508 541 299 715 484 614 l 508 507 b 17 246 322 507 17 538 b 255 0 17 110 117 0 l 542 0 b 916 -207 601 -162 749 -203 b 1363 -67 1087 -207 1254 -160 z m 403 78 b 348 464 198 -62 177 448 l 508 464 b 403 78 508 317 530 165 z m 944 972 l 770 972 l 770 0 l 944 0 z "},"":{"ha":2239,"x_min":0,"x_max":0,"o":"m 2020 972 l 2020 683 b 1532 483 1839 683 1579 712 b 1527 247 1529 464 1527 269 b 1767 0 1527 110 1627 0 l 2194 0 l 2194 972 z m 2020 290 b 1915 78 2020 203 1980 122 b 1744 243 1791 -5 1748 140 b 2020 640 1729 679 1799 640 l 2020 290 z m 844 -114 b 682 514 641 -43 682 278 l 681 515 b 86 555 679 669 319 784 l 86 491 b 508 541 300 715 484 614 l 508 507 b 15 246 322 507 15 538 b 255 0 15 110 117 0 l 543 0 b 915 -207 601 -162 750 -203 b 1362 -67 1086 -207 1255 -160 l 1341 -34 b 844 -114 1227 -122 1013 -172 z m 403 78 b 348 464 198 -62 177 448 l 508 464 b 403 78 508 317 531 165 z m 941 631 b 941 683 941 648 941 665 l 770 683 l 770 0 l 944 0 l 944 453 b 1267 541 944 669 1244 674 l 1267 0 l 1439 0 l 1439 515 b 941 631 1437 669 1132 740 z "},"":{"ha":1996,"x_min":0,"x_max":0,"o":"m 1978 443 b 1739 693 1978 581 1878 693 b 1368 650 1532 693 1423 695 b 916 974 1394 1238 947 1234 l 779 974 l 779 686 l 617 686 l 617 641 l 779 641 l 779 172 b 1311 2 780 -33 1146 2 l 1311 62 b 951 262 1139 62 951 15 l 951 641 l 1144 641 l 1144 686 b 989 789 1099 710 1030 715 b 960 874 975 821 966 848 b 953 970 954 902 953 933 b 1323 569 977 1214 1394 1126 b 1315 512 1320 552 1316 533 b 1311 222 1309 445 1311 350 l 1049 222 l 1049 178 l 1311 178 l 1311 172 l 1313 171 b 1601 0 1315 55 1470 2 b 1908 129 1725 -2 1821 43 l 1908 195 b 1485 143 1696 -33 1509 71 l 1485 178 b 1978 443 1682 178 1978 150 z m 1485 564 b 1646 650 1485 657 1582 652 b 1646 222 1799 634 1799 238 l 1485 222 z m 720 0 b 682 514 668 112 682 374 l 680 515 b 86 555 679 669 318 784 l 86 491 b 508 541 299 715 484 614 l 508 507 b 17 246 324 507 17 538 b 255 0 17 110 117 0 l 542 0 b 916 -207 601 -162 749 -203 b 1363 -67 1087 -207 1254 -160 l 1341 -34 b 720 0 1196 -148 818 -212 z m 404 78 b 348 464 198 -62 177 448 l 508 464 b 404 78 508 317 530 164 z "},"":{"ha":1596,"x_min":0,"x_max":0,"o":"m 1465 743 b 1477 915 1575 743 1578 905 b 929 974 1423 1296 960 1248 l 792 974 l 792 686 l 630 686 l 630 641 l 792 641 l 792 172 b 1325 2 794 -33 1160 2 l 1325 62 b 966 262 1153 62 966 15 l 966 641 l 1158 641 l 1158 686 b 1003 789 1113 710 1044 715 b 973 877 989 822 979 852 b 966 969 968 903 966 934 b 1437 914 987 1227 1397 1226 b 1465 743 1351 889 1360 743 z m 1551 0 l 1551 683 l 1377 683 l 1377 0 z m 844 -114 b 682 514 641 -43 682 278 l 680 515 b 86 555 679 669 318 784 l 86 491 b 508 541 299 715 484 614 l 508 507 b 17 246 322 507 17 538 b 255 0 17 110 117 0 l 542 0 b 916 -207 601 -162 749 -203 b 1363 -67 1085 -207 1254 -160 l 1341 -34 b 844 -114 1229 -122 1013 -172 z m 403 78 b 348 464 198 -62 177 448 l 508 464 b 403 78 508 317 530 165 z "},"":{"ha":1394,"x_min":0,"x_max":0,"o":"m 596 95 l 596 159 b 224 164 484 7 295 -7 b 226 807 189 247 191 724 b 596 810 296 974 486 958 l 596 874 b 29 636 384 1083 29 929 l 29 331 b 596 95 29 38 386 -115 z m 1153 969 l 979 969 b 710 10 931 781 791 136 b 69 -38 522 -274 212 -150 l 48 -71 b 750 -3 245 -240 603 -284 b 827 203 784 60 810 131 l 1174 203 l 1227 -3 l 1401 -3 z m 1098 402 b 841 247 1067 233 958 247 l 1001 884 b 1098 402 1029 774 1117 503 z "},"":{"ha":875,"x_min":0,"x_max":0,"o":"m 871 810 l 871 874 b 304 636 659 1083 304 929 l 304 331 b 871 95 304 38 661 -115 l 871 159 b 499 164 759 7 570 -7 b 501 807 464 247 466 724 b 871 810 571 974 759 958 z m 242 -45 b 242 1014 206 40 208 933 b 613 1017 314 1181 502 1167 l 613 1081 b 47 843 401 1289 47 1136 l 47 122 b 613 -114 47 -171 402 -324 l 613 -50 b 242 -45 501 -200 313 -215 z "},"":{"ha":1443,"x_min":0,"x_max":0,"o":"m 29 636 l 29 331 b 596 95 29 38 386 -116 l 596 159 b 226 164 484 7 296 -7 b 226 807 189 247 191 724 b 596 810 298 974 486 958 l 596 874 b 29 636 384 1083 29 929 z m 1220 969 l 1220 505 l 1131 505 b 903 753 989 505 903 624 b 495 1176 879 829 951 1169 b 48 1038 324 1176 157 1131 l 71 1003 b 565 1083 183 1093 396 1141 b 727 724 719 1031 727 862 l 727 -3 l 903 -3 l 903 462 l 1220 462 l 1220 -3 l 1394 -3 l 1394 969 z "},"":{"ha":1388,"x_min":0,"x_max":0,"o":"m 1122 595 l 1393 969 l 1317 969 l 1024 564 b 900 619 986 512 900 446 l 900 969 l 726 969 l 726 243 b 564 -116 726 103 717 -64 b 69 -38 395 -174 181 -126 l 46 -71 b 493 -209 155 -164 322 -209 b 901 288 991 -202 877 217 l 1015 446 l 1220 -3 l 1394 -3 z m 595 95 l 595 159 b 224 164 484 7 295 -7 b 226 807 189 247 189 724 b 595 810 296 974 484 958 l 595 874 b 29 636 383 1083 29 929 l 29 331 b 595 95 29 38 384 -115 z "},"":{"ha":1010,"x_min":0,"x_max":0,"o":"m 242 -45 b 244 1014 208 40 209 933 b 614 1017 314 1181 504 1167 l 614 1081 b 47 843 402 1289 47 1136 l 47 122 b 614 -114 47 -171 404 -324 l 614 -50 b 242 -45 502 -200 313 -215 z m 647 969 b 314 636 464 969 314 819 l 314 331 b 647 -3 314 147 464 -3 b 982 331 830 -3 982 147 l 982 636 b 647 969 982 819 830 969 z m 811 203 b 483 203 811 -12 483 -12 l 483 764 b 647 926 483 853 557 926 b 811 764 737 926 811 853 l 811 203 z "},"":{"ha":1318,"x_min":0,"x_max":0,"o":"m 672 969 l 672 926 l 920 926 l 920 -3 l 1092 -3 l 1092 677 b 1339 926 1092 815 1180 926 l 1339 969 z m 29 636 l 29 331 b 595 95 29 38 384 -116 l 595 159 b 224 164 483 7 295 -7 b 226 807 190 247 190 724 b 595 810 296 974 484 958 l 595 874 b 29 636 383 1083 29 929 z "},"":{"ha":981,"x_min":0,"x_max":0,"o":"m 234 -45 b 234 807 198 40 200 724 b 605 808 306 974 494 958 l 605 874 b 38 636 393 1081 38 929 l 38 122 b 605 -114 38 -171 394 -324 l 605 -50 b 234 -45 493 -200 305 -215 z m 955 512 b 362 552 955 665 594 783 l 362 488 b 782 538 574 712 760 610 l 782 505 b 291 245 598 505 291 536 b 531 -3 291 107 391 -3 l 958 -3 l 958 510 z m 679 76 b 622 460 474 -66 451 445 l 782 460 b 679 76 782 314 806 162 z "},"":{"ha":867,"x_min":0,"x_max":0,"o":"m 234 -45 b 234 807 198 40 200 724 b 605 808 306 974 494 958 l 605 874 b 38 636 393 1081 38 929 l 38 122 b 605 -114 38 -171 394 -324 l 605 -50 b 234 -45 493 -200 305 -215 z m 860 527 l 860 591 b 293 334 656 795 293 667 b 860 95 293 36 651 -115 l 860 160 b 563 165 748 7 624 21 b 565 524 525 250 529 441 b 860 527 636 693 762 650 z "},"":{"ha":1306,"x_min":0,"x_max":0,"o":"m 594 95 l 594 159 b 223 164 484 7 294 -7 b 225 807 189 247 189 724 b 594 810 296 974 484 958 l 594 874 b 29 636 382 1083 29 929 l 29 331 b 594 95 29 38 384 -115 z m 1285 -3 l 1280 479 b 856 681 1237 691 1016 681 l 856 969 l 682 969 l 682 243 b 520 -116 682 103 673 -64 b 25 -38 351 -174 137 -126 l 3 -71 b 449 -209 111 -164 279 -209 b 934 602 1106 -198 711 471 b 1023 595 954 615 1006 612 b 1068 395 1068 550 1066 476 l 1068 -3 z "},"":{"ha":1294,"x_min":0,"x_max":0,"o":"m 596 95 l 596 159 b 225 164 484 7 294 -7 b 225 807 189 247 191 724 b 596 810 298 974 485 958 l 596 874 b 29 636 384 1083 29 929 l 29 331 b 596 95 29 38 385 -115 z m 939 414 l 1259 681 l 1178 681 l 913 455 b 856 481 891 436 856 452 l 856 969 l 684 969 l 684 243 b 522 -116 684 103 673 -64 b 25 -38 353 -174 137 -126 l 3 -71 b 449 -209 111 -164 279 -209 b 858 295 825 -203 858 5 l 1099 -3 l 1308 -3 z "},"":{"ha":974,"x_min":0,"x_max":0,"o":"m 242 -45 b 244 1014 208 40 208 933 b 613 1017 314 1181 502 1167 l 613 1081 b 47 843 401 1289 47 1136 l 47 122 b 613 -114 47 -171 402 -324 l 613 -50 b 242 -45 501 -200 313 -215 z m 633 695 b 299 353 449 695 299 541 b 966 336 299 -128 966 -102 b 633 695 966 545 821 695 z m 780 198 b 485 198 780 -14 485 -10 l 485 474 b 633 650 485 565 544 650 b 780 474 723 650 780 565 z "},"":{"ha":1190,"x_min":0,"x_max":0,"o":"m 224 164 b 226 807 189 247 189 724 b 595 810 296 974 484 958 l 595 874 b 29 636 384 1083 29 929 l 29 331 b 595 95 29 38 386 -115 l 595 159 b 224 164 484 7 295 -7 z m 850 260 l 850 640 l 1041 640 l 1041 683 b 850 972 974 721 850 712 l 676 972 l 676 683 l 281 683 l 281 640 l 676 640 l 677 169 b 1208 0 677 -36 1043 0 l 1208 59 b 850 260 1036 59 850 14 z "},"":{"ha":1322,"x_min":0,"x_max":0,"o":"m 222 52 b 222 517 186 134 187 434 b 593 521 293 684 482 669 l 593 584 b 25 346 381 793 25 640 b 141 -33 25 198 12 76 b 1282 -81 386 -241 1013 -252 l 1282 -31 b 222 52 1082 -193 336 -226 z m 1280 512 b 686 552 1279 665 918 783 l 686 488 b 1108 538 899 712 1084 610 l 1108 505 b 615 245 922 505 615 536 b 855 -3 615 107 717 -3 l 1282 -3 l 1282 510 z m 1003 76 b 948 460 798 -66 777 445 l 1108 460 b 1003 76 1108 314 1130 162 z "},"":{"ha":1210,"x_min":0,"x_max":0,"o":"m 1194 95 l 1194 160 b 898 165 1082 7 958 21 b 899 524 860 250 863 441 b 1194 527 970 693 1096 650 l 1194 591 b 627 334 991 795 627 667 b 1194 95 627 36 987 -115 z m 220 52 b 222 517 186 134 186 434 b 593 521 293 684 481 669 l 593 584 b 25 346 381 793 25 640 b 141 -33 25 198 12 76 b 1282 -81 386 -241 1013 -252 l 1282 -31 b 220 52 1082 -193 334 -226 z "},"":{"ha":1307,"x_min":0,"x_max":0,"o":"m 844 390 b 1010 595 844 667 992 614 b 1055 395 1055 550 1053 476 l 1055 -3 b 1272 -3 1127 -3 1199 -3 l 1267 479 b 844 681 1223 691 1003 681 l 844 969 l 668 969 l 668 -3 l 844 -3 z m 220 52 b 222 517 186 134 186 434 b 591 521 293 684 481 669 l 591 584 b 25 346 379 793 25 640 b 139 -33 25 198 12 76 b 1282 -81 384 -241 1013 -252 l 1282 -31 b 220 52 1080 -193 334 -226 z "},"":{"ha":1285,"x_min":0,"x_max":0,"o":"m 844 295 l 1085 -3 l 1294 -3 l 925 414 l 1246 681 l 1165 681 l 899 455 b 844 481 877 436 844 452 l 844 969 l 670 969 l 670 -3 l 844 -3 z m 222 52 b 222 517 186 134 187 434 b 592 521 294 684 482 669 l 592 584 b 25 346 380 793 25 640 b 141 -33 25 198 13 76 b 1282 -81 386 -241 1013 -252 l 1282 -31 b 222 52 1082 -193 336 -226 z "},"":{"ha":1301,"x_min":0,"x_max":0,"o":"m 1282 336 b 949 695 1282 545 1136 695 b 615 353 765 695 615 541 b 1282 336 615 -128 1282 -102 z m 801 474 b 949 650 801 565 858 650 b 1094 474 1037 650 1094 565 l 1094 198 b 801 198 1094 -14 801 -10 l 801 474 z m 220 52 b 222 517 186 134 186 434 b 591 521 293 684 481 669 l 591 584 b 25 346 379 793 25 640 b 141 -33 25 198 12 76 b 1282 -81 384 -241 1013 -252 l 1282 -31 b 220 52 1080 -193 334 -226 z "},"":{"ha":1276,"x_min":0,"x_max":0,"o":"m 222 52 b 222 517 186 134 187 434 b 592 521 294 684 482 669 l 592 584 b 25 346 380 793 25 640 b 141 -33 25 198 13 76 b 1282 -81 386 -241 1015 -252 l 1282 -31 b 222 52 1082 -193 336 -226 z m 923 260 l 923 640 l 1116 640 l 1116 683 b 923 972 1049 721 923 712 l 749 972 l 749 683 l 589 683 l 589 640 l 749 640 l 751 169 b 1282 0 753 -36 1118 0 l 1282 59 b 923 260 1111 59 923 14 z "},"":{"ha":1504,"x_min":0,"x_max":0,"o":"m 1516 929 l 1516 972 l 850 972 l 850 509 l 719 509 l 719 638 b 386 972 719 826 564 972 l 49 972 l 49 0 l 385 0 b 719 334 566 0 719 148 l 719 465 l 850 465 l 850 0 l 1516 0 l 1516 43 l 1252 43 b 1024 291 1112 43 1024 162 l 1024 465 l 1310 465 l 1310 509 l 1252 509 b 1024 757 1112 509 1024 627 l 1024 929 z m 524 167 b 223 291 433 -55 223 97 l 223 929 b 523 808 354 929 462 953 b 549 509 540 771 549 641 l 309 509 l 309 465 b 524 167 485 465 583 309 z "},"":{"ha":1547,"x_min":0,"x_max":0,"o":"m 1183 972 b 850 638 1000 972 850 822 l 850 509 l 719 509 l 719 638 b 386 972 719 826 564 972 l 49 972 l 49 0 l 385 0 b 719 334 566 0 719 148 l 719 465 l 850 465 l 850 334 b 1183 0 850 150 1000 0 b 1517 334 1366 0 1517 150 l 1517 638 b 1183 972 1517 822 1366 972 z m 524 167 b 326 81 488 78 414 21 b 224 291 261 126 224 207 l 224 929 b 523 808 354 929 462 953 b 524 167 557 727 559 250 z m 1347 207 b 1019 207 1347 -9 1019 -9 l 1019 767 b 1183 929 1019 855 1093 929 b 1347 767 1272 929 1347 855 l 1347 207 z "},"":{"ha":1482,"x_min":0,"x_max":0,"o":"m 1474 443 b 1235 693 1474 581 1374 693 b 807 222 785 693 805 700 l 700 222 b 719 638 731 310 719 527 b 386 972 719 826 566 972 l 49 972 l 49 0 l 385 0 b 680 178 511 0 624 72 l 807 178 l 807 172 l 809 171 b 1097 0 811 55 967 2 b 1404 129 1221 -2 1317 43 l 1404 195 b 983 143 1191 -33 1005 71 l 983 178 b 1474 443 1176 178 1474 150 z m 983 564 b 1142 648 983 657 1078 652 b 1142 222 1295 634 1295 236 l 983 222 z m 536 222 l 338 222 l 338 178 l 528 178 b 224 291 469 -40 224 64 l 224 929 b 524 808 354 929 462 953 b 536 222 554 740 557 376 z "},"":{"ha":1481,"x_min":0,"x_max":0,"o":"m 805 371 l 717 371 l 717 638 b 386 972 717 826 564 972 l 49 972 l 49 0 l 385 0 b 717 326 562 0 714 145 l 807 326 b 1472 340 838 -129 1472 -84 b 805 371 1472 815 823 800 z m 547 371 l 383 371 l 383 326 l 545 326 b 524 167 542 252 533 191 b 223 291 433 -55 223 97 l 223 929 b 523 808 352 929 461 953 b 547 371 545 757 552 541 z m 1285 202 b 992 202 1285 -10 992 -7 l 992 326 l 1138 326 l 1138 371 l 992 371 l 992 477 b 1285 477 992 708 1285 710 z "},"":{"ha":1467,"x_min":0,"x_max":0,"o":"m 857 -114 b 695 247 704 -60 695 107 l 695 972 l 521 972 l 521 683 b 33 483 340 683 79 712 b 28 247 29 464 28 269 b 267 0 28 110 128 0 l 554 0 b 928 -207 614 -162 762 -203 b 1374 -67 1098 -207 1265 -160 l 1352 -34 b 857 -114 1240 -122 1026 -172 z m 521 290 b 416 78 521 203 481 122 b 245 243 292 -5 248 140 b 521 640 229 679 300 640 l 521 290 z m 1450 443 b 1210 693 1450 581 1350 693 b 783 172 745 693 783 700 l 785 171 b 1072 0 786 55 943 2 b 1379 129 1197 -2 1293 43 l 1379 195 b 959 143 1167 -33 981 71 l 959 178 b 1450 443 1147 178 1450 147 z m 959 564 b 1117 648 959 657 1053 652 b 1117 222 1271 634 1271 236 l 959 222 z "},"":{"ha":1467,"x_min":0,"x_max":0,"o":"m 1448 340 b 1115 696 1448 546 1302 696 b 781 357 931 696 781 545 b 1448 340 781 -126 1448 -100 z m 967 477 b 1115 653 967 569 1026 653 b 1260 477 1203 653 1260 569 l 1260 202 b 967 202 1260 -10 967 -7 z m 855 -114 b 693 247 703 -60 693 107 l 693 972 l 519 972 l 519 683 b 33 483 340 683 79 712 b 28 247 28 464 28 269 b 266 0 28 110 128 0 l 554 0 b 928 -207 612 -162 760 -203 b 1374 -67 1098 -207 1265 -160 l 1352 -34 b 855 -114 1240 -122 1024 -172 z m 519 290 b 414 78 519 203 481 122 b 245 243 290 -5 247 140 b 519 640 228 679 300 640 z "},"":{"ha":1469,"x_min":0,"x_max":0,"o":"m 1228 972 l 1055 972 l 935 509 b 452 509 773 509 612 509 b 223 755 311 509 223 627 l 223 929 l 716 929 l 716 972 l 49 972 l 49 0 l 716 0 l 716 43 l 452 43 b 223 291 311 43 223 162 l 223 464 l 695 464 b 859 217 836 464 859 345 l 802 0 l 854 0 l 904 207 l 1250 207 l 1304 0 l 1476 0 z m 1174 403 b 916 248 1141 234 1033 248 l 1076 886 b 1174 403 1105 777 1193 505 z "},"":{"ha":1503,"x_min":0,"x_max":0,"o":"m 1140 972 l 802 972 l 802 509 b 452 509 685 509 569 509 b 223 755 311 509 223 627 l 223 929 l 716 929 l 716 972 l 49 972 l 49 0 l 716 0 l 716 43 l 452 43 b 223 291 311 43 223 162 l 223 464 b 802 464 416 464 609 464 l 802 0 l 1138 0 b 1472 333 1319 0 1472 148 l 1472 638 b 1140 972 1472 826 1319 972 z m 1278 165 b 979 253 1181 -71 979 128 b 1205 464 995 367 1078 464 l 1205 509 l 978 509 l 978 929 b 1278 808 1107 929 1216 953 b 1278 165 1310 727 1312 250 z "},"":{"ha":1458,"x_min":0,"x_max":0,"o":"m 1469 929 l 1469 972 l 802 972 l 802 509 l 450 509 b 223 755 311 509 223 627 l 223 929 l 714 929 l 714 972 l 49 972 l 49 0 l 714 0 l 714 43 l 450 43 b 223 291 311 43 223 162 l 223 464 l 574 464 b 802 217 714 464 802 345 l 802 0 l 1469 0 l 1469 43 l 1204 43 b 976 291 1064 43 976 162 l 976 464 l 1262 464 l 1262 509 l 1204 509 b 976 755 1064 509 976 627 l 976 929 z "},"":{"ha":1565,"x_min":0,"x_max":0,"o":"m 1343 972 l 1343 103 l 978 972 b 804 972 919 972 861 972 l 804 250 b 642 -114 804 107 793 -60 b 145 -34 473 -172 257 -122 l 123 -69 b 750 -181 266 -191 538 -243 b 978 267 957 -121 978 74 l 978 626 b 1073 643 978 703 1009 795 l 1343 0 l 1516 0 l 1516 972 z m 716 43 l 452 43 b 224 291 311 43 224 162 l 224 464 l 511 464 l 511 509 l 452 509 b 224 755 311 509 224 627 l 224 929 l 716 929 l 716 972 l 49 972 l 49 0 l 716 0 z "},"":{"ha":1500,"x_min":0,"x_max":0,"o":"m 1229 486 b 1231 972 1545 486 1547 972 l 802 972 l 802 509 b 452 509 686 509 569 509 b 223 755 311 509 223 627 l 223 929 l 716 929 l 716 972 l 49 972 l 49 0 l 716 0 l 716 43 l 452 43 b 223 291 311 43 223 162 l 223 464 l 574 464 b 766 0 819 464 840 160 b 145 -34 666 -214 290 -148 l 123 -69 b 545 -207 223 -153 385 -203 b 978 383 988 -210 978 50 l 976 383 l 976 464 l 1136 464 b 1252 0 1285 464 1252 117 l 1467 0 l 1467 279 b 1229 486 1452 395 1350 486 z m 1112 527 b 976 755 1026 565 976 658 l 976 929 l 1138 929 b 1112 527 1304 914 1285 450 z "},"":{"ha":1479,"x_min":0,"x_max":0,"o":"m 1135 929 l 1469 929 l 1469 972 l 1042 972 b 916 509 780 972 726 614 l 450 509 b 223 755 311 509 223 627 l 223 929 l 716 929 l 716 972 l 49 972 l 49 0 l 716 0 l 716 43 l 450 43 b 223 291 311 43 223 162 l 223 464 l 1145 464 b 1136 43 1285 448 1288 52 l 802 43 l 802 0 l 1014 0 b 1469 269 1200 0 1469 -26 b 1229 509 1469 402 1360 509 l 1135 509 b 1135 929 983 522 983 915 z "},"":{"ha":1449,"x_min":0,"x_max":0,"o":"m 802 929 l 1048 929 l 1048 509 l 450 509 b 223 755 311 509 223 627 l 223 929 l 716 929 l 716 972 l 49 972 l 49 0 l 716 0 l 716 43 l 450 43 b 223 291 311 43 223 162 l 223 464 l 821 464 b 1048 217 962 464 1048 345 l 1048 0 l 1223 0 l 1223 681 b 1469 929 1223 819 1310 929 l 1469 972 l 802 972 z "},"":{"ha":1471,"x_min":0,"x_max":0,"o":"m 1229 972 l 802 972 l 802 509 b 450 509 685 509 567 509 b 223 755 309 509 223 627 l 223 929 l 714 929 l 714 972 l 49 972 l 49 0 l 714 0 l 714 43 l 450 43 b 223 291 309 43 223 162 l 223 464 l 574 464 b 802 217 714 464 802 345 l 802 0 l 976 0 l 976 464 b 1469 733 1185 464 1469 429 b 1229 972 1469 865 1360 972 z m 1097 536 b 976 929 952 617 976 786 l 1136 929 b 1097 536 1304 914 1288 427 z "},"":{"ha":1433,"x_min":0,"x_max":0,"o":"m 1407 514 b 1095 696 1405 629 1224 695 b 812 586 971 698 898 672 l 812 522 b 1235 541 1026 746 1210 614 l 1235 509 l 452 509 b 224 755 311 509 224 627 l 224 929 l 716 929 l 716 972 l 49 972 l 49 0 l 716 0 l 716 43 l 452 43 b 224 291 311 43 224 162 l 224 464 l 862 464 b 981 0 657 362 721 0 l 1409 0 l 1409 514 z m 1129 78 b 1074 464 924 -62 904 448 l 1235 464 b 1129 78 1235 317 1257 164 z "},"":{"ha":1403,"x_min":0,"x_max":0,"o":"m 1179 970 l 1179 683 b 693 483 1000 683 740 710 b 688 246 688 464 688 269 b 788 43 688 162 726 88 l 450 43 b 223 291 311 43 223 162 l 223 464 l 509 464 l 509 509 l 450 509 b 223 755 311 509 223 627 l 223 929 l 714 929 l 714 972 l 49 972 l 49 0 b 1354 0 483 0 919 0 l 1354 970 z m 1179 288 b 1074 78 1179 203 1141 122 b 904 243 950 -7 907 140 b 1179 640 888 677 960 640 z "},"":{"ha":1390,"x_min":0,"x_max":0,"o":"m 1383 438 b 1143 688 1383 576 1283 688 b 716 217 693 688 714 695 l 330 217 l 330 172 l 716 172 l 716 167 l 717 166 b 1005 -5 719 50 876 -5 b 1312 124 1129 -7 1226 38 l 1312 190 b 892 138 1100 -38 914 66 l 892 172 b 1383 438 1092 172 1383 147 z m 892 559 b 1050 643 892 652 986 646 b 1050 217 1204 629 1204 231 l 892 217 z m 223 291 l 223 464 l 509 464 l 509 509 l 452 509 b 223 755 311 509 223 627 l 223 929 l 716 929 l 716 972 l 49 972 l 49 0 l 716 0 l 716 43 l 452 43 b 223 291 311 43 223 162 z "},"":{"ha":1497,"x_min":0,"x_max":0,"o":"m 1472 0 l 1471 514 b 974 631 1471 667 1164 740 b 974 683 974 648 974 665 l 802 683 b 766 0 802 546 823 121 b 145 -34 666 -214 288 -148 l 123 -69 b 569 -207 231 -162 399 -207 b 976 383 992 -200 976 66 b 1062 605 976 452 967 569 b 1298 541 1160 643 1264 646 l 1298 0 l 1472 0 z m 714 43 l 450 43 b 223 291 311 43 223 162 l 223 464 l 509 464 l 509 509 l 450 509 b 223 755 311 509 223 627 l 223 929 l 714 929 l 714 972 l 49 972 l 49 0 l 714 0 z "},"":{"ha":1385,"x_min":0,"x_max":0,"o":"m 716 43 l 452 43 b 224 291 311 43 224 162 l 224 464 l 511 464 l 511 509 l 452 509 b 224 755 311 509 224 627 l 224 929 l 716 929 l 716 972 l 49 972 l 49 0 l 716 0 z m 974 631 l 974 683 l 804 683 l 804 383 l 802 383 b 766 0 802 264 812 98 b 145 -34 666 -214 290 -148 l 123 -69 b 543 -207 221 -153 383 -203 b 978 564 1042 -210 978 134 b 1335 583 1088 629 1205 671 l 1400 627 b 974 631 1286 700 1100 702 z "},"":{"ha":1279,"x_min":0,"x_max":0,"o":"m 950 624 b 1266 624 1081 624 1178 624 l 1266 684 b 900 684 1143 684 1023 684 b 661 515 811 684 661 645 b 767 343 661 386 693 369 b 962 317 828 321 902 317 b 950 43 1097 314 1085 45 l 450 43 b 223 291 309 43 223 162 l 223 464 l 509 464 l 509 509 l 450 509 b 223 755 309 509 223 627 l 223 929 l 714 929 l 714 972 l 49 972 l 49 0 l 714 0 b 1264 179 874 0 1264 -38 b 1155 352 1264 305 1231 326 b 962 378 1097 374 1023 378 b 950 624 824 378 859 612 z "},"":{"ha":1328,"x_min":0,"x_max":0,"o":"m 986 262 l 986 641 l 1179 641 l 1179 686 b 986 974 1112 722 986 714 l 812 974 l 812 686 l 381 686 l 381 641 l 812 641 l 814 171 b 1345 2 816 -33 1181 2 l 1345 62 b 986 262 1174 62 986 16 z m 223 291 l 223 464 l 509 464 l 509 509 l 450 509 b 223 755 311 509 223 627 l 223 929 l 716 929 l 716 972 l 49 972 l 49 0 l 716 0 l 716 43 l 450 43 b 223 291 311 43 223 162 z "},"":{"ha":1429,"x_min":0,"x_max":0,"o":"m 1414 443 b 1174 683 1414 576 1307 683 b 804 683 1050 683 926 683 l 804 43 l 452 43 b 223 291 311 43 223 162 l 223 464 l 509 464 l 509 509 l 452 509 b 223 755 311 509 223 627 l 223 929 l 716 929 l 716 972 l 49 972 l 49 0 l 804 0 l 804 -290 l 976 -290 l 976 0 b 1414 443 1424 0 1414 88 z m 1197 240 b 976 140 1193 -19 976 12 l 976 640 l 1081 640 b 1197 240 1219 633 1198 350 z "},"":{"ha":1451,"x_min":0,"x_max":0,"o":"m 220 178 b 710 443 408 178 710 148 b 470 693 710 581 610 693 b 41 219 30 693 8 662 b 1411 -93 56 -326 1104 -264 l 1411 -43 b 220 178 1156 -193 287 -198 z m 217 564 b 377 648 217 657 313 652 b 377 222 530 634 530 236 l 217 222 z m 1409 514 b 815 555 1408 669 1047 784 l 815 491 b 1237 541 1027 715 1213 614 l 1237 507 b 744 246 1051 507 744 538 b 984 0 744 110 844 0 l 1411 0 l 1411 514 z m 1132 78 b 1077 464 927 -62 906 448 l 1237 464 b 1132 78 1237 317 1260 164 z "},"":{"ha":1510,"x_min":0,"x_max":0,"o":"m 1288 970 l 1288 683 b 802 483 1109 683 849 710 b 797 246 799 464 797 269 b 1036 0 797 110 897 0 l 1464 0 l 1464 970 z m 1288 288 b 1185 78 1288 203 1250 122 b 1014 243 1061 -7 1018 140 b 1288 640 999 677 1069 640 z m 219 178 b 709 443 409 178 709 148 b 471 693 709 581 609 693 b 40 219 30 693 9 662 b 1411 -93 56 -326 1105 -264 l 1411 -43 b 219 178 1157 -193 287 -198 z m 218 564 b 378 648 218 657 314 652 b 378 222 530 634 530 236 l 218 222 z "},"":{"ha":1482,"x_min":0,"x_max":0,"o":"m 800 171 b 1086 0 800 53 957 0 b 1393 129 1211 -2 1307 43 l 1393 195 b 973 143 1181 -33 995 69 l 973 178 b 1464 443 1161 178 1464 147 b 1226 693 1464 581 1364 693 b 797 171 759 693 797 700 z m 973 564 b 1133 648 973 657 1069 652 b 1133 222 1285 634 1285 236 l 973 222 z m 219 178 b 709 443 409 178 709 148 b 471 693 709 581 609 693 b 40 219 30 693 9 662 b 1411 -93 56 -326 1105 -264 l 1411 -43 b 219 178 1155 -193 287 -198 z m 218 564 b 378 648 218 657 314 652 b 378 222 530 634 530 236 l 218 222 z "},"":{"ha":1506,"x_min":0,"x_max":0,"o":"m 970 453 b 1292 541 970 669 1272 674 l 1292 0 l 1466 0 l 1465 514 b 968 631 1465 667 1158 740 b 968 683 968 648 968 665 l 796 683 l 796 0 l 970 0 l 970 453 z m 218 178 b 708 443 408 178 708 148 b 470 693 708 581 608 693 b 41 219 30 693 8 662 b 1411 -93 55 -326 1104 -264 l 1411 -43 b 218 178 1156 -193 286 -198 z m 217 564 b 377 648 217 657 313 652 b 377 222 530 634 530 236 l 217 222 z "},"":{"ha":1385,"x_min":0,"x_max":0,"o":"m 971 564 b 1328 583 1081 629 1199 671 l 1393 627 b 968 631 1280 700 1093 702 l 968 683 l 797 683 l 797 0 l 971 0 l 971 564 z m 219 178 b 709 443 409 178 709 148 b 471 693 709 581 609 693 b 40 219 30 693 9 662 b 1411 -93 56 -326 1105 -264 l 1411 -43 b 219 178 1155 -193 287 -198 z m 218 564 b 378 648 218 657 314 652 b 378 222 530 634 530 236 l 218 222 z "},"":{"ha":1422,"x_min":0,"x_max":0,"o":"m 220 178 b 710 443 408 178 710 148 b 470 693 710 581 608 693 b 41 219 30 693 8 662 b 1411 -93 55 -326 1104 -264 l 1411 -43 b 220 178 1156 -193 286 -198 z m 217 564 b 377 648 217 657 313 652 b 377 222 530 634 530 236 l 217 222 z m 1401 179 b 1294 352 1401 305 1370 326 b 1099 378 1235 374 1161 378 b 1089 624 963 378 996 612 b 1404 624 1218 624 1316 624 l 1404 684 b 1039 684 1282 684 1160 684 b 799 515 949 684 799 645 b 906 343 799 386 830 369 b 1101 317 966 321 1039 317 b 1087 60 1235 314 1223 62 b 796 60 958 60 884 60 l 796 0 b 1401 179 966 0 1401 -47 z "},"":{"ha":1404,"x_min":0,"x_max":0,"o":"m 1052 262 l 1052 641 l 1245 641 l 1245 686 b 1052 974 1176 722 1052 714 l 878 974 l 878 686 l 718 686 l 718 641 l 878 641 l 880 171 b 1411 2 881 -33 1247 2 l 1411 62 b 1052 262 1240 62 1052 16 z m 219 178 b 709 443 407 178 709 148 b 469 693 709 581 609 693 b 40 219 30 693 9 662 b 1411 -93 56 -326 1105 -264 l 1411 -43 b 219 178 1155 -193 287 -198 z m 218 564 b 378 648 218 657 314 652 b 378 222 530 634 530 236 l 218 222 z "},"":{"ha":1428,"x_min":0,"x_max":0,"o":"m 1399 443 b 1161 683 1399 576 1292 683 b 789 683 1037 683 913 683 l 789 43 l 401 43 b 210 178 306 47 210 38 b 701 443 398 178 701 147 b 463 693 701 581 601 693 b 34 215 10 693 32 700 b 351 0 34 102 105 -9 l 789 0 l 789 -290 l 963 -290 l 963 0 l 1051 0 b 1399 443 1430 2 1399 172 z m 210 564 b 370 648 210 657 306 652 b 370 222 522 634 522 236 l 210 222 z m 1182 240 b 963 140 1179 -19 963 12 l 963 640 l 1068 640 b 1182 240 1204 633 1184 350 z "},"":{"ha":2250,"x_min":0,"x_max":0,"o":"m 1678 1086 b 2174 1007 1847 1143 2062 1095 l 2196 1039 b 1569 1153 2053 1162 1781 1214 b 1341 705 1362 1093 1341 896 l 1341 346 b 1247 329 1341 269 1310 178 l 976 972 l 804 972 l 804 509 b 452 509 686 509 569 509 b 224 755 311 509 224 627 l 224 929 l 716 929 l 716 972 l 49 972 l 49 0 l 716 0 l 716 43 l 452 43 b 224 291 311 43 224 162 l 224 464 l 576 464 b 804 217 716 464 804 345 l 804 0 l 976 0 l 976 869 l 1341 0 b 1516 0 1400 0 1459 0 l 1516 722 b 1678 1086 1516 865 1526 1033 z m 2227 972 l 1603 972 l 1603 929 l 1850 929 l 1850 0 l 2024 0 l 2024 681 b 2271 929 2024 819 2110 929 l 2271 972 l 2227 972 z "},"":{"ha":2213,"x_min":0,"x_max":0,"o":"m 2222 929 l 2222 972 l 1555 972 l 1555 0 l 2222 0 l 2222 43 l 1959 43 b 1731 291 1817 43 1731 162 l 1731 464 l 2017 464 l 2017 509 l 1959 509 b 1731 755 1817 509 1731 627 l 1731 929 z m 1586 -114 b 1466 279 1409 -52 1469 217 b 1228 486 1450 395 1350 486 b 1229 972 1545 486 1545 972 l 802 972 l 802 509 b 450 509 685 509 567 509 b 223 755 309 509 223 627 l 223 929 l 714 929 l 714 972 l 49 972 l 49 0 l 714 0 l 714 43 l 450 43 b 223 291 309 43 223 162 l 223 464 l 574 464 b 802 217 714 464 802 345 l 802 0 l 976 0 l 976 464 l 1135 464 b 1478 -181 1381 464 1069 -62 b 2105 -69 1681 -240 1955 -197 l 2083 -34 b 1586 -114 1971 -122 1755 -172 z m 1112 527 b 976 755 1026 565 976 658 l 976 929 l 1136 929 b 1112 527 1302 914 1283 450 z "},"":{"ha":2233,"x_min":0,"x_max":0,"o":"m 1586 -114 b 1467 279 1409 -52 1469 217 b 1229 486 1452 395 1350 486 b 1229 972 1545 486 1545 972 l 802 972 l 802 509 b 450 509 685 509 567 509 b 223 755 311 509 223 627 l 223 929 l 714 929 l 714 972 l 49 972 l 49 0 l 714 0 l 714 43 l 450 43 b 223 291 311 43 223 162 l 223 464 l 574 464 b 802 217 714 464 802 345 l 802 0 l 976 0 l 976 464 l 1135 464 b 1478 -181 1381 464 1069 -62 b 2105 -69 1681 -240 1957 -197 l 2083 -34 b 1586 -114 1971 -122 1755 -172 z m 1112 527 b 976 755 1026 565 976 658 l 976 929 l 1136 929 b 1112 527 1304 914 1283 450 z m 1888 929 l 2222 929 l 2222 972 l 1795 972 b 1557 734 1664 972 1557 865 b 1888 465 1557 495 1738 465 b 1890 43 2038 465 2045 52 l 1555 43 l 1555 0 l 1767 0 b 2222 269 1953 0 2222 -26 b 1983 509 2222 402 2114 509 l 1888 509 b 1888 929 1736 522 1736 915 z "},"":{"ha":2203,"x_min":0,"x_max":0,"o":"m 916 509 l 450 509 b 223 755 311 509 223 627 l 223 929 l 716 929 l 716 972 l 49 972 l 49 0 l 716 0 l 716 43 l 450 43 b 223 291 311 43 223 162 l 223 464 l 1145 464 b 1136 43 1285 448 1288 52 l 802 43 l 802 0 l 1014 0 b 1469 269 1200 0 1469 -26 b 1229 509 1469 402 1360 509 l 1135 509 b 1135 929 983 522 983 915 l 1469 929 l 1469 972 l 1041 972 b 916 509 780 972 726 614 z m 2179 972 l 1557 972 l 1557 929 l 1803 929 l 1803 0 l 1978 0 l 1978 681 b 2222 929 1978 819 2064 929 l 2222 972 l 2179 972 z "},"":{"ha":2272,"x_min":0,"x_max":0,"o":"m 823 464 b 1050 217 962 464 1050 345 l 1050 0 l 1223 0 l 1223 681 b 1469 929 1223 819 1310 929 l 1469 972 l 802 972 l 802 929 l 1050 929 l 1050 509 l 452 509 b 223 755 311 509 223 627 l 223 929 l 716 929 l 716 972 l 49 972 l 49 0 l 716 0 l 716 43 l 452 43 b 223 291 311 43 223 162 l 223 464 z m 2050 972 l 2050 509 l 1959 509 b 1731 755 1819 509 1731 627 l 1731 972 l 1557 972 l 1557 234 b 1395 -114 1555 97 1543 -62 b 898 -34 1226 -172 1010 -122 l 876 -69 b 1322 -207 985 -162 1154 -207 b 1731 464 1776 -200 1731 114 l 2050 464 l 2050 0 l 2222 0 l 2222 972 z "},"":{"ha":2172,"x_min":0,"x_max":0,"o":"m 450 43 b 223 291 311 43 223 162 l 223 464 l 509 464 l 509 509 l 450 509 b 223 755 311 509 223 627 l 223 929 l 714 929 l 714 972 l 49 972 l 49 0 l 714 0 l 714 43 z m 1831 262 l 1831 641 l 2022 641 l 2022 686 b 1831 974 1955 722 1831 714 l 1657 974 l 1657 686 l 1495 686 l 1495 641 l 1657 641 l 1659 171 b 2190 2 1659 -33 2024 2 l 2190 62 b 1831 262 2017 62 1831 16 z m 974 631 b 974 683 974 648 974 665 l 802 683 l 802 383 b 640 -114 802 202 829 -48 b 143 -34 471 -172 255 -122 l 121 -69 b 567 -207 230 -162 397 -207 b 1062 605 1236 -196 817 512 b 1298 541 1160 643 1264 646 l 1298 0 l 1472 0 l 1471 514 b 974 631 1471 667 1164 740 z "},"":{"ha":2088,"x_min":0,"x_max":0,"o":"m 2079 443 b 1841 693 2079 581 1979 693 b 1412 222 1390 693 1410 700 l 1140 222 l 1140 178 l 1412 178 l 1412 171 b 1702 0 1422 167 1424 2 b 2009 129 1826 -2 1922 43 l 2009 195 b 1588 143 1797 -33 1612 69 l 1588 178 b 2079 443 1786 178 2079 150 z m 1588 564 b 1748 648 1588 657 1684 652 b 1748 222 1900 634 1900 236 l 1588 222 z m 452 43 b 224 291 311 43 224 162 l 224 464 l 511 464 l 511 509 l 452 509 b 224 755 311 509 224 627 l 224 929 l 716 929 l 716 972 l 49 972 l 49 0 l 716 0 l 716 43 z m 1335 583 l 1400 627 b 974 631 1286 700 1100 702 l 974 683 l 804 683 l 804 383 l 802 383 b 640 -114 802 202 829 -48 b 145 -34 471 -172 257 -122 l 123 -69 b 569 -207 231 -162 399 -207 b 978 564 1041 -200 978 148 b 1335 583 1088 629 1205 671 z "},"":{"ha":2043,"x_min":0,"x_max":0,"o":"m 716 43 l 450 43 b 223 291 311 43 223 162 l 223 464 l 509 464 l 509 509 l 450 509 b 223 755 311 509 223 627 l 223 929 l 716 929 l 716 972 l 49 972 l 49 0 l 716 0 z m 1716 624 b 2029 624 1845 624 1941 624 l 2029 684 b 1664 684 1909 684 1786 684 b 1424 515 1574 684 1424 645 b 1533 343 1424 386 1457 369 b 1728 317 1593 321 1666 317 b 1714 60 1862 314 1850 62 b 1078 60 1585 60 1166 60 l 1078 0 b 1731 0 1145 0 1614 0 b 2028 179 1876 0 2028 53 b 1921 352 2028 305 1995 326 b 1726 378 1860 374 1786 378 b 1716 624 1590 378 1622 612 z m 1335 583 l 1398 627 b 974 631 1285 700 1098 702 l 974 683 l 802 683 l 802 383 b 640 -114 802 202 830 -48 b 143 -34 471 -172 255 -122 l 123 -69 b 567 -207 230 -162 399 -207 b 976 564 1042 -200 976 147 b 1335 583 1088 629 1205 671 z "},"":{"ha":1919,"x_min":0,"x_max":0,"o":"m 1578 262 l 1578 641 l 1769 641 l 1769 686 b 1578 974 1702 722 1578 714 l 1404 974 l 1404 686 b 921 686 1243 686 1081 686 b 681 515 831 686 681 645 b 790 343 681 386 714 369 b 983 317 848 321 923 317 b 971 43 1117 314 1107 45 l 452 43 b 223 291 311 43 223 162 l 223 464 l 511 464 l 511 509 l 452 509 b 223 755 311 509 223 627 l 223 929 l 716 929 l 716 972 l 49 972 l 49 0 l 716 0 b 1285 179 890 0 1285 -40 b 1176 352 1285 305 1252 326 b 983 378 1117 374 1043 378 b 971 641 847 378 879 629 l 1404 641 l 1405 171 b 1936 2 1407 -33 1771 2 l 1936 62 b 1578 262 1764 62 1578 16 z "},"":{"ha":2088,"x_min":0,"x_max":0,"o":"m 381 641 l 797 641 l 798 171 b 1329 2 800 -33 1164 2 l 1329 62 b 971 262 1157 62 971 16 l 971 641 l 1162 641 l 1162 686 b 971 974 1095 722 971 714 l 797 974 l 797 686 l 381 686 z m 223 291 l 223 464 l 509 464 l 509 509 l 450 509 b 223 755 309 509 223 627 l 223 929 l 714 929 l 714 972 l 49 972 l 49 0 l 714 0 l 714 43 l 450 43 b 223 291 309 43 223 162 z m 2067 0 l 2062 483 b 1640 683 2019 695 1798 683 l 1640 970 l 1464 970 l 1464 246 b 1302 -114 1464 107 1455 -60 b 807 -34 1133 -172 919 -122 l 785 -69 b 1231 -207 893 -162 1061 -207 b 1716 605 1888 -196 1493 472 b 1805 596 1738 617 1788 615 b 1850 398 1850 552 1848 479 l 1852 398 l 1852 0 z "},"":{"ha":2124,"x_min":0,"x_max":0,"o":"m 220 178 b 710 443 408 178 710 148 b 470 693 710 581 608 693 b 41 219 30 693 8 662 b 1411 -93 55 -326 1104 -264 l 1411 -43 b 220 178 1156 -193 286 -198 z m 217 564 b 377 648 217 657 313 652 b 377 222 530 634 530 236 l 217 222 z m 968 631 b 968 683 968 648 968 665 l 796 683 l 796 0 l 970 0 l 970 453 b 1292 541 970 669 1272 674 l 1292 0 l 1466 0 l 1465 514 b 968 631 1465 667 1158 740 z m 1771 262 l 1771 641 l 1965 641 l 1965 686 b 1771 974 1897 722 1771 714 l 1599 974 l 1599 686 l 1437 686 l 1437 641 l 1599 641 l 1599 171 b 2130 2 1601 -33 1966 2 l 2130 62 b 1771 262 1959 62 1771 16 z "},"":{"ha":2167,"x_min":0,"x_max":0,"o":"m 970 564 b 1328 583 1082 629 1199 671 l 1394 627 b 968 631 1278 700 1092 702 l 968 683 l 798 683 l 798 0 l 970 0 z m 220 178 b 710 443 408 178 710 148 b 470 693 710 581 610 693 b 41 219 30 693 8 662 b 1411 -93 56 -326 1104 -264 l 1411 -43 b 220 178 1156 -193 287 -198 z m 217 564 b 377 648 217 657 313 652 b 377 222 530 634 530 236 l 217 222 z m 2149 443 b 1909 693 2149 581 2047 693 b 1482 171 1442 693 1482 700 l 1484 171 b 1771 0 1485 53 1640 0 b 2078 129 1896 -2 1990 43 l 2078 195 b 1656 143 1866 -33 1680 69 l 1656 178 b 2149 443 1844 178 2149 147 z m 1656 564 b 1816 648 1656 657 1753 652 b 1816 222 1970 634 1970 236 l 1656 222 z "},"":{"ha":2106,"x_min":0,"x_max":0,"o":"m 970 564 b 1328 583 1082 629 1199 671 l 1394 627 b 968 631 1278 700 1094 702 l 968 683 l 798 683 l 798 0 l 970 0 z m 1773 624 b 2089 624 1902 624 2001 624 l 2089 684 b 1723 684 1966 684 1844 684 b 1484 515 1634 684 1484 645 b 1590 343 1484 386 1515 369 b 1785 317 1651 321 1723 317 b 1771 60 1920 314 1908 62 b 1089 60 1642 60 1175 60 l 1089 0 b 1789 0 1154 0 1672 0 b 2085 179 1934 0 2085 53 b 1978 352 2085 305 2054 326 b 1784 378 1920 374 1846 378 b 1773 624 1647 378 1680 612 z m 220 178 b 710 443 408 178 710 148 b 470 693 710 581 610 693 b 41 219 30 693 8 662 b 1411 -93 56 -326 1106 -264 l 1411 -43 b 220 178 1156 -193 287 -198 z m 217 564 b 377 648 217 657 313 652 b 377 222 530 634 530 236 l 217 222 z "},"":{"ha":2167,"x_min":0,"x_max":0,"o":"m 1390 179 b 1281 352 1390 305 1357 326 b 1088 378 1223 374 1149 378 b 1076 624 952 378 985 612 b 1392 624 1207 624 1304 624 l 1392 684 b 1026 684 1269 684 1149 684 b 787 515 937 684 787 645 b 895 343 787 386 819 369 b 1088 317 954 321 1028 317 b 1076 60 1223 314 1211 62 b 785 60 945 60 871 60 l 785 0 b 1390 179 955 0 1390 -47 z m 1814 262 l 1814 641 l 2007 641 l 2007 686 b 1814 974 1940 722 1814 714 l 1640 974 l 1640 686 l 1480 686 l 1480 641 l 1640 641 l 1642 171 b 2172 2 1643 -33 2009 2 l 2172 62 b 1814 262 2002 62 1814 16 z m 219 178 b 709 443 407 178 709 148 b 469 693 709 581 609 693 b 40 219 30 693 9 662 b 1411 -93 56 -326 1105 -264 l 1411 -43 b 219 178 1155 -193 287 -198 z m 218 564 b 378 648 218 657 314 652 b 378 222 530 634 530 236 l 218 222 z "},"":{"ha":2150,"x_min":0,"x_max":0,"o":"m 220 178 b 710 443 408 178 710 148 b 470 693 710 581 608 693 b 41 219 30 693 8 662 b 1411 -93 56 -326 1104 -264 l 1411 -43 b 220 178 1156 -193 286 -198 z m 217 564 b 377 648 217 657 313 652 b 377 222 530 634 530 236 l 217 222 z m 1051 262 l 1051 641 l 1244 641 l 1244 686 b 1051 974 1177 722 1051 714 l 879 974 l 879 686 l 717 686 l 717 641 l 879 641 l 879 171 b 1411 2 880 -33 1246 2 l 1411 62 b 1051 262 1239 62 1051 16 z m 2115 0 l 2109 483 b 1685 683 2066 695 1846 683 l 1685 970 l 1511 970 l 1511 0 l 1685 0 l 1685 391 b 1853 596 1685 669 1835 615 b 1897 398 1897 552 1896 479 l 1897 0 z "},"":{"ha":1449,"x_min":0,"x_max":0,"o":"m 49 0 l 223 0 l 223 464 b 574 464 416 464 380 464 b 804 233 716 464 804 362 l 804 0 l 976 0 l 976 464 b 1264 464 1073 464 1167 464 l 1264 507 l 1204 507 b 976 755 1064 507 976 627 l 976 929 l 1469 929 l 1469 972 l 804 972 l 804 507 l 450 507 b 223 755 309 507 223 627 l 223 929 l 716 929 l 716 972 l 49 972 z "},"":{"ha":1017,"x_min":0,"x_max":0,"o":"m 49 0 l 223 0 l 223 464 l 511 464 l 511 507 l 450 507 b 223 755 311 507 223 627 l 223 929 l 716 929 l 716 972 l 49 972 z m 821 683 b 600 436 693 672 600 565 l 600 257 l 309 257 l 309 209 l 600 209 l 600 -290 l 776 -290 l 776 209 l 940 209 l 940 257 b 776 484 864 257 790 284 b 1023 640 785 643 879 640 l 1023 683 z "},"":{"ha":2299,"x_min":0,"x_max":0,"o":"m 1469 333 l 1469 638 b 1136 972 1469 822 1319 972 b 804 638 954 972 804 822 l 804 507 l 450 507 b 223 755 309 507 223 627 l 223 929 l 716 929 l 716 972 l 49 972 l 49 0 l 223 0 l 223 464 l 593 464 b 804 331 697 464 771 410 b 1136 0 804 148 954 0 b 1469 333 1319 0 1469 148 z m 973 205 l 973 464 l 1145 464 l 1145 507 l 973 507 l 973 765 b 1298 765 973 979 1298 979 l 1298 205 b 973 205 1298 -9 973 -9 z m 2028 486 b 2029 972 2343 486 2345 970 l 1600 972 l 1600 383 b 1438 -114 1600 202 1628 -48 b 942 -34 1269 -172 1055 -124 l 921 -69 b 1367 -207 1028 -162 1197 -207 b 1774 464 1819 -200 1774 114 l 1934 464 b 2050 0 2083 464 2050 117 l 2265 0 l 2265 278 b 2028 486 2250 395 2148 486 z m 1910 527 b 1774 755 1824 565 1774 658 l 1774 927 l 1936 927 b 1910 527 2102 912 2083 450 z "},"":{"ha":1932,"x_min":0,"x_max":0,"o":"m 223 755 l 223 929 l 716 929 l 716 972 l 49 972 l 49 0 l 223 0 l 223 464 l 511 464 l 511 507 l 450 507 b 223 755 309 507 223 627 z m 1526 629 l 1526 681 l 1354 681 b 1317 0 1354 545 1374 121 b 697 -34 1217 -214 842 -148 l 674 -69 b 1121 -207 783 -162 950 -207 b 1529 383 1543 -200 1529 64 l 1528 383 l 1528 562 b 1886 581 1640 627 1757 671 l 1950 626 b 1526 629 1836 698 1650 700 z m 1257 338 b 924 696 1257 546 1112 696 b 592 355 742 696 592 543 b 1257 338 592 -126 1257 -100 z m 778 200 l 778 477 b 924 652 778 567 835 652 b 1071 477 1014 652 1071 567 l 1071 200 b 778 200 1071 -10 778 -9 z "},"":{"ha":1861,"x_min":0,"x_max":0,"o":"m 294 484 b 538 640 301 643 395 640 l 540 683 l 339 683 b 118 436 209 672 118 565 l 118 257 l -3 257 l -3 209 l 118 209 l 118 -290 l 292 -290 l 292 209 l 457 209 l 457 257 b 294 484 380 257 308 284 z m 1185 324 b 852 683 1185 533 1038 683 b 518 341 668 683 518 529 b 1185 324 518 -140 1185 -114 z m 704 464 b 852 638 704 553 763 638 b 997 464 940 638 997 553 l 997 186 b 704 186 997 -24 704 -22 z m 1443 631 l 1443 683 l 1273 683 b 1235 0 1273 545 1292 121 b 614 -34 1137 -214 759 -148 l 592 -69 b 1038 -207 701 -162 869 -207 b 1447 383 1461 -200 1447 64 l 1445 383 l 1445 564 b 1804 583 1557 629 1674 671 l 1869 627 b 1443 631 1754 698 1569 702 z "},"":{"ha":1514,"x_min":0,"x_max":0,"o":"m 223 465 l 542 465 l 542 0 l 716 0 l 716 972 l 542 972 l 542 509 l 452 509 b 223 757 311 509 223 627 l 223 972 l 49 972 l 49 0 l 223 0 z m 1273 972 l 1098 972 b 830 14 1050 784 911 140 b 190 -34 642 -271 331 -147 l 168 -67 b 871 0 364 -238 723 -281 b 947 207 904 64 929 134 l 1295 207 l 1347 0 l 1521 0 z m 1217 405 b 960 250 1186 236 1078 250 l 1121 888 b 1217 405 1148 777 1238 507 z "},"":{"ha":1458,"x_min":0,"x_max":0,"o":"m 49 972 l 49 0 l 223 0 l 223 465 l 542 465 l 542 383 l 540 383 b 574 0 540 259 533 110 b 1395 -67 686 -305 1209 -228 l 1372 -34 b 876 -114 1260 -122 1045 -171 b 714 247 724 -60 714 107 l 714 972 l 542 972 l 542 509 l 450 509 b 223 757 311 509 223 627 l 223 972 z m 802 0 l 1469 0 l 1469 43 l 1205 43 b 978 291 1064 43 978 164 l 978 465 l 1264 465 l 1264 509 l 1205 509 b 978 757 1064 509 978 627 l 978 929 l 1469 929 l 1469 972 l 802 972 z "},"":{"ha":1026,"x_min":0,"x_max":0,"o":"m 49 0 l 223 0 l 223 465 l 542 465 b 1021 -203 542 103 500 -241 l 1021 -164 b 716 383 704 -155 716 174 l 714 383 l 714 972 l 542 972 l 542 509 l 450 509 b 223 757 311 509 223 627 l 223 972 l 49 972 z m 802 0 l 978 0 l 978 972 l 802 972 z "},"":{"ha":1499,"x_min":0,"x_max":0,"o":"m 876 -114 b 714 247 724 -60 714 107 l 714 972 l 542 972 l 542 509 l 450 509 b 223 757 311 509 223 627 l 223 972 l 49 972 l 49 0 l 223 0 l 223 465 l 542 465 l 542 383 l 540 383 b 574 0 540 259 533 110 b 1395 -67 686 -305 1209 -228 l 1372 -34 b 876 -114 1260 -122 1045 -171 z m 1135 972 b 802 640 952 972 802 822 l 802 334 b 1135 0 802 150 952 0 b 1469 334 1317 0 1469 150 l 1469 640 b 1135 972 1469 822 1317 972 z m 1298 207 b 973 207 1298 -9 973 -9 l 973 767 b 1135 929 973 857 1045 929 b 1298 767 1224 929 1298 857 z "},"":{"ha":1494,"x_min":0,"x_max":0,"o":"m 878 -114 b 716 247 726 -60 716 107 l 716 972 l 542 972 l 542 509 l 452 509 b 224 757 311 509 224 627 l 224 972 l 49 972 l 49 0 l 224 0 l 224 465 l 542 465 l 542 383 b 576 0 542 259 535 110 b 1395 -67 688 -305 1210 -228 l 1374 -34 b 878 -114 1262 -122 1047 -171 z m 1467 515 b 874 555 1467 669 1107 786 l 874 491 b 1295 541 1086 715 1272 614 l 1295 509 b 804 246 1110 509 804 540 b 1042 0 804 110 904 0 l 1471 0 l 1471 514 z m 1191 79 b 1135 464 985 -62 964 448 l 1295 464 b 1191 79 1295 317 1319 165 z "},"":{"ha":1478,"x_min":0,"x_max":0,"o":"m 878 -114 b 716 247 726 -60 716 107 l 716 972 l 542 972 l 542 509 l 452 509 b 224 757 311 509 224 627 l 224 972 l 49 972 l 49 0 l 224 0 l 224 465 l 542 465 l 542 383 b 576 0 542 259 535 110 b 1395 -67 688 -305 1210 -228 l 1374 -34 b 878 -114 1262 -122 1047 -171 z m 1471 443 b 1233 693 1471 581 1371 693 b 804 172 766 693 804 702 l 807 171 b 1093 0 807 55 964 2 b 1400 131 1217 -2 1314 43 l 1400 195 b 979 145 1188 -33 1004 71 l 979 179 b 1471 443 1167 179 1471 148 z m 979 564 b 1140 650 979 657 1076 652 b 1140 222 1291 634 1291 238 l 979 222 z "},"":{"ha":1019,"x_min":0,"x_max":0,"o":"m 890 743 b 890 917 1004 743 1004 917 b 890 743 776 917 776 743 z m 716 250 l 716 972 l 542 972 l 542 509 l 450 509 b 223 757 311 509 223 627 l 223 972 l 49 972 l 49 0 l 223 0 l 223 465 l 542 465 l 542 383 l 540 383 l 540 267 b 1021 -203 540 -83 661 -231 l 1021 -164 b 716 250 780 -157 716 53 z m 976 683 l 802 683 l 802 0 l 976 0 z "},"":{"ha":1478,"x_min":0,"x_max":0,"o":"m 878 -114 b 716 247 726 -60 716 107 l 716 972 l 542 972 l 542 509 l 452 509 b 224 757 311 509 224 627 l 224 972 l 49 972 l 49 0 l 224 0 l 224 465 l 542 465 l 542 383 b 576 0 542 259 535 110 b 1395 -67 686 -305 1210 -228 l 1374 -34 b 878 -114 1260 -122 1047 -171 z m 1471 333 b 1138 691 1471 541 1324 691 b 804 350 954 691 804 538 b 1471 333 804 -131 1471 -105 z m 990 471 b 1138 646 990 562 1047 646 b 1283 471 1226 646 1283 562 l 1283 195 b 990 195 1283 -17 990 -14 z "},"":{"ha":1440,"x_min":0,"x_max":0,"o":"m 806 -114 b 644 383 617 -48 644 203 l 643 483 b 220 683 600 695 379 683 l 220 972 l 44 972 l 44 0 l 220 0 l 220 393 b 386 598 220 669 369 617 b 431 398 431 553 429 479 l 431 248 b 877 -205 451 229 343 -198 b 1324 -67 1048 -205 1215 -160 l 1301 -34 b 806 -114 1189 -122 975 -171 z m 1399 515 b 805 555 1398 669 1037 786 l 805 491 b 1227 541 1018 715 1203 614 l 1227 509 b 736 246 1041 509 736 540 b 974 0 736 110 836 0 l 1401 0 l 1401 514 z m 1122 79 b 1067 464 917 -62 896 448 l 1227 464 b 1122 79 1227 317 1249 165 z "},"":{"ha":1421,"x_min":0,"x_max":0,"o":"m 1403 443 b 1163 693 1403 581 1301 693 b 736 172 696 693 736 702 l 737 171 b 1025 0 739 55 894 2 b 1332 131 1149 -2 1244 43 l 1332 195 b 910 145 1120 -33 934 71 l 910 179 b 1403 443 1099 179 1403 148 z m 910 564 b 1070 650 910 657 1006 652 b 1070 222 1224 634 1224 238 l 910 222 z m 806 -114 b 643 483 579 -34 662 305 b 219 683 600 695 379 683 l 219 972 l 44 972 l 44 0 l 219 0 l 219 393 b 386 598 219 669 369 617 b 431 398 431 553 429 479 l 431 383 b 465 0 431 259 424 110 b 877 -205 518 -145 724 -203 b 1324 -67 1048 -205 1215 -160 l 1301 -34 b 806 -114 1189 -122 975 -171 z "},"":{"ha":953,"x_min":0,"x_max":0,"o":"m 643 483 b 220 683 600 695 379 683 l 220 972 l 44 972 l 44 0 l 220 0 l 220 393 b 386 598 220 669 369 617 b 431 398 431 553 429 479 l 432 398 l 432 383 l 431 383 b 465 0 431 259 425 110 b 877 -205 519 -145 725 -203 l 908 -205 l 908 -164 b 643 483 555 -114 668 253 z m 822 743 b 822 917 936 743 936 917 b 822 743 708 917 708 743 z m 736 683 l 736 0 l 908 0 l 908 683 z "},"":{"ha":1419,"x_min":0,"x_max":0,"o":"m 806 -114 b 644 383 617 -48 644 203 l 643 483 b 219 683 600 695 379 683 l 219 972 l 44 972 l 44 0 l 219 0 l 219 393 b 386 598 219 669 369 617 b 431 398 431 553 429 479 l 431 383 b 465 0 431 259 425 110 b 877 -205 518 -145 725 -203 b 1324 -67 1048 -205 1215 -160 l 1301 -34 b 806 -114 1189 -122 975 -171 z m 1401 340 b 1068 698 1401 548 1256 698 b 734 357 884 698 734 545 b 1401 340 734 -124 1401 -98 z m 920 477 b 1068 653 920 569 979 653 b 1215 477 1158 653 1215 569 l 1215 202 b 920 202 1215 -10 920 -7 z "},"":{"ha":2057,"x_min":0,"x_max":0,"o":"m 876 -114 b 714 247 724 -60 714 107 l 714 972 l 542 972 l 542 509 l 450 509 b 223 757 311 509 223 627 l 223 972 l 49 972 l 49 0 l 223 0 l 223 465 l 542 465 l 542 383 l 540 383 b 574 0 540 259 533 110 b 1255 -150 671 -260 1060 -231 l 1255 -98 b 876 -114 1143 -141 998 -155 z m 2034 972 l 1410 972 l 1410 929 l 1657 929 l 1657 0 l 1831 0 l 1831 681 b 2077 929 1831 819 1917 929 l 2077 972 l 2034 972 z m 1483 145 l 1273 972 l 1098 972 l 847 0 l 897 0 l 947 207 l 1293 207 l 1333 57 b 2078 -155 1428 -222 1817 -253 l 2078 -103 b 1483 145 1864 -179 1552 -148 z m 1217 405 b 960 250 1185 236 1076 250 l 1121 888 b 1217 405 1148 777 1236 507 z "},"":{"ha":2253,"x_min":0,"x_max":0,"o":"m 1372 1007 l 1395 1041 b 973 1179 1295 1126 1133 1177 b 540 590 530 1183 540 922 l 542 590 l 542 509 l 450 509 b 223 757 309 509 223 627 l 223 972 l 49 972 l 49 0 l 223 0 l 223 465 l 542 465 l 542 0 l 714 0 l 714 590 b 752 972 714 708 705 874 b 1372 1007 850 1186 1228 1120 z m 1983 488 b 1984 972 2298 488 2300 972 l 1557 972 l 1557 246 b 1395 -114 1557 107 1547 -60 b 898 -34 1226 -171 1010 -122 l 876 -67 b 1322 -205 985 -160 1152 -205 b 1731 383 1745 -200 1731 66 l 1729 383 l 1729 465 l 1890 465 b 2005 0 2038 465 2005 119 l 2221 0 l 2221 279 b 1983 488 2205 396 2103 488 z m 1867 527 b 1729 757 1781 567 1729 658 l 1729 929 l 1891 929 b 1867 527 2057 914 2038 452 z m 1205 43 b 976 291 1064 43 976 164 l 976 465 l 1264 465 l 1264 509 l 1205 509 b 976 757 1064 509 976 627 l 976 929 l 1469 929 l 1469 972 l 802 972 l 802 0 l 1469 0 l 1469 43 z "},"":{"ha":2235,"x_min":0,"x_max":0,"o":"m 1559 734 b 1669 510 1559 614 1603 546 l 1226 510 l 1226 509 b 978 929 948 509 978 762 l 1469 929 l 1469 972 l 804 972 l 804 0 l 1469 0 l 1469 43 l 1205 43 b 978 291 1064 43 978 164 l 978 465 l 1900 465 b 1891 45 2040 448 2043 52 l 1557 45 l 1557 2 l 1767 2 b 2224 269 1955 2 2224 -26 b 1957 509 2224 414 2114 509 l 1957 510 l 1886 510 b 1890 931 1736 531 1738 915 l 2224 931 l 2224 974 l 1797 974 b 1559 734 1666 974 1559 865 z m 948 -205 b 1395 -67 1119 -205 1286 -160 l 1372 -34 b 878 -114 1260 -122 1047 -171 b 716 247 724 -60 716 107 l 716 972 l 542 972 l 542 509 l 452 509 b 223 757 311 509 223 627 l 223 972 l 49 972 l 49 0 l 223 0 l 223 465 l 542 465 l 542 383 b 948 -205 542 66 526 -200 z "},"":{"ha":2146,"x_min":0,"x_max":0,"o":"m 878 -114 b 716 247 726 -60 716 107 l 716 972 l 542 972 l 542 509 l 452 509 b 224 757 311 509 224 627 l 224 972 l 49 972 l 49 0 l 224 0 l 224 465 l 542 465 l 542 383 b 576 0 542 259 535 110 b 1395 -67 686 -305 1210 -228 l 1374 -34 b 878 -114 1260 -122 1047 -171 z m 1805 264 l 1805 643 l 1996 643 l 1996 686 b 1805 976 1929 724 1805 715 l 1631 976 l 1631 686 l 1471 686 l 1471 643 l 1631 643 l 1633 172 b 2164 2 1635 -33 2000 2 l 2164 62 b 1805 264 1991 62 1805 17 z m 874 555 l 874 491 b 1295 541 1086 715 1271 614 l 1295 509 b 804 246 1110 509 804 540 b 1042 0 804 110 904 0 l 1471 0 l 1471 514 l 1467 515 b 874 555 1467 669 1107 786 z m 1191 79 b 1135 464 985 -62 964 448 l 1295 464 b 1191 79 1295 317 1319 165 z "},"":{"ha":2136,"x_min":0,"x_max":0,"o":"m 1729 633 l 1729 683 l 1557 683 b 1521 0 1557 546 1578 122 b 900 -34 1421 -212 1043 -148 l 878 -67 b 1324 -205 986 -160 1154 -205 b 1733 383 1747 -200 1733 66 l 1731 383 l 1731 565 b 2088 583 1843 629 1959 672 l 2153 629 b 1729 633 2040 700 1853 703 z m 1400 126 l 1400 190 b 978 140 1188 -36 1002 66 l 978 172 b 1469 440 1179 172 1469 148 b 1231 688 1469 576 1369 688 b 804 217 780 688 802 696 l 714 217 l 714 972 l 542 972 l 542 509 l 450 509 b 223 757 311 509 223 627 l 223 972 l 49 972 l 49 0 l 223 0 l 223 465 l 542 465 l 542 0 l 714 0 l 714 172 l 804 172 l 804 167 l 805 167 b 1093 -5 805 50 962 -3 b 1400 126 1216 -7 1312 38 z m 978 559 b 1138 645 978 652 1074 648 b 1138 217 1291 629 1291 233 l 978 217 z "}}}
